<svg width="25" height="25" viewBox="0 0 25 25" fill="none" xmlns="http://www.w3.org/2000/svg">
<g clip-path="url(#clip0_593_61809)">
<path d="M22.8089 4.81396H2.65175C2.50674 4.81396 2.34722 4.82847 2.20221 4.85747C2.05719 4.88647 1.91218 4.92998 1.76716 5.00248C1.63665 5.06049 1.50614 5.162 1.40462 5.26351C1.30311 5.36502 1.2016 5.49554 1.1436 5.62605C1.07109 5.75656 1.02759 5.90158 0.998583 6.06109C0.96958 6.20611 0.96958 6.36563 0.955078 6.51064V18.4744C0.955078 18.6194 0.96958 18.7789 0.998583 18.9239C1.02759 19.0689 1.07109 19.214 1.1436 19.359C1.21611 19.4895 1.30311 19.62 1.40462 19.7215C1.50614 19.823 1.63665 19.9245 1.76716 19.9825C1.89768 20.0551 2.04269 20.0986 2.20221 20.1276C2.34722 20.1566 2.50674 20.1566 2.65175 20.1711H23.2584C23.4034 20.1711 23.5629 20.1566 23.7079 20.1276C23.853 20.0986 23.998 20.0551 24.143 19.9825C24.2735 19.91 24.404 19.823 24.5055 19.7215C24.607 19.62 24.7086 19.4895 24.7666 19.359C24.8391 19.2285 24.8826 19.0835 24.9116 18.9239C24.9406 18.7789 24.9406 18.6194 24.9551 18.4744V18.2714V6.96019V6.71366V6.51064C24.9551 6.36563 24.9406 6.20611 24.9116 6.06109C24.8826 5.91608 24.8391 5.77106 24.7666 5.62605C24.694 5.49554 24.607 5.36502 24.5055 5.26351C24.404 5.162 24.2735 5.06049 24.143 5.00248C24.0125 4.92998 23.8675 4.88647 23.7079 4.85747C23.5629 4.82847 23.4034 4.82847 23.2584 4.81396H22.8089Z" fill="black"/>
<path d="M22.8086 5.32178H23.2582C23.3742 5.32178 23.5047 5.33628 23.6352 5.35078C23.7512 5.36528 23.8382 5.39428 23.9252 5.43779C24.0123 5.48129 24.0848 5.5393 24.1573 5.61181C24.2298 5.68432 24.2878 5.75682 24.3313 5.84383C24.3748 5.93084 24.4038 6.01785 24.4183 6.13386C24.4473 6.26438 24.4473 6.39489 24.4473 6.5109V18.4746C24.4473 18.5907 24.4328 18.7212 24.4183 18.8517C24.4038 18.9532 24.3748 19.0547 24.3313 19.1417C24.2878 19.2287 24.2298 19.3012 24.1573 19.3737C24.0848 19.4462 24.0123 19.5043 23.9252 19.5478C23.8382 19.5913 23.7512 19.6203 23.6352 19.6348C23.5047 19.6638 23.3742 19.6638 23.2582 19.6638H2.65153C2.55002 19.6638 2.405 19.6493 2.27449 19.6348C2.17298 19.6203 2.07147 19.5913 1.98446 19.5333C1.89745 19.4898 1.82494 19.4317 1.75243 19.3592C1.67992 19.2867 1.62192 19.2142 1.57841 19.1272C1.53491 19.0402 1.50591 18.9532 1.49141 18.8372C1.4624 18.7067 1.4624 18.5762 1.4624 18.4601V6.71392V6.5109C1.4624 6.39489 1.4769 6.26438 1.49141 6.13386C1.50591 6.03235 1.53491 5.93084 1.57841 5.84383C1.62192 5.75682 1.67992 5.68432 1.75243 5.61181C1.82494 5.5393 1.89745 5.48129 1.98446 5.43779C2.07147 5.39428 2.15847 5.36528 2.27449 5.35078C2.405 5.32178 2.53551 5.32178 2.65153 5.32178H22.8086Z" fill="white"/>
<path d="M7.50986 9.97663C7.71288 9.7156 7.8579 9.36757 7.81439 9.01953C7.50986 9.03403 7.14732 9.22255 6.9298 9.46908C6.74128 9.6866 6.56726 10.0491 6.61077 10.3827C6.9588 10.4262 7.29234 10.2377 7.50986 9.97663ZM7.81439 10.4697C7.32134 10.4407 6.9008 10.7452 6.66877 10.7452C6.43675 10.7452 6.07421 10.4842 5.68267 10.4842C5.17512 10.4987 4.71107 10.7742 4.45004 11.2383C3.92799 12.1519 4.30503 13.5005 4.82708 14.2401C5.07361 14.6026 5.37814 15.0087 5.76968 14.9942C6.14672 14.9797 6.29173 14.7476 6.74128 14.7476C7.19083 14.7476 7.32134 14.9942 7.72738 14.9797C8.13342 14.9652 8.39445 14.6171 8.64098 14.2401C8.93101 13.8195 9.04702 13.4135 9.04702 13.399C9.03252 13.3845 8.24944 13.0945 8.24944 12.1954C8.23493 11.4413 8.8585 11.0787 8.8875 11.0642C8.55397 10.5422 8.00291 10.4842 7.81439 10.4697Z" fill="black"/>
<path d="M12.0778 9.43994C13.1509 9.43994 13.8905 10.1795 13.8905 11.2381C13.8905 12.3112 13.1364 13.0508 12.0488 13.0508H10.8741V14.9215H10.0186V9.43994H12.0778ZM10.8741 12.3402H11.8457C12.5853 12.3402 13.0059 11.9342 13.0059 11.2526C13.0059 10.5566 12.5853 10.165 11.8457 10.165H10.8596V12.3402H10.8741ZM14.108 13.8049C14.108 13.1088 14.6445 12.6738 15.6016 12.6158L16.7038 12.5578V12.2532C16.7038 11.8037 16.3992 11.5427 15.9062 11.5427C15.4276 11.5427 15.1376 11.7747 15.0651 12.1227H14.282C14.3255 11.3976 14.9491 10.8611 15.9352 10.8611C16.9068 10.8611 17.5303 11.3686 17.5303 12.1807V14.936H16.7473V14.2834H16.7328C16.5007 14.733 15.9932 15.0085 15.4711 15.0085C14.659 15.0085 14.108 14.5155 14.108 13.8049ZM16.7038 13.4424V13.1233L15.7176 13.1813C15.2246 13.2103 14.9491 13.4279 14.9491 13.7759C14.9491 14.1239 15.2391 14.356 15.6741 14.356C16.2542 14.356 16.7038 13.9644 16.7038 13.4424ZM18.2554 16.4152V15.7481C18.3134 15.7626 18.4584 15.7626 18.5164 15.7626C18.8935 15.7626 19.0965 15.6031 19.227 15.197C19.227 15.1825 19.2995 14.9505 19.2995 14.9505L17.8494 10.9481H18.734L19.7491 14.2109H19.7636L20.7787 10.9481H21.6488L20.1551 15.168C19.8071 16.1396 19.4155 16.4442 18.5889 16.4442C18.5309 16.4297 18.3279 16.4297 18.2554 16.4152Z" fill="black"/>
</g>
<defs>
<clipPath id="clip0_593_61809">
<rect width="24" height="24" fill="white" transform="translate(0.955078 0.5)"/>
</clipPath>
</defs>
</svg>
