<svg width="256" height="85" viewBox="0 0 256 85" fill="none" xmlns="http://www.w3.org/2000/svg">
<path d="M152.979 41.4165C152.072 43.5016 150.556 45.2685 148.625 46.4885C146.695 47.7085 144.44 48.3254 142.152 48.2594C135.275 48.2594 130.087 43.0044 130.087 36.0418C130.087 29.0793 135.275 23.8306 142.152 23.8306C147.023 23.8306 151.043 26.3509 152.903 30.5726L153.259 31.3791H157.869L157.196 29.5644C154.859 23.3202 149.099 19.4388 142.152 19.4388C132.716 19.4388 125.598 26.5778 125.598 36.0418C125.598 45.5059 132.722 52.6449 142.152 52.6449C145.427 52.7103 148.642 51.7653 151.353 49.9403C154.063 48.1152 156.136 45.5002 157.285 42.4562L157.99 40.6289H153.341L152.979 41.4165Z" fill="white"/>
<path d="M188.266 24.7441C186.724 23.0343 184.827 21.6751 182.707 20.7595C180.586 19.8438 178.291 19.3933 175.979 19.4387C166.594 19.4387 159.52 26.5777 159.52 36.0417C159.52 45.5057 166.594 52.6447 175.979 52.6447C178.284 52.6896 180.573 52.2418 182.688 51.3318C184.804 50.4219 186.698 49.071 188.241 47.3708L188.362 52.0777H192.572V20.012H188.413L188.266 24.7441ZM176.074 48.2593C169.197 48.2593 164.009 43.0106 164.009 36.0417C164.009 29.0728 169.197 23.8304 176.074 23.8304C182.951 23.8304 188.082 28.9846 188.082 36.0417C188.082 43.0988 183.034 48.2593 176.074 48.2593Z" fill="white"/>
<path d="M210.824 33.1499C205.293 32.23 202.868 31.518 202.868 28.5628C202.868 25.6077 205.77 23.7363 210.272 23.7363C212.958 23.7363 217.517 24.4294 217.841 29.0921L217.924 30.3523H222.312L222.255 28.922C221.924 23.0747 217.352 19.4705 210.323 19.4705C203.293 19.4705 198.467 23.2511 198.467 28.6384C198.467 35.5695 204.868 36.6343 210.012 37.5102C215.346 38.3986 218.591 39.2177 218.591 42.9857C218.591 46.2433 215.416 48.3478 210.558 48.3478C207.7 48.3478 202.836 47.598 202.303 42.6266L202.176 41.4231H197.73L197.857 42.8849C198.385 48.9212 203.223 52.6766 210.488 52.6766C217.981 52.6766 223.01 48.7637 223.01 42.929C223.01 35.1662 215.974 34.0257 210.824 33.1499Z" fill="white"/>
<path d="M243.027 19.4389C241.13 19.4491 239.254 19.835 237.51 20.574C235.765 21.313 234.187 22.3902 232.867 23.7425V9.63464H228.422V52.0779H232.867V33.6224C232.891 31.0277 233.936 28.5449 235.778 26.703C237.62 24.8611 240.114 23.8056 242.729 23.7614C248.336 23.7614 251.555 27.3656 251.555 33.6476V52.0779H256V33.3515C255.988 24.9019 250.901 19.4389 243.027 19.4389Z" fill="white"/>
<path d="M135.449 66.9411H127.734C127.732 67.4184 127.824 67.8915 128.007 68.3329C128.19 68.7744 128.46 69.1755 128.8 69.513C129.14 69.8505 129.544 70.1178 129.989 70.2993C130.434 70.4808 130.911 70.5729 131.392 70.5704C132.076 70.5793 132.749 70.3936 133.331 70.0352C133.913 69.6768 134.379 69.1607 134.675 68.5478H135.195C134.889 69.2992 134.362 69.9416 133.682 70.3912C133.003 70.8407 132.202 71.0767 131.385 71.0682C130.276 71.0259 129.227 70.5589 128.457 69.7653C127.688 68.9717 127.258 67.9132 127.258 66.8119C127.258 65.7106 127.688 64.6521 128.457 63.8585C129.227 63.0649 130.276 62.598 131.385 62.5556C131.935 62.5524 132.479 62.6603 132.985 62.8726C133.49 63.0848 133.947 63.3971 134.328 63.7904C134.708 64.1836 135.004 64.6495 135.196 65.1598C135.389 65.6701 135.475 66.214 135.449 66.7584C135.456 66.7899 135.449 66.8781 135.449 66.9411ZM127.747 66.4811H134.973C134.961 65.5497 134.578 64.661 133.906 64.0101C133.235 63.3591 132.33 62.9992 131.392 63.0093C130.447 63.0006 129.537 63.359 128.856 64.0079C128.175 64.6568 127.777 65.5446 127.747 66.4811Z" fill="white"/>
<path d="M145.419 62.6948V70.886H144.993L144.936 68.7437C144.602 69.4488 144.068 70.0419 143.399 70.4504C142.73 70.8589 141.956 71.065 141.171 71.0436C140.061 71.0012 139.012 70.5342 138.242 69.7407C137.473 68.9471 137.043 67.8886 137.043 66.7873C137.043 65.6859 137.473 64.6274 138.242 63.8338C139.012 63.0403 140.061 62.5733 141.171 62.5309C141.956 62.5123 142.73 62.7194 143.399 63.1275C144.069 63.5356 144.605 64.1272 144.943 64.8308L145.006 62.6885L145.419 62.6948ZM144.923 66.7967C144.945 66.3014 144.864 65.8069 144.686 65.3439C144.507 64.8808 144.235 64.459 143.886 64.1046C143.536 63.7502 143.117 63.4708 142.655 63.2836C142.192 63.0963 141.696 63.0053 141.196 63.0161C140.185 63.0161 139.216 63.4144 138.502 64.1234C137.787 64.8324 137.386 65.794 137.386 66.7967C137.386 67.7994 137.787 68.761 138.502 69.47C139.216 70.179 140.185 70.5773 141.196 70.5773C141.694 70.5847 142.188 70.4909 142.648 70.3017C143.108 70.1125 143.525 69.832 143.871 69.4773C144.218 69.1226 144.488 68.7012 144.665 68.2392C144.841 67.7771 144.921 67.2841 144.898 66.7904L144.923 66.7967Z" fill="white"/>
<path d="M147.625 68.6804H148.108C148.235 69.9027 149.219 70.6084 150.781 70.6084C152.343 70.6084 153.404 69.8775 153.404 68.7182C153.404 67.2941 152.057 67.0484 150.692 66.8279C149.327 66.6073 147.79 66.3364 147.79 64.7233C147.79 63.4253 148.971 62.5432 150.717 62.5432C152.464 62.5432 153.588 63.419 153.67 64.8368H153.2C153.118 63.6774 152.203 62.9906 150.711 62.9906C149.219 62.9906 148.266 63.6774 148.266 64.7107C148.266 65.9709 149.46 66.1411 150.806 66.3616C152.254 66.601 153.886 66.8972 153.886 68.7119C153.886 70.1233 152.616 71.0558 150.768 71.0558C148.92 71.0558 147.752 70.1485 147.625 68.6804Z" fill="white"/>
<path d="M162.856 62.6941L158.646 71.6163C157.846 73.3112 157.128 73.7901 155.814 73.7901H155.179V73.3364H155.814C156.951 73.3364 157.516 72.9899 158.227 71.4461L158.729 70.4065L154.836 62.6941H155.382L158.957 69.8898L162.329 62.6941H162.856Z" fill="white"/>
<path d="M179.35 62.6941L176.422 70.8853H176.048L173.228 63.8976L170.434 70.8853H170.06L167.215 62.6941H167.729L170.269 70.041L173.12 62.9587H173.362L176.245 70.0599L178.874 62.6941H179.35Z" fill="white"/>
<path d="M188.949 62.6951V70.8863H188.517L188.466 68.744C188.13 69.4491 187.594 70.042 186.925 70.4504C186.255 70.8587 185.48 71.0649 184.694 71.0439C183.585 71.0015 182.535 70.5345 181.766 69.741C180.996 68.9474 180.566 67.8889 180.566 66.7876C180.566 65.6862 180.996 64.6277 181.766 63.8342C182.535 63.0406 183.585 62.5736 184.694 62.5313C185.48 62.5102 186.255 62.7164 186.925 63.1247C187.594 63.5331 188.13 64.126 188.466 64.8311L188.529 62.6888L188.949 62.6951ZM188.447 66.797C188.469 66.3017 188.388 65.8072 188.209 65.3442C188.031 64.8811 187.759 64.4593 187.409 64.1049C187.06 63.7506 186.641 63.4711 186.178 63.2839C185.715 63.0966 185.219 63.0056 184.719 63.0164C183.709 63.0164 182.74 63.4147 182.025 64.1237C181.311 64.8327 180.909 65.7943 180.909 66.797C180.909 67.7997 181.311 68.7613 182.025 69.4703C182.74 70.1793 183.709 70.5776 184.719 70.5776C185.22 70.5885 185.716 70.4973 186.18 70.3096C186.643 70.122 187.062 69.842 187.411 69.4869C187.761 69.1318 188.033 68.7093 188.211 68.2455C188.389 67.7817 188.47 67.2865 188.447 66.7907V66.797Z" fill="white"/>
<path d="M198.838 62.6941L194.628 71.6163C193.828 73.3112 193.11 73.7901 191.796 73.7901H191.161V73.3364H191.796C192.932 73.3364 193.498 72.9899 194.209 71.4461L194.71 70.4065L190.824 62.6941H191.364L194.952 69.8898L198.317 62.6941H198.838Z" fill="white"/>
<path d="M203.77 68.6804H204.252C204.385 69.9027 205.37 70.6084 206.932 70.6084C208.494 70.6084 209.548 69.8775 209.548 68.7182C209.548 67.2941 208.202 67.0484 206.843 66.8279C205.484 66.6073 203.935 66.3364 203.935 64.7233C203.935 63.4253 205.122 62.5432 206.868 62.5432C208.615 62.5432 209.739 63.419 209.821 64.8368H209.345C209.269 63.6774 208.354 62.9906 206.856 62.9906C205.357 62.9906 204.411 63.6774 204.411 64.7107C204.411 65.9709 205.605 66.1411 206.951 66.3616C208.399 66.601 210.037 66.8972 210.037 68.7119C210.037 70.1233 208.767 71.0558 206.919 71.0558C205.071 71.0558 203.903 70.1485 203.77 68.6804Z" fill="white"/>
<path d="M219.002 62.6941L214.792 71.6163C213.992 73.3112 213.281 73.7901 211.96 73.7901H211.325V73.3364H211.96C213.097 73.3364 213.655 72.9899 214.373 71.4461L214.868 70.4065L210.988 62.6941H211.528L215.103 69.8898L218.481 62.6941H219.002Z" fill="white"/>
<path d="M219.906 68.6804H220.389C220.516 69.9027 221.506 70.6084 223.062 70.6084C224.618 70.6084 225.685 69.8775 225.685 68.7182C225.685 67.2941 224.339 67.0484 222.98 66.8279C221.621 66.6073 220.071 66.3364 220.071 64.7233C220.071 63.4253 221.259 62.5432 222.999 62.5432C224.739 62.5432 225.875 63.419 225.952 64.8368H225.482C225.405 63.6774 224.491 62.9906 222.992 62.9906C221.494 62.9906 220.548 63.6774 220.548 64.7107C220.548 65.9709 221.741 66.1411 223.088 66.3616C224.535 66.601 226.174 66.8972 226.174 68.7119C226.174 70.1233 224.904 71.0558 223.056 71.0558C221.208 71.0558 220.033 70.1485 219.906 68.6804Z" fill="white"/>
<path d="M232.475 70.4315V70.8977H231.389C231.052 70.9246 230.712 70.8773 230.395 70.7592C230.078 70.6411 229.791 70.4552 229.555 70.2145C229.318 69.9739 229.138 69.6845 229.027 69.367C228.916 69.0495 228.877 68.7116 228.913 68.3774V63.135H227.008V62.7065H228.913V60.2869H229.402V62.7065H232.418V63.135H229.414V68.3837C229.384 68.6572 229.415 68.9341 229.506 69.1941C229.597 69.4542 229.745 69.6909 229.94 69.887C230.134 70.0831 230.371 70.2337 230.631 70.3279C230.892 70.4221 231.17 70.4575 231.447 70.4315H232.475Z" fill="white"/>
<path d="M241.537 66.9411H233.828C233.826 67.4195 233.919 67.8936 234.103 68.3359C234.287 68.7782 234.557 69.1798 234.898 69.5175C235.24 69.8552 235.646 70.1222 236.092 70.3029C236.538 70.4837 237.017 70.5746 237.499 70.5704C238.182 70.5789 238.854 70.3929 239.435 70.0345C240.016 69.6761 240.481 69.1602 240.775 68.5478H241.309C241.002 69.2987 240.474 69.9406 239.795 70.3901C239.115 70.8395 238.315 71.0758 237.499 71.0682C236.39 71.0259 235.34 70.5589 234.571 69.7653C233.801 68.9717 233.371 67.9132 233.371 66.8119C233.371 65.7106 233.801 64.6521 234.571 63.8585C235.34 63.0649 236.39 62.598 237.499 62.5556C238.048 62.5524 238.592 62.6603 239.097 62.8726C239.603 63.085 240.059 63.3973 240.439 63.7907C240.819 64.184 241.114 64.65 241.306 65.1603C241.498 65.6705 241.583 66.2143 241.556 66.7584C241.544 66.7899 241.544 66.8781 241.537 66.9411ZM233.835 66.4811H241.067C241.054 65.5524 240.672 64.6666 240.003 64.0164C239.335 63.3662 238.435 63.0042 237.499 63.0093C236.552 62.9972 235.637 63.354 234.952 64.0031C234.267 64.6522 233.866 65.5418 233.835 66.4811Z" fill="white"/>
<path d="M255.517 65.719V70.8921H255.041V65.8513C255.041 64.1311 254.108 63.0096 252.685 63.0096C251.047 63.0096 249.904 64.2698 249.891 66.1159V70.911H249.408V65.8702C249.408 64.1311 248.488 63.0285 247.053 63.0285C245.408 63.0285 244.271 64.2887 244.258 66.1348V70.9299H243.77V62.7386H244.157L244.239 64.4084C244.483 63.8531 244.888 63.3826 245.403 63.0571C245.918 62.7316 246.519 62.5658 247.129 62.5811C247.746 62.569 248.348 62.7725 248.83 63.156C249.312 63.5395 249.642 64.0786 249.764 64.6793C249.963 64.0534 250.359 63.5074 250.894 63.1217C251.429 62.7359 252.075 62.531 252.736 62.537C254.412 62.537 255.517 63.8161 255.517 65.719Z" fill="white"/>
<path d="M112.032 30.3328V26.3632C111.969 24.014 110.985 21.7818 109.288 20.1421C107.591 18.5024 105.316 17.5849 102.948 17.5849C100.58 17.5849 98.3047 18.5024 96.608 20.1421C94.9112 21.7818 93.9267 24.014 93.8641 26.3632V34.2709C93.8641 34.9678 93.5851 35.6361 93.0885 36.1289C92.5919 36.6216 91.9184 36.8984 91.2161 36.8984C90.5138 36.8984 89.8403 36.6216 89.3437 36.1289C88.8471 35.6361 88.5681 34.9678 88.5681 34.2709V20.6546C88.4728 15.2383 86.2375 10.0758 82.3436 6.27891C78.4496 2.48203 73.2087 0.354495 67.7493 0.354495C62.2899 0.354495 57.049 2.48203 53.155 6.27891C49.2611 10.0758 47.0258 15.2383 46.9305 20.6546V34.2709C46.9305 34.9678 46.6515 35.6361 46.1549 36.1289C45.6583 36.6216 44.9848 36.8984 44.2825 36.8984C43.5802 36.8984 42.9067 36.6216 42.4101 36.1289C41.9135 35.6361 41.6345 34.9678 41.6345 34.2709V20.6546C41.6345 15.1766 39.4414 9.92306 35.5377 6.04958C31.634 2.1761 26.3395 0 20.8188 0C15.2982 0 10.0036 2.1761 6.09994 6.04958C2.19625 9.92306 0.00317526 15.1766 0.00317526 20.6546V46.0348C-0.0289019 47.2386 0.182333 48.4365 0.624415 49.5579C1.0665 50.6793 1.73047 51.7015 2.57715 52.5641C3.42384 53.4267 4.43608 54.1124 5.55415 54.5805C6.67222 55.0487 7.87347 55.2899 9.087 55.2899C10.3005 55.2899 11.5018 55.0487 12.6199 54.5805C13.7379 54.1124 14.7502 53.4267 15.5969 52.5641C16.4435 51.7015 17.1075 50.6793 17.5496 49.5579C17.9917 48.4365 18.2029 47.2386 18.1708 46.0348V20.6546C18.1708 19.9577 18.4498 19.2894 18.9464 18.7966C19.443 18.3039 20.1165 18.0271 20.8188 18.0271C21.5211 18.0271 22.1946 18.3039 22.6912 18.7966C23.1878 19.2894 23.4668 19.9577 23.4668 20.6546V34.2709C23.4668 39.7489 25.6599 45.0024 29.5636 48.8759C33.4673 52.7494 38.7618 54.9255 44.2825 54.9255C49.8031 54.9255 55.0977 52.7494 59.0014 48.8759C62.9051 45.0024 65.0981 39.7489 65.0981 34.2709V20.6546C65.1315 19.9791 65.4253 19.3423 65.9189 18.876C66.4124 18.4096 67.0678 18.1495 67.7493 18.1495C68.4308 18.1495 69.0862 18.4096 69.5797 18.876C70.0733 19.3423 70.3671 19.9791 70.4005 20.6546V34.2709C70.395 37.2168 71.0259 40.1296 72.2505 42.8132C73.4752 45.4967 75.2652 47.8887 77.5 49.828C79.7349 51.7673 82.3625 53.2088 85.2061 54.0555C88.0497 54.9022 91.0431 55.1344 93.9848 54.7365V64.3454C93.9848 65.0423 93.7058 65.7106 93.2092 66.2034C92.7126 66.6961 92.0391 66.9729 91.3368 66.9729C90.6345 66.9729 89.961 66.6961 89.4644 66.2034C88.9678 65.7106 88.6888 65.0423 88.6888 64.3454V63.3751C88.7209 62.1714 88.5096 60.9735 88.0675 59.8521C87.6255 58.7307 86.9615 57.7085 86.1148 56.8458C85.2681 55.9832 84.2559 55.2976 83.1378 54.8294C82.0197 54.3613 80.8185 54.1201 79.6049 54.1201C78.3914 54.1201 77.1902 54.3613 76.0721 54.8294C74.954 55.2976 73.9418 55.9832 73.0951 56.8458C72.2484 57.7085 71.5844 58.7307 71.1424 59.8521C70.7003 60.9735 70.489 62.1714 70.5211 63.3751V64.3454C70.5211 69.8234 72.7142 75.0769 76.6179 78.9504C80.5216 82.8239 85.8161 85 91.3368 85C96.8574 85 102.152 82.8239 106.056 78.9504C109.959 75.0769 112.152 69.8234 112.152 64.3454V31.7443C112.148 31.2715 112.108 30.7997 112.032 30.3328Z" fill="white"/>
<path d="M57.4034 73.4883C62.422 73.4883 66.4904 69.4514 66.4904 64.4716C66.4904 59.4919 62.422 55.455 57.4034 55.455C52.3848 55.455 48.3164 59.4919 48.3164 64.4716C48.3164 69.4514 52.3848 73.4883 57.4034 73.4883Z" fill="#6EC531"/>
</svg>
