<svg width="298" height="185" viewBox="0 0 298 185" fill="none" xmlns="http://www.w3.org/2000/svg">
<g opacity="0.4">
<path d="M173.88 91.4167C172.977 93.5018 171.466 95.2687 169.543 96.4887C167.62 97.7087 165.374 98.3256 163.096 98.2596C156.245 98.2596 151.077 93.0046 151.077 86.042C151.077 79.0794 156.245 73.8307 163.096 73.8307C167.947 73.8307 171.951 76.3511 173.804 80.5728L174.159 81.3793H178.751L178.08 79.5646C175.753 73.3204 170.015 69.439 163.096 69.439C153.696 69.439 146.605 76.578 146.605 86.042C146.605 95.5061 153.702 102.645 163.096 102.645C166.358 102.711 169.56 101.765 172.26 99.9404C174.96 98.1154 177.025 95.5003 178.169 92.4564L178.871 90.6291H174.241L173.88 91.4167Z" fill="#232773"/>
<path d="M209.033 74.7441C207.497 73.0343 205.608 71.6751 203.495 70.7595C201.383 69.8438 199.097 69.3933 196.794 69.4387C187.445 69.4387 180.398 76.5777 180.398 86.0417C180.398 95.5057 187.445 102.645 196.794 102.645C199.09 102.69 201.369 102.242 203.477 101.332C205.584 100.422 207.471 99.071 209.008 97.3708L209.128 102.078H213.322V70.012H209.179L209.033 74.7441ZM196.889 98.2593C190.038 98.2593 184.87 93.0106 184.87 86.0417C184.87 79.0728 190.038 73.8304 196.889 73.8304C203.739 73.8304 208.85 78.9846 208.85 86.0417C208.85 93.0988 203.821 98.2593 196.889 98.2593Z" fill="#232773"/>
<path d="M231.506 83.1501C225.996 82.2302 223.58 81.5181 223.58 78.563C223.58 75.6078 226.471 73.7365 230.955 73.7365C233.631 73.7365 238.173 74.4296 238.495 79.0923L238.577 80.3525H242.948L242.891 78.9221C242.562 73.0749 238.008 69.4707 231.006 69.4707C224.004 69.4707 219.197 73.2513 219.197 78.6386C219.197 85.5697 225.573 86.6345 230.696 87.5104C236.009 88.3988 239.242 89.2179 239.242 92.9859C239.242 96.2435 236.079 98.348 231.24 98.348C228.394 98.348 223.548 97.5982 223.017 92.6267L222.891 91.4233H218.463L218.589 92.8851C219.114 98.9214 223.934 102.677 231.17 102.677C238.634 102.677 243.644 98.7639 243.644 92.9292C243.644 85.1664 236.636 84.0259 231.506 83.1501Z" fill="#232773"/>
<path d="M263.578 69.4391C261.688 69.4492 259.819 69.8351 258.082 70.5741C256.344 71.3131 254.771 72.3903 253.457 73.7426V59.6348H249.029V102.078H253.457V83.6225C253.481 81.0278 254.522 78.545 256.357 76.7031C258.191 74.8612 260.676 73.8058 263.28 73.7615C268.865 73.7615 272.072 77.3657 272.072 83.6477V102.078H276.5V83.3516C276.487 74.902 271.421 69.4391 263.578 69.4391Z" fill="#232773"/>
<path d="M156.419 116.941H148.734C148.732 117.419 148.824 117.892 149.006 118.333C149.189 118.775 149.457 119.176 149.796 119.513C150.135 119.851 150.537 120.118 150.98 120.299C151.424 120.481 151.898 120.573 152.378 120.571C153.06 120.579 153.73 120.394 154.309 120.035C154.889 119.677 155.353 119.161 155.648 118.548H156.166C155.861 119.299 155.336 119.942 154.659 120.391C153.982 120.841 153.185 121.077 152.371 121.068C151.266 121.026 150.221 120.559 149.455 119.765C148.688 118.972 148.26 117.913 148.26 116.812C148.26 115.711 148.688 114.652 149.455 113.859C150.221 113.065 151.266 112.598 152.371 112.556C152.918 112.553 153.46 112.66 153.964 112.873C154.468 113.085 154.923 113.397 155.302 113.79C155.681 114.184 155.975 114.65 156.167 115.16C156.359 115.67 156.445 116.214 156.419 116.758C156.426 116.79 156.419 116.878 156.419 116.941ZM148.747 116.481H155.945C155.933 115.55 155.551 114.661 154.882 114.01C154.213 113.359 153.313 112.999 152.378 113.009C151.437 113.001 150.53 113.359 149.852 114.008C149.173 114.657 148.777 115.545 148.747 116.481Z" fill="#232773"/>
<path d="M166.353 112.695V120.887H165.929L165.872 118.744C165.539 119.449 165.007 120.042 164.341 120.451C163.675 120.859 162.903 121.065 162.121 121.044C161.016 121.002 159.971 120.535 159.205 119.741C158.438 118.948 158.01 117.889 158.01 116.788C158.01 115.686 158.438 114.628 159.205 113.834C159.971 113.041 161.016 112.574 162.121 112.531C162.904 112.513 163.675 112.72 164.341 113.128C165.008 113.536 165.542 114.128 165.878 114.831L165.942 112.689L166.353 112.695ZM165.86 116.797C165.881 116.302 165.801 115.807 165.623 115.344C165.445 114.881 165.174 114.46 164.826 114.105C164.478 113.751 164.06 113.471 163.599 113.284C163.139 113.097 162.644 113.006 162.147 113.017C161.14 113.017 160.175 113.415 159.463 114.124C158.751 114.833 158.351 115.795 158.351 116.797C158.351 117.8 158.751 118.761 159.463 119.47C160.175 120.179 161.14 120.578 162.147 120.578C162.643 120.585 163.135 120.491 163.593 120.302C164.051 120.113 164.466 119.832 164.811 119.478C165.157 119.123 165.426 118.702 165.602 118.24C165.778 117.778 165.857 117.285 165.834 116.791L165.86 116.797Z" fill="#232773"/>
<path d="M168.549 118.68H169.03C169.156 119.902 170.136 120.608 171.693 120.608C173.249 120.608 174.305 119.877 174.305 118.718C174.305 117.294 172.964 117.048 171.604 116.828C170.244 116.607 168.713 116.336 168.713 114.723C168.713 113.425 169.89 112.543 171.629 112.543C173.369 112.543 174.488 113.419 174.571 114.837H174.102C174.02 113.677 173.109 112.99 171.623 112.99C170.136 112.99 169.188 113.677 169.188 114.71C169.188 115.971 170.377 116.141 171.718 116.361C173.16 116.601 174.786 116.897 174.786 118.712C174.786 120.123 173.521 121.056 171.68 121.056C169.839 121.056 168.675 120.148 168.549 118.68Z" fill="#232773"/>
<path d="M183.723 112.694L179.53 121.617C178.733 123.311 178.018 123.79 176.708 123.79H176.076V123.337H176.708C177.841 123.337 178.404 122.99 179.112 121.446L179.612 120.407L175.734 112.694H176.278L179.84 119.89L183.198 112.694H183.723Z" fill="#232773"/>
<path d="M200.148 112.694L197.232 120.886H196.859L194.051 113.898L191.267 120.886H190.894L188.061 112.694H188.573L191.103 120.041L193.943 112.959H194.183L197.055 120.06L199.674 112.694H200.148Z" fill="#232773"/>
<path d="M209.713 112.696V120.887H209.283L209.232 118.744C208.897 119.45 208.364 120.043 207.697 120.451C207.029 120.859 206.258 121.065 205.475 121.044C204.37 121.002 203.325 120.535 202.558 119.741C201.791 118.948 201.363 117.889 201.363 116.788C201.363 115.687 201.791 114.628 202.558 113.835C203.325 113.041 204.37 112.574 205.475 112.532C206.258 112.511 207.029 112.717 207.697 113.125C208.364 113.534 208.897 114.126 209.232 114.832L209.295 112.689L209.713 112.696ZM209.213 116.797C209.235 116.302 209.154 115.808 208.976 115.345C208.799 114.882 208.527 114.46 208.179 114.105C207.831 113.751 207.414 113.472 206.953 113.284C206.492 113.097 205.998 113.006 205.5 113.017C204.494 113.017 203.528 113.415 202.816 114.124C202.105 114.833 201.705 115.795 201.705 116.797C201.705 117.8 202.105 118.762 202.816 119.471C203.528 120.18 204.494 120.578 205.5 120.578C205.998 120.589 206.493 120.498 206.955 120.31C207.416 120.123 207.833 119.842 208.182 119.487C208.53 119.132 208.801 118.71 208.978 118.246C209.156 117.782 209.236 117.287 209.213 116.791V116.797Z" fill="#232773"/>
<path d="M219.563 112.694L215.369 121.617C214.572 123.311 213.857 123.79 212.548 123.79H211.915V123.337H212.548C213.68 123.337 214.243 122.99 214.951 121.446L215.451 120.407L211.58 112.694H212.118L215.692 119.89L219.044 112.694H219.563Z" fill="#232773"/>
<path d="M224.477 118.68H224.957C225.09 119.902 226.071 120.608 227.627 120.608C229.183 120.608 230.233 119.877 230.233 118.718C230.233 117.294 228.892 117.048 227.538 116.828C226.184 116.607 224.641 116.336 224.641 114.723C224.641 113.425 225.824 112.543 227.563 112.543C229.303 112.543 230.422 113.419 230.505 114.837H230.03C229.954 113.677 229.043 112.99 227.551 112.99C226.058 112.99 225.115 113.677 225.115 114.71C225.115 115.971 226.305 116.141 227.646 116.361C229.088 116.601 230.72 116.897 230.72 118.712C230.72 120.123 229.455 121.056 227.614 121.056C225.773 121.056 224.609 120.148 224.477 118.68Z" fill="#232773"/>
<path d="M239.651 112.694L235.457 121.617C234.66 123.311 233.951 123.79 232.636 123.79H232.003V123.337H232.636C233.768 123.337 234.325 122.99 235.039 121.446L235.533 120.407L231.668 112.694H232.206L235.767 119.89L239.132 112.694H239.651Z" fill="#232773"/>
<path d="M240.547 118.68H241.028C241.154 119.902 242.141 120.608 243.691 120.608C245.24 120.608 246.303 119.877 246.303 118.718C246.303 117.294 244.962 117.048 243.608 116.828C242.255 116.607 240.711 116.336 240.711 114.723C240.711 113.425 241.894 112.543 243.627 112.543C245.36 112.543 246.493 113.419 246.569 114.837H246.101C246.025 113.677 245.114 112.99 243.621 112.99C242.128 112.99 241.186 113.677 241.186 114.71C241.186 115.971 242.375 116.141 243.716 116.361C245.158 116.601 246.79 116.897 246.79 118.712C246.79 120.123 245.525 121.056 243.684 121.056C241.844 121.056 240.673 120.148 240.547 118.68Z" fill="#232773"/>
<path d="M253.067 120.432V120.898H251.986C251.649 120.925 251.311 120.877 250.995 120.759C250.679 120.641 250.394 120.455 250.158 120.215C249.923 119.974 249.743 119.685 249.633 119.367C249.522 119.05 249.483 118.712 249.519 118.378V113.135H247.621V112.707H249.519V110.287H250.006V112.707H253.01V113.135H250.018V118.384C249.988 118.657 250.019 118.934 250.11 119.194C250.2 119.454 250.348 119.691 250.542 119.887C250.735 120.083 250.971 120.234 251.23 120.328C251.49 120.422 251.767 120.458 252.042 120.432H253.067Z" fill="#232773"/>
<path d="M262.093 116.941H254.414C254.412 117.42 254.505 117.894 254.688 118.336C254.871 118.778 255.14 119.18 255.48 119.518C255.821 119.855 256.225 120.122 256.669 120.303C257.114 120.484 257.59 120.575 258.07 120.571C258.752 120.579 259.421 120.393 259.999 120.035C260.578 119.676 261.041 119.16 261.334 118.548H261.866C261.56 119.299 261.034 119.941 260.358 120.39C259.681 120.84 258.884 121.076 258.07 121.068C256.966 121.026 255.92 120.559 255.154 119.765C254.387 118.972 253.959 117.913 253.959 116.812C253.959 115.711 254.387 114.652 255.154 113.859C255.92 113.065 256.966 112.598 258.07 112.556C258.617 112.553 259.159 112.66 259.663 112.873C260.166 113.085 260.621 113.397 260.999 113.791C261.377 114.184 261.671 114.65 261.863 115.16C262.054 115.671 262.139 116.214 262.112 116.758C262.1 116.79 262.1 116.878 262.093 116.941ZM254.421 116.481H261.625C261.612 115.553 261.231 114.667 260.565 114.016C259.899 113.366 259.003 113.004 258.07 113.009C257.127 112.997 256.217 113.354 255.534 114.003C254.852 114.652 254.452 115.542 254.421 116.481Z" fill="#232773"/>
<path d="M276.022 115.719V120.892H275.548V115.851C275.548 114.131 274.618 113.009 273.201 113.009C271.569 113.009 270.431 114.27 270.418 116.116V120.911H269.937V115.87C269.937 114.131 269.02 113.028 267.59 113.028C265.952 113.028 264.82 114.288 264.807 116.135V120.93H264.32V112.738H264.706L264.788 114.408C265.031 113.853 265.435 113.382 265.947 113.057C266.46 112.731 267.059 112.566 267.666 112.581C268.281 112.569 268.881 112.772 269.361 113.156C269.841 113.539 270.17 114.078 270.291 114.679C270.489 114.053 270.884 113.507 271.417 113.121C271.95 112.736 272.593 112.531 273.252 112.537C274.922 112.537 276.022 113.816 276.022 115.719Z" fill="#232773"/>
<path d="M133.094 80.3328V76.3632C133.032 74.014 132.051 71.7818 130.361 70.1421C128.671 68.5024 126.405 67.5849 124.046 67.5849C121.687 67.5849 119.421 68.5024 117.731 70.1421C116.041 71.7818 115.06 74.014 114.998 76.3632V84.2709C114.998 84.9678 114.72 85.6361 114.225 86.1289C113.73 86.6216 113.06 86.8984 112.36 86.8984C111.66 86.8984 110.99 86.6216 110.495 86.1289C110 85.6361 109.722 84.9678 109.722 84.2709V70.6546C109.627 65.2383 107.401 60.0758 103.522 56.2789C99.6433 52.482 94.4228 50.3545 88.9848 50.3545C83.5467 50.3545 78.3262 52.482 74.4475 56.2789C70.5688 60.0758 68.3422 65.2383 68.2472 70.6546V84.2709C68.2472 84.9678 67.9693 85.6361 67.4747 86.1289C66.98 86.6216 66.3091 86.8984 65.6096 86.8984C64.91 86.8984 64.2391 86.6216 63.7445 86.1289C63.2498 85.6361 62.9719 84.9678 62.9719 84.2709V70.6546C62.9719 65.1766 60.7874 59.9231 56.899 56.0496C53.0105 52.1761 47.7366 50 42.2375 50C36.7384 50 31.4646 52.1761 27.5761 56.0496C23.6877 59.9231 21.5032 65.1766 21.5032 70.6546V96.0348C21.4712 97.2386 21.6816 98.4365 22.122 99.5579C22.5623 100.679 23.2237 101.701 24.0671 102.564C24.9105 103.427 25.9188 104.112 27.0325 104.581C28.1462 105.049 29.3427 105.29 30.5515 105.29C31.7603 105.29 32.9569 105.049 34.0706 104.581C35.1843 104.112 36.1926 103.427 37.036 102.564C37.8793 101.701 38.5407 100.679 38.9811 99.5579C39.4214 98.4365 39.6318 97.2386 39.5999 96.0348V70.6546C39.5999 69.9577 39.8778 69.2894 40.3724 68.7966C40.8671 68.3039 41.538 68.0271 42.2375 68.0271C42.9371 68.0271 43.608 68.3039 44.1026 68.7966C44.5973 69.2894 44.8752 69.9577 44.8752 70.6546V84.2709C44.8752 89.7489 47.0597 95.0024 50.9482 98.8759C54.8366 102.749 60.1105 104.925 65.6096 104.925C71.1087 104.925 76.3825 102.749 80.271 98.8759C84.1594 95.0024 86.3439 89.7489 86.3439 84.2709V70.6546C86.3771 69.9791 86.6699 69.3423 87.1615 68.876C87.6531 68.4096 88.3059 68.1495 88.9848 68.1495C89.6636 68.1495 90.3165 68.4096 90.8081 68.876C91.2997 69.3423 91.5924 69.9791 91.6256 70.6546V84.2709C91.6202 87.2168 92.2486 90.1296 93.4684 92.8132C94.6883 95.4967 96.4714 97.8887 98.6974 99.828C100.924 101.767 103.541 103.209 106.373 104.056C109.206 104.902 112.188 105.134 115.118 104.736V114.345C115.118 115.042 114.84 115.711 114.345 116.203C113.851 116.696 113.18 116.973 112.48 116.973C111.781 116.973 111.11 116.696 110.615 116.203C110.12 115.711 109.842 115.042 109.842 114.345V113.375C109.874 112.171 109.664 110.973 109.224 109.852C108.783 108.731 108.122 107.708 107.279 106.846C106.435 105.983 105.427 105.298 104.313 104.829C103.199 104.361 102.003 104.12 100.794 104.12C99.5853 104.12 98.3888 104.361 97.2751 104.829C96.1614 105.298 95.1531 105.983 94.3097 106.846C93.4663 107.708 92.8049 108.731 92.3646 109.852C91.9242 110.973 91.7138 112.171 91.7458 113.375V114.345C91.7458 119.823 93.9303 125.077 97.8187 128.95C101.707 132.824 106.981 135 112.48 135C117.979 135 123.253 132.824 127.142 128.95C131.03 125.077 133.215 119.823 133.215 114.345V81.7443C133.21 81.2715 133.17 80.7997 133.094 80.3328Z" fill="#232773"/>
<path d="M78.6785 123.488C83.6775 123.488 87.73 119.451 87.73 114.471C87.73 109.491 83.6775 105.455 78.6785 105.455C73.6795 105.455 69.627 109.491 69.627 114.471C69.627 119.451 73.6795 123.488 78.6785 123.488Z" fill="#6EC531"/>
</g>
</svg>
