<svg width="120" height="41" viewBox="0 0 120 41" fill="none" xmlns="http://www.w3.org/2000/svg">
<path d="M71.7102 19.9899C71.2851 20.9711 70.5741 21.8026 69.6693 22.3767C68.7644 22.9509 67.7074 23.2412 66.635 23.2101C63.4114 23.2101 60.9795 20.7372 60.9795 17.4607C60.9795 14.1842 63.4114 11.7142 66.635 11.7142C68.9181 11.7142 70.8023 12.9002 71.6745 14.8869L71.8412 15.2664H74.0022L73.6867 14.4125C72.5913 11.474 69.8915 9.64746 66.635 9.64746C62.2118 9.64746 58.875 13.007 58.875 17.4607C58.875 21.9143 62.2148 25.2739 66.635 25.2739C68.1702 25.3047 69.6771 24.8599 70.9477 24.0011C72.2183 23.1422 73.1899 21.9116 73.7283 20.4792L74.0587 19.6193H71.8798L71.7102 19.9899Z" fill="#6EC531"/>
<path d="M88.2525 12.1446C87.5294 11.34 86.6405 10.7004 85.6464 10.2695C84.6523 9.83863 83.5766 9.62661 82.4927 9.64795C78.0933 9.64795 74.7773 13.0075 74.7773 17.4611C74.7773 21.9148 78.0933 25.2743 82.4927 25.2743C83.5734 25.2954 84.646 25.0847 85.6378 24.6565C86.6295 24.2283 87.5172 23.5926 88.2406 22.7925L88.2971 25.0075H90.2706V9.91778H88.321L88.2525 12.1446ZM82.5374 23.2106C79.3137 23.2106 76.8818 20.7406 76.8818 17.4611C76.8818 14.1817 79.3137 11.7147 82.5374 11.7147C85.7611 11.7147 88.1662 14.1402 88.1662 17.4611C88.1662 20.7821 85.7998 23.2106 82.5374 23.2106Z" fill="#6EC531"/>
<path d="M98.8253 16.0995C96.2327 15.6666 95.0956 15.3315 95.0956 13.9408C95.0956 12.5502 96.4559 11.6695 98.5663 11.6695C99.8254 11.6695 101.963 11.9957 102.114 14.1899L102.153 14.7829H104.21L104.183 14.1098C104.028 11.3582 101.885 9.66211 98.5901 9.66211C95.295 9.66211 93.0328 11.4412 93.0328 13.9764C93.0328 17.2381 96.0332 17.7392 98.4443 18.1514C100.945 18.5694 102.466 18.9549 102.466 20.7281C102.466 22.2611 100.977 23.2514 98.7003 23.2514C97.3608 23.2514 95.0807 22.8986 94.8307 20.5591L94.7711 19.9927H92.6875L92.747 20.6806C92.9941 23.5213 95.2623 25.2885 98.6675 25.2885C102.18 25.2885 104.537 23.4471 104.537 20.7014C104.537 17.0483 101.239 16.5116 98.8253 16.0995Z" fill="#6EC531"/>
<path d="M113.92 9.64797C113.031 9.65275 112.152 9.83435 111.334 10.1821C110.516 10.5299 109.776 11.0368 109.158 11.6732V5.03418H107.074V25.0075H109.158V16.3225C109.169 15.1015 109.659 13.9331 110.522 13.0663C111.386 12.1996 112.555 11.7029 113.781 11.6821C116.409 11.6821 117.918 13.3781 117.918 16.3344V25.0075H120.002V16.195C119.996 12.2188 117.611 9.64797 113.92 9.64797Z" fill="#6EC531"/>
<path d="M63.4922 32.0023H59.8756C59.8744 32.2269 59.918 32.4495 60.0037 32.6572C60.0894 32.865 60.2157 33.0537 60.3751 33.2126C60.5346 33.3714 60.7241 33.4972 60.9326 33.5826C61.1412 33.668 61.3646 33.7114 61.5901 33.7102C61.9111 33.7144 62.2265 33.627 62.4992 33.4583C62.7719 33.2896 62.9905 33.0468 63.1291 32.7584H63.3731C63.2296 33.112 62.9824 33.4143 62.6638 33.6258C62.3452 33.8374 61.97 33.9484 61.5872 33.9444C61.0673 33.9245 60.5753 33.7048 60.2146 33.3313C59.8539 32.9579 59.6523 32.4597 59.6523 31.9415C59.6523 31.4232 59.8539 30.9251 60.2146 30.5516C60.5753 30.1782 61.0673 29.9584 61.5872 29.9385C61.8446 29.937 62.0997 29.9878 62.3368 30.0877C62.5739 30.1876 62.7881 30.3345 62.9663 30.5196C63.1446 30.7046 63.2831 30.9239 63.3735 31.164C63.464 31.4041 63.5043 31.6601 63.4922 31.9163C63.4952 31.9311 63.4922 31.9726 63.4922 32.0023ZM59.8816 31.7858H63.2689C63.2635 31.3475 63.0836 30.9293 62.7688 30.623C62.4541 30.3166 62.0301 30.1473 61.5901 30.152C61.1475 30.1479 60.7208 30.3166 60.4015 30.622C60.0822 30.9273 59.8955 31.3451 59.8816 31.7858Z" fill="#6EC531"/>
<path d="M68.1645 30.0034V33.8581H67.965L67.9382 32.85C67.7815 33.1818 67.5311 33.4609 67.2176 33.6531C66.9041 33.8454 66.5411 33.9424 66.1731 33.9323C65.6532 33.9123 65.1613 33.6926 64.8005 33.3191C64.4398 32.9457 64.2383 32.4476 64.2383 31.9293C64.2383 31.411 64.4398 30.9129 64.8005 30.5395C65.1613 30.166 65.6532 29.9463 66.1731 29.9263C66.5412 29.9175 66.904 30.015 67.2178 30.2071C67.5315 30.3991 67.7828 30.6775 67.9412 31.0086L67.971 30.0005L68.1645 30.0034ZM67.9323 31.9337C67.9425 31.7007 67.9046 31.468 67.8209 31.25C67.7373 31.0321 67.6096 30.8337 67.4458 30.6669C67.282 30.5001 67.0856 30.3686 66.8687 30.2805C66.6519 30.1924 66.4192 30.1496 66.185 30.1546C65.7113 30.1546 65.2571 30.3421 64.9221 30.6757C64.5872 31.0094 64.399 31.4619 64.399 31.9337C64.399 32.4056 64.5872 32.8581 64.9221 33.1918C65.2571 33.5254 65.7113 33.7128 66.185 33.7128C66.4184 33.7163 66.6501 33.6722 66.8658 33.5832C67.0814 33.4941 67.2765 33.3621 67.4391 33.1952C67.6016 33.0283 67.7282 32.83 67.811 32.6125C67.8937 32.3951 67.931 32.1631 67.9204 31.9308L67.9323 31.9337Z" fill="#6EC531"/>
<path d="M69.1992 32.8197H69.4254C69.485 33.3949 69.9464 33.727 70.6786 33.727C71.4108 33.727 71.9079 33.3831 71.9079 32.8375C71.9079 32.1674 71.2769 32.0517 70.6369 31.9479C69.997 31.8442 69.2766 31.7167 69.2766 30.9576C69.2766 30.3468 69.8303 29.9316 70.6488 29.9316C71.4674 29.9316 71.9943 30.3438 72.033 31.011H71.8127C71.774 30.4654 71.3454 30.1422 70.6459 30.1422C69.9464 30.1422 69.4999 30.4654 69.4999 30.9517C69.4999 31.5447 70.0595 31.6247 70.6905 31.7285C71.3692 31.8412 72.1342 31.9806 72.1342 32.8345C72.1342 33.4987 71.5388 33.9376 70.6726 33.9376C69.8064 33.9376 69.2588 33.5106 69.1992 32.8197Z" fill="#6EC531"/>
<path d="M76.3415 30.0029L74.368 34.2016C73.9929 34.9992 73.6566 35.2246 73.0404 35.2246H72.7428V35.0111H73.0404C73.5732 35.0111 73.8382 34.848 74.1715 34.1215L74.4067 33.6323L72.582 30.0029H72.838L74.5139 33.3891L76.0944 30.0029H76.3415Z" fill="#6EC531"/>
<path d="M84.0711 30.0029L82.6989 33.8576H82.5233L81.2017 30.5693L79.892 33.8576H79.7163L78.3828 30.0029H78.6239L79.8146 33.4603L81.1511 30.1275H81.2642L82.6156 33.4692L83.8479 30.0029H84.0711Z" fill="#6EC531"/>
<path d="M88.5698 30.0036V33.8583H88.3674L88.3436 32.8501C88.186 33.1819 87.935 33.4609 87.621 33.6531C87.3071 33.8453 86.9438 33.9423 86.5754 33.9324C86.0556 33.9125 85.5636 33.6927 85.2029 33.3193C84.8421 32.9458 84.6406 32.4477 84.6406 31.9294C84.6406 31.4112 84.8421 30.9131 85.2029 30.5396C85.5636 30.1662 86.0556 29.9464 86.5754 29.9265C86.9438 29.9165 87.3071 30.0136 87.621 30.2058C87.935 30.3979 88.186 30.6769 88.3436 31.0088L88.3733 30.0006L88.5698 30.0036ZM88.3346 31.9339C88.3449 31.7008 88.307 31.4681 88.2233 31.2502C88.1396 31.0323 88.0119 30.8338 87.8481 30.667C87.6844 30.5003 87.4879 30.3688 87.2711 30.2806C87.0542 30.1925 86.8215 30.1497 86.5874 30.1548C86.1137 30.1548 85.6594 30.3422 85.3245 30.6759C84.9895 31.0095 84.8014 31.462 84.8014 31.9339C84.8014 32.4057 84.9895 32.8583 85.3245 33.1919C85.6594 33.5255 86.1137 33.713 86.5874 33.713C86.8218 33.7181 87.0547 33.6752 87.2718 33.5869C87.4889 33.4986 87.6854 33.3668 87.8493 33.1997C88.0131 33.0326 88.1407 32.8338 88.2242 32.6155C88.3077 32.3973 88.3453 32.1642 88.3346 31.9309V31.9339Z" fill="#6EC531"/>
<path d="M93.2057 30.0029L91.2322 34.2016C90.8572 34.9992 90.5208 35.2246 89.9046 35.2246H89.607V35.0111H89.9046C90.4375 35.0111 90.7024 34.848 91.0358 34.1215L91.2709 33.6323L89.4492 30.0029H89.7022L91.384 33.3891L92.9616 30.0029H93.2057Z" fill="#6EC531"/>
<path d="M95.5195 32.8197H95.7457C95.8083 33.3949 96.2696 33.727 97.0019 33.727C97.7341 33.727 98.2282 33.3831 98.2282 32.8375C98.2282 32.1674 97.5972 32.0517 96.9602 31.9479C96.3232 31.8442 95.5969 31.7167 95.5969 30.9576C95.5969 30.3468 96.1535 29.9316 96.9721 29.9316C97.7907 29.9316 98.3176 30.3438 98.3562 31.011H98.133C98.0973 30.4654 97.6686 30.1422 96.9662 30.1422C96.2637 30.1422 95.8202 30.4654 95.8202 30.9517C95.8202 31.5447 96.3798 31.6247 97.0108 31.7285C97.6895 31.8412 98.4575 31.9806 98.4575 32.8345C98.4575 33.4987 97.8621 33.9376 96.9959 33.9376C96.1297 33.9376 95.582 33.5106 95.5195 32.8197Z" fill="#6EC531"/>
<path d="M102.659 30.0029L100.685 34.2016C100.31 34.9992 99.9769 35.2246 99.3578 35.2246H99.0601V35.0111H99.3578C99.8906 35.0111 100.153 34.848 100.489 34.1215L100.721 33.6323L98.9023 30.0029H99.1553L100.831 33.3891L102.415 30.0029H102.659Z" fill="#6EC531"/>
<path d="M103.082 32.8197H103.308C103.368 33.3949 103.832 33.727 104.561 33.727C105.291 33.727 105.791 33.3831 105.791 32.8375C105.791 32.1674 105.16 32.0517 104.523 31.9479C103.886 31.8442 103.159 31.7167 103.159 30.9576C103.159 30.3468 103.716 29.9316 104.532 29.9316C105.347 29.9316 105.88 30.3438 105.916 31.011H105.696C105.66 30.4654 105.231 30.1422 104.529 30.1422C103.826 30.1422 103.383 30.4654 103.383 30.9517C103.383 31.5447 103.942 31.6247 104.573 31.7285C105.252 31.8412 106.02 31.9806 106.02 32.8345C106.02 33.4987 105.425 33.9376 104.558 33.9376C103.692 33.9376 103.142 33.5106 103.082 32.8197Z" fill="#6EC531"/>
<path d="M108.973 33.644V33.8634H108.464C108.306 33.8761 108.147 33.8538 107.998 33.7983C107.849 33.7427 107.715 33.6552 107.604 33.5419C107.493 33.4287 107.409 33.2925 107.357 33.1431C107.305 32.9937 107.286 32.8347 107.303 32.6774V30.2104H106.41V30.0087H107.303V28.8701H107.532V30.0087H108.946V30.2104H107.538V32.6803C107.524 32.8091 107.539 32.9394 107.581 33.0617C107.624 33.1841 107.693 33.2955 107.785 33.3878C107.876 33.4801 107.986 33.551 108.109 33.5953C108.231 33.6396 108.361 33.6563 108.491 33.644H108.973Z" fill="#6EC531"/>
<path d="M113.222 32.0023H109.609C109.608 32.2274 109.651 32.4505 109.738 32.6586C109.824 32.8668 109.95 33.0558 110.11 33.2147C110.271 33.3736 110.461 33.4992 110.67 33.5843C110.879 33.6694 111.103 33.7122 111.329 33.7102C111.65 33.7142 111.965 33.6266 112.237 33.458C112.509 33.2893 112.727 33.0465 112.865 32.7584H113.115C112.971 33.1117 112.724 33.4138 112.406 33.6253C112.087 33.8368 111.712 33.948 111.329 33.9444C110.809 33.9245 110.318 33.7048 109.957 33.3313C109.596 32.9579 109.395 32.4597 109.395 31.9415C109.395 31.4232 109.596 30.9251 109.957 30.5516C110.318 30.1782 110.809 29.9584 111.329 29.9385C111.587 29.937 111.842 29.9878 112.079 30.0877C112.316 30.1876 112.53 30.3346 112.708 30.5197C112.886 30.7048 113.024 30.9241 113.114 31.1642C113.204 31.4044 113.244 31.6602 113.231 31.9163C113.225 31.9311 113.225 31.9726 113.222 32.0023ZM109.612 31.7858H113.002C112.996 31.3488 112.817 30.9319 112.503 30.6259C112.19 30.3199 111.768 30.1496 111.329 30.152C110.885 30.1463 110.457 30.3142 110.136 30.6197C109.815 30.9251 109.627 31.3438 109.612 31.7858Z" fill="#6EC531"/>
<path d="M119.776 31.4262V33.8606H119.553V31.4884C119.553 30.679 119.115 30.1512 118.449 30.1512C117.681 30.1512 117.145 30.7442 117.139 31.613V33.8695H116.913V31.4973C116.913 30.679 116.481 30.1601 115.808 30.1601C115.037 30.1601 114.505 30.7531 114.499 31.6219V33.8784H114.27V30.0237H114.451L114.49 30.8094C114.604 30.5481 114.794 30.3267 115.035 30.1735C115.276 30.0203 115.558 29.9423 115.844 29.9495C116.134 29.9439 116.416 30.0396 116.642 30.2201C116.867 30.4005 117.022 30.6542 117.079 30.9369C117.173 30.6424 117.358 30.3854 117.609 30.2039C117.86 30.0224 118.163 29.9259 118.473 29.9288C119.258 29.9288 119.776 30.5307 119.776 31.4262Z" fill="#6EC531"/>
<path d="M52.515 14.7743V12.9062C52.4856 11.8007 52.0242 10.7502 51.2288 9.97863C50.4335 9.20703 49.3671 8.77524 48.2569 8.77524C47.1467 8.77524 46.0804 9.20703 45.2851 9.97863C44.4897 10.7502 44.0282 11.8007 43.9989 12.9062V16.6275C43.9989 16.9554 43.8681 17.2699 43.6353 17.5018C43.4026 17.7337 43.0868 17.864 42.7576 17.864C42.4284 17.864 42.1127 17.7337 41.8799 17.5018C41.6472 17.2699 41.5164 16.9554 41.5164 16.6275V10.2198C41.4717 7.67095 40.4239 5.24155 38.5986 3.45478C36.7733 1.66801 34.3166 0.666821 31.7575 0.666821C29.1985 0.666821 26.7417 1.66801 24.9165 3.45478C23.0912 5.24155 22.0434 7.67095 21.9987 10.2198V16.6275C21.9987 16.9554 21.8679 17.2699 21.6351 17.5018C21.4024 17.7337 21.0866 17.864 20.7574 17.864C20.4282 17.864 20.1125 17.7337 19.8798 17.5018C19.647 17.2699 19.5162 16.9554 19.5162 16.6275V10.2198C19.5162 7.64194 18.4882 5.16968 16.6583 3.34686C14.8285 1.52405 12.3467 0.5 9.75884 0.5C7.17103 0.5 4.68921 1.52405 2.85935 3.34686C1.02949 5.16968 0.00148841 7.64194 0.00148841 10.2198V22.1635C-0.0135478 22.7299 0.0854687 23.2936 0.292695 23.8214C0.499921 24.3491 0.811159 24.8301 1.20804 25.236C1.60493 25.642 2.07942 25.9646 2.60351 26.1849C3.12761 26.4053 3.69069 26.5188 4.25954 26.5188C4.82839 26.5188 5.39147 26.4053 5.91557 26.1849C6.43967 25.9646 6.91416 25.642 7.31104 25.236C7.70792 24.8301 8.01916 24.3491 8.22639 23.8214C8.43361 23.2936 8.53263 22.7299 8.51759 22.1635V10.2198C8.51759 9.89186 8.64837 9.57736 8.88115 9.34548C9.11393 9.11359 9.42964 8.98332 9.75884 8.98332C10.088 8.98332 10.4038 9.11359 10.6365 9.34548C10.8693 9.57736 11.0001 9.89186 11.0001 10.2198V16.6275C11.0001 19.2054 12.0281 21.6776 13.858 23.5004C15.6878 25.3232 18.1696 26.3473 20.7574 26.3473C23.3453 26.3473 25.8271 25.3232 27.6569 23.5004C29.4868 21.6776 30.5148 19.2054 30.5148 16.6275V10.2198C30.5304 9.90195 30.6682 9.60226 30.8995 9.38281C31.1309 9.16336 31.4381 9.04096 31.7575 9.04096C32.077 9.04096 32.3842 9.16336 32.6156 9.38281C32.8469 9.60226 32.9847 9.90195 33.0003 10.2198V16.6275C32.9977 18.0138 33.2934 19.3845 33.8675 20.6474C34.4416 21.9102 35.2806 23.0359 36.3282 23.9485C37.3758 24.8611 38.6075 25.5394 39.9404 25.9379C41.2734 26.3363 42.6765 26.4456 44.0554 26.2583V30.7802C44.0554 31.1081 43.9247 31.4226 43.6919 31.6545C43.4591 31.8864 43.1434 32.0167 42.8142 32.0167C42.485 32.0167 42.1693 31.8864 41.9365 31.6545C41.7037 31.4226 41.5729 31.1081 41.5729 30.7802V30.3236C41.588 29.7571 41.489 29.1934 41.2817 28.6657C41.0745 28.138 40.7633 27.6569 40.3664 27.251C39.9695 26.845 39.495 26.5224 38.9709 26.3021C38.4468 26.0818 37.8837 25.9683 37.3149 25.9683C36.746 25.9683 36.183 26.0818 35.6589 26.3021C35.1348 26.5224 34.6603 26.845 34.2634 27.251C33.8665 27.6569 33.5553 28.138 33.348 28.6657C33.1408 29.1934 33.0418 29.7571 33.0568 30.3236V30.7802C33.0568 33.3581 34.0848 35.8303 35.9147 37.6531C37.7446 39.476 40.2264 40.5 42.8142 40.5C45.402 40.5 47.8838 39.476 49.7137 37.6531C51.5435 35.8303 52.5715 33.3581 52.5715 30.7802V15.4385C52.5694 15.216 52.5505 14.994 52.515 14.7743Z" fill="#6EC531"/>
<path d="M26.908 35.083C29.2605 35.083 31.1675 33.1832 31.1675 30.8398C31.1675 28.4964 29.2605 26.5967 26.908 26.5967C24.5555 26.5967 22.6484 28.4964 22.6484 30.8398C22.6484 33.1832 24.5555 35.083 26.908 35.083Z" fill="white"/>
</svg>
