<svg width="25" height="25" viewBox="0 0 25 25" fill="none" xmlns="http://www.w3.org/2000/svg">
<g clip-path="url(#clip0_593_61820)">
<path d="M15.9492 12.4998C15.9492 16.6424 12.5933 19.9991 8.45214 19.9991C4.31099 19.9991 0.955078 16.6417 0.955078 12.4998C0.955078 8.35788 4.31181 5.00049 8.45214 5.00049C12.5925 5.00049 15.9492 8.35788 15.9492 12.4998Z" fill="#E2574C"/>
<path d="M17.4557 5.00049C15.7743 5.00049 14.2264 5.5607 12.9756 6.49589L12.9816 6.49663C13.2276 6.73433 13.499 6.90163 13.7083 7.17528L12.1484 7.20004C11.9039 7.44679 11.6812 7.71525 11.4712 7.99425H14.2219C14.4312 8.24544 14.6246 8.46373 14.8001 8.74117H10.9725C10.8323 8.98265 10.7026 9.23089 10.5893 9.48882H15.2359C15.3574 9.74602 15.4661 9.9403 15.5584 10.2125H10.3141C10.2309 10.4713 10.1596 10.736 10.1056 11.0059H15.7781C15.8336 11.2654 15.8763 11.5054 15.9056 11.7499H9.99307C9.96832 11.9966 9.95557 12.2471 9.95557 12.4999H15.9483C15.9483 12.7654 15.9295 13.0113 15.9025 13.2498H9.99307C10.0186 13.5041 10.0561 13.7538 10.1056 13.9998H15.769C15.7106 14.2427 15.643 14.4872 15.5583 14.7407H10.2968C10.3763 14.9972 10.4731 15.2461 10.5788 15.4891H15.2359C15.1069 15.7621 14.9607 15.9803 14.7995 16.236H10.9591C11.1106 16.4985 11.2778 16.7489 11.4593 16.9889L14.222 17.0301C13.9865 17.3128 13.6843 17.4831 13.409 17.7306C13.424 17.7426 12.9688 17.7291 12.0726 17.7149C13.436 19.1218 15.3416 19.9991 17.4556 19.9991C21.5975 19.9991 24.9549 16.6417 24.9549 12.4999C24.9549 8.35804 21.5982 5.00049 17.4557 5.00049Z" fill="#F4B459"/>
</g>
<defs>
<clipPath id="clip0_593_61820">
<rect width="24" height="24" fill="white" transform="translate(0.955078 0.5)"/>
</clipPath>
</defs>
</svg>
