<svg width="42" height="32" viewBox="0 0 42 32" fill="none" xmlns="http://www.w3.org/2000/svg">
<path d="M41.0071 11.1339V9.67686C40.9843 8.81453 40.6262 7.99519 40.0089 7.39333C39.3917 6.79148 38.5641 6.45469 37.7025 6.45469C36.8409 6.45469 36.0133 6.79148 35.396 7.39333C34.7788 7.99519 34.4206 8.81453 34.3979 9.67686V12.5795C34.3979 12.8352 34.2964 13.0805 34.1157 13.2614C33.9351 13.4423 33.69 13.5439 33.4345 13.5439C33.1791 13.5439 32.934 13.4423 32.7534 13.2614C32.5727 13.0805 32.4712 12.8352 32.4712 12.5795V7.58144C32.4366 5.59334 31.6234 3.69841 30.2068 2.30473C28.7902 0.91105 26.8836 0.13012 24.8975 0.13012C22.9115 0.13012 21.0049 0.91105 19.5883 2.30473C18.1717 3.69841 17.3585 5.59334 17.3238 7.58144V12.5795C17.3238 12.8352 17.2223 13.0805 17.0417 13.2614C16.861 13.4423 16.616 13.5439 16.3605 13.5439C16.105 13.5439 15.86 13.4423 15.6794 13.2614C15.4987 13.0805 15.3972 12.8352 15.3972 12.5795V7.58144C15.3972 5.57072 14.5994 3.64235 13.1793 2.22055C11.7591 0.798756 9.83303 0 7.82467 0C5.81631 0 3.8902 0.798756 2.47008 2.22055C1.04995 3.64235 0.252132 5.57072 0.252132 7.58144V16.8975C0.240462 17.3393 0.317308 17.779 0.478133 18.1907C0.638958 18.6023 0.880505 18.9775 1.18852 19.2941C1.49654 19.6108 1.86478 19.8624 2.27152 20.0343C2.67827 20.2061 3.11527 20.2946 3.55674 20.2946C3.99822 20.2946 4.43522 20.2061 4.84196 20.0343C5.24871 19.8624 5.61695 19.6108 5.92497 19.2941C6.23298 18.9775 6.47453 18.6023 6.63535 18.1907C6.79618 17.779 6.87303 17.3393 6.86136 16.8975V7.58144C6.86136 7.32565 6.96285 7.08034 7.1435 6.89947C7.32416 6.7186 7.56918 6.61699 7.82467 6.61699C8.08016 6.61699 8.32518 6.7186 8.50584 6.89947C8.68649 7.08034 8.78799 7.32565 8.78799 7.58144V12.5795C8.78799 14.5902 9.58581 16.5185 11.0059 17.9403C12.4261 19.3621 14.3522 20.1609 16.3605 20.1609C18.3689 20.1609 20.295 19.3621 21.7151 17.9403C23.1352 16.5185 23.9331 14.5902 23.9331 12.5795V7.58144C23.9452 7.33352 24.0521 7.09976 24.2316 6.92859C24.4112 6.75742 24.6496 6.66195 24.8975 6.66195C25.1455 6.66195 25.3839 6.75742 25.5634 6.92859C25.743 7.09976 25.8499 7.33352 25.862 7.58144V12.5795C25.86 13.6608 26.0895 14.7299 26.5351 15.715C26.9806 16.7 27.6318 17.578 28.4448 18.2898C29.2578 19.0016 30.2137 19.5308 31.2482 19.8416C32.2826 20.1523 33.3716 20.2376 34.4418 20.0915V23.6186C34.4418 23.8743 34.3403 24.1197 34.1596 24.3005C33.979 24.4814 33.7339 24.583 33.4784 24.583C33.223 24.583 32.9779 24.4814 32.7973 24.3005C32.6166 24.1197 32.5151 23.8743 32.5151 23.6186V23.2624C32.5268 22.8205 32.45 22.3808 32.2891 21.9692C32.1283 21.5576 31.8867 21.1824 31.5787 20.8658C31.2707 20.5491 30.9025 20.2975 30.4957 20.1256C30.089 19.9538 29.652 19.8653 29.2105 19.8653C28.769 19.8653 28.332 19.9538 27.9253 20.1256C27.5185 20.2975 27.1503 20.5491 26.8423 20.8658C26.5343 21.1824 26.2927 21.5576 26.1319 21.9692C25.9711 22.3808 25.8942 22.8205 25.9059 23.2624V23.6186C25.9059 25.6293 26.7037 27.5577 28.1238 28.9794C29.544 30.4012 31.4701 31.2 33.4784 31.2C35.4868 31.2 37.4129 30.4012 38.833 28.9794C40.2532 27.5577 41.051 25.6293 41.051 23.6186V11.652C41.0493 11.4785 41.0346 11.3053 41.0071 11.1339Z" fill="#2D2D2D" fill-opacity="0.1"/>
<path d="M21.1339 26.9748C22.9596 26.9748 24.4397 25.493 24.4397 23.6651C24.4397 21.8372 22.9596 20.3555 21.1339 20.3555C19.3082 20.3555 17.8281 21.8372 17.8281 23.6651C17.8281 25.493 19.3082 26.9748 21.1339 26.9748Z" fill="#6EC531"/>
</svg>
