<svg width="68" height="52" viewBox="0 0 68 52" fill="none" xmlns="http://www.w3.org/2000/svg">
<path d="M67.9268 18.5566V16.1281C67.8889 14.6909 67.292 13.3253 66.2632 12.3222C65.2345 11.3191 63.8552 10.7578 62.4192 10.7578C60.9831 10.7578 59.6039 11.3191 58.5751 12.3222C57.5464 13.3253 56.9494 14.6909 56.9115 16.1281V20.9658C56.9115 21.3921 56.7423 21.8009 56.4412 22.1024C56.1401 22.4038 55.7318 22.5732 55.306 22.5732C54.8801 22.5732 54.4718 22.4038 54.1707 22.1024C53.8696 21.8009 53.7004 21.3921 53.7004 20.9658V12.6357C53.6426 9.32224 52.2873 6.16402 49.9264 3.84122C47.5654 1.51842 44.3877 0.216867 41.0776 0.216867C37.7675 0.216867 34.5898 1.51842 32.2288 3.84122C29.8679 6.16402 28.5126 9.32224 28.4548 12.6357V20.9658C28.4548 21.3921 28.2856 21.8009 27.9845 22.1024C27.6834 22.4038 27.2751 22.5732 26.8492 22.5732C26.4234 22.5732 26.0151 22.4038 25.714 22.1024C25.4129 21.8009 25.2437 21.3921 25.2437 20.9658V12.6357C25.2437 9.28453 23.914 6.07058 21.5471 3.70092C19.1803 1.33126 15.9701 0 12.6228 0C9.27555 0 6.06538 1.33126 3.6985 3.70092C1.33162 6.07058 0.00192522 9.28453 0.00192522 12.6357V28.1625C-0.0175237 28.8989 0.110552 29.6317 0.378594 30.3178C0.646636 31.0038 1.04921 31.6291 1.56257 32.1569C2.07593 32.6846 2.68967 33.104 3.36758 33.3904C4.04549 33.6768 4.77382 33.8244 5.50961 33.8244C6.2454 33.8244 6.97374 33.6768 7.65164 33.3904C8.32955 33.104 8.94329 32.6846 9.45665 32.1569C9.97001 31.6291 10.3726 31.0038 10.6406 30.3178C10.9087 29.6317 11.0367 28.8989 11.0173 28.1625V12.6357C11.0173 12.2094 11.1865 11.8006 11.4875 11.4991C11.7886 11.1977 12.197 11.0283 12.6228 11.0283C13.0486 11.0283 13.457 11.1977 13.7581 11.4991C14.0592 11.8006 14.2284 12.2094 14.2284 12.6357V20.9658C14.2284 24.317 15.558 27.5309 17.9249 29.9006C20.2918 32.2702 23.502 33.6015 26.8492 33.6015C30.1965 33.6015 33.4067 32.2702 35.7736 29.9006C38.1404 27.5309 39.4701 24.317 39.4701 20.9658V12.6357C39.4904 12.2225 39.6685 11.8329 39.9678 11.5477C40.267 11.2624 40.6644 11.1032 41.0776 11.1032C41.4908 11.1032 41.8882 11.2624 42.1874 11.5477C42.4867 11.8329 42.6648 12.2225 42.685 12.6357V20.9658C42.6818 22.7679 43.0643 24.5499 43.8068 26.1916C44.5493 27.8333 45.6346 29.2966 46.9896 30.483C48.3447 31.6694 49.9379 32.5513 51.662 33.0693C53.3861 33.5872 55.2011 33.7293 56.9846 33.4858V39.3643C56.9846 39.7906 56.8155 40.1994 56.5144 40.5009C56.2133 40.8023 55.8049 40.9717 55.3791 40.9717C54.9533 40.9717 54.5449 40.8023 54.2438 40.5009C53.9427 40.1994 53.7736 39.7906 53.7736 39.3643V38.7706C53.793 38.0343 53.665 37.3014 53.3969 36.6154C53.1289 35.9293 52.7263 35.304 52.2129 34.7763C51.6996 34.2485 51.0858 33.8291 50.4079 33.5427C49.73 33.2563 49.0017 33.1088 48.2659 33.1088C47.5301 33.1088 46.8018 33.2563 46.1239 33.5427C45.4459 33.8291 44.8322 34.2485 44.3189 34.7763C43.8055 35.304 43.4029 35.9293 43.1349 36.6154C42.8668 37.3014 42.7388 38.0343 42.7582 38.7706V39.3643C42.7582 42.7155 44.0879 45.9294 46.4548 48.2991C48.8217 50.6687 52.0318 52 55.3791 52C58.7264 52 61.9365 50.6687 64.3034 48.2991C66.6703 45.9294 68 42.7155 68 39.3643V19.42C67.9972 19.1308 67.9728 18.8421 67.9268 18.5566Z" fill="#2D2D2D" fill-opacity="0.1"/>
<path d="M34.8045 44.9575C37.8474 44.9575 40.3141 42.4878 40.3141 39.4414C40.3141 36.3949 37.8474 33.9253 34.8045 33.9253C31.7617 33.9253 29.2949 36.3949 29.2949 39.4414C29.2949 42.4878 31.7617 44.9575 34.8045 44.9575Z" fill="#6EC531"/>
</svg>
