<svg width="68" height="52" viewBox="0 0 68 52" fill="none" xmlns="http://www.w3.org/2000/svg">
<path d="M67.927 18.5566V16.1281C67.889 14.6909 67.2921 13.3253 66.2633 12.3222C65.2346 11.3191 63.8553 10.7578 62.4193 10.7578C60.9833 10.7578 59.604 11.3191 58.5752 12.3222C57.5465 13.3253 56.9495 14.6909 56.9116 16.1281V20.9658C56.9116 21.3921 56.7424 21.8009 56.4413 22.1024C56.1402 22.4038 55.7319 22.5732 55.3061 22.5732C54.8803 22.5732 54.4719 22.4038 54.1708 22.1024C53.8697 21.8009 53.7005 21.3921 53.7005 20.9658V12.6357C53.6427 9.32224 52.2874 6.16402 49.9265 3.84122C47.5655 1.51842 44.3878 0.216867 41.0777 0.216867C37.7676 0.216867 34.5899 1.51842 32.229 3.84122C29.868 6.16402 28.5127 9.32224 28.4549 12.6357V20.9658C28.4549 21.3921 28.2857 21.8009 27.9846 22.1024C27.6835 22.4038 27.2752 22.5732 26.8494 22.5732C26.4236 22.5732 26.0152 22.4038 25.7141 22.1024C25.413 21.8009 25.2438 21.3921 25.2438 20.9658V12.6357C25.2438 9.28453 23.9141 6.07058 21.5473 3.70092C19.1804 1.33126 15.9702 0 12.6229 0C9.27567 0 6.06549 1.33126 3.69862 3.70092C1.33174 6.07058 0.00203966 9.28453 0.00203966 12.6357V28.1625C-0.0174093 28.8989 0.110666 29.6317 0.378708 30.3178C0.64675 31.0038 1.04933 31.6291 1.56269 32.1569C2.07605 32.6846 2.68979 33.104 3.36769 33.3904C4.0456 33.6768 4.77394 33.8244 5.50973 33.8244C6.24552 33.8244 6.97385 33.6768 7.65176 33.3904C8.32966 33.104 8.9434 32.6846 9.45676 32.1569C9.97012 31.6291 10.3727 31.0038 10.6407 30.3178C10.9088 29.6317 11.0369 28.8989 11.0174 28.1625V12.6357C11.0174 12.2094 11.1866 11.8006 11.4877 11.4991C11.7888 11.1977 12.1971 11.0283 12.6229 11.0283C13.0487 11.0283 13.4571 11.1977 13.7582 11.4991C14.0593 11.8006 14.2285 12.2094 14.2285 12.6357V20.9658C14.2285 24.317 15.5582 27.5309 17.925 29.9006C20.2919 32.2702 23.5021 33.6015 26.8494 33.6015C30.1966 33.6015 33.4068 32.2702 35.7737 29.9006C38.1406 27.5309 39.4703 24.317 39.4703 20.9658V12.6357C39.4905 12.2225 39.6686 11.8329 39.9679 11.5477C40.2671 11.2624 40.6645 11.1032 41.0777 11.1032C41.4909 11.1032 41.8883 11.2624 42.1875 11.5477C42.4868 11.8329 42.665 12.2225 42.6852 12.6357V20.9658C42.6819 22.7679 43.0644 24.5499 43.8069 26.1916C44.5494 27.8333 45.6348 29.2966 46.9898 30.483C48.3448 31.6694 49.938 32.5513 51.6621 33.0693C53.3862 33.5872 55.2012 33.7293 56.9847 33.4858V39.3643C56.9847 39.7906 56.8156 40.1994 56.5145 40.5009C56.2134 40.8023 55.805 40.9717 55.3792 40.9717C54.9534 40.9717 54.545 40.8023 54.2439 40.5009C53.9428 40.1994 53.7737 39.7906 53.7737 39.3643V38.7706C53.7931 38.0343 53.6651 37.3014 53.397 36.6154C53.129 35.9293 52.7264 35.304 52.213 34.7763C51.6997 34.2485 51.0859 33.8291 50.408 33.5427C49.7301 33.2563 49.0018 33.1088 48.266 33.1088C47.5302 33.1088 46.8019 33.2563 46.124 33.5427C45.4461 33.8291 44.8323 34.2485 44.319 34.7763C43.8056 35.304 43.403 35.9293 43.135 36.6154C42.8669 37.3014 42.7389 38.0343 42.7583 38.7706V39.3643C42.7583 42.7155 44.088 45.9294 46.4549 48.2991C48.8218 50.6687 52.0319 52 55.3792 52C58.7265 52 61.9367 50.6687 64.3035 48.2991C66.6704 45.9294 68.0001 42.7155 68.0001 39.3643V19.42C67.9973 19.1308 67.9729 18.8421 67.927 18.5566Z" fill="#2D2D2D" fill-opacity="0.1"/>
<path d="M34.8045 44.9575C37.8474 44.9575 40.3141 42.4878 40.3141 39.4414C40.3141 36.3949 37.8474 33.9253 34.8045 33.9253C31.7616 33.9253 29.2949 36.3949 29.2949 39.4414C29.2949 42.4878 31.7616 44.9575 34.8045 44.9575Z" fill="#6EC531"/>
</svg>
