<svg width="25" height="25" viewBox="0 0 25 25" fill="none" xmlns="http://www.w3.org/2000/svg">
<g clip-path="url(#clip0_593_61815)">
<path d="M11.612 15.6676H9.96391L10.994 9.33724H12.6423L11.612 15.6676ZM8.5774 9.33724L7.00616 13.6913L6.82023 12.7537L6.8204 12.7541L6.26583 9.90721C6.26583 9.90721 6.19877 9.33724 5.48402 9.33724H2.88644L2.85596 9.44442C2.85596 9.44442 3.6503 9.60969 4.57994 10.168L6.01183 15.6678H7.72904L10.3512 9.33724H8.5774ZM21.5407 15.6676H23.0541L21.7346 9.33707H20.4098C19.798 9.33707 19.6489 9.80883 19.6489 9.80883L17.1909 15.6676H18.909L19.2525 14.7273H21.3477L21.5407 15.6676ZM19.7272 13.4283L20.5932 11.0594L21.0803 13.4283H19.7272ZM17.3198 10.8595L17.555 9.50013C17.555 9.50013 16.8292 9.22412 16.0726 9.22412C15.2547 9.22412 13.3125 9.58158 13.3125 11.3198C13.3125 12.9552 15.5921 12.9755 15.5921 13.8346C15.5921 14.6936 13.5473 14.5397 12.8726 13.998L12.6275 15.4194C12.6275 15.4194 13.3635 15.7768 14.4878 15.7768C15.6125 15.7768 17.3093 15.1945 17.3093 13.6095C17.3093 11.9636 15.0092 11.8104 15.0092 11.0948C15.0094 10.379 16.6145 10.4709 17.3198 10.8595Z" fill="#2566AF"/>
<path d="M6.8204 12.7537L6.26583 9.90689C6.26583 9.90689 6.19877 9.33691 5.48402 9.33691H2.88644L2.85596 9.4441C2.85596 9.4441 4.10445 9.70284 5.30198 10.6723C6.44702 11.5989 6.8204 12.7537 6.8204 12.7537Z" fill="#E6A540"/>
</g>
<defs>
<clipPath id="clip0_593_61815">
<rect width="24" height="24" fill="white" transform="translate(0.955078 0.5)"/>
</clipPath>
</defs>
</svg>
