<svg width="24" height="24" viewBox="0 0 24 24" fill="none" xmlns="http://www.w3.org/2000/svg">
<g clip-path="url(#clip0_1805_23079)">
<path d="M21.3333 3.33325H2.66667C1.95942 3.33325 1.28115 3.6142 0.781049 4.1143C0.280952 4.6144 0 5.29267 0 5.99992L0 17.9999C0 18.7072 0.280952 19.3854 0.781049 19.8855C1.28115 20.3856 1.95942 20.6666 2.66667 20.6666H21.3333C22.0406 20.6666 22.7189 20.3856 23.219 19.8855C23.719 19.3854 24 18.7072 24 17.9999V5.99992C24 5.29267 23.719 4.6144 23.219 4.1143C22.7189 3.6142 22.0406 3.33325 21.3333 3.33325Z" fill="#56A122"/>
<path d="M5.94583 9.36664C6.36716 9.40664 6.13449 8.65397 6.28716 8.5173C6.31583 8.44997 6.36916 8.4493 6.37316 8.53464V9.1733C6.36916 9.3813 6.50583 9.44197 6.61183 9.4853C6.7225 9.47663 6.79583 9.48064 6.83916 9.58797L6.89116 10.6933C6.89116 10.6933 7.14716 10.7666 7.15916 10.0713C7.17183 9.6633 7.07783 9.32197 7.13316 9.24264C7.13516 9.16464 7.2345 9.15997 7.30383 9.19797C7.41383 9.2753 7.46316 9.3713 7.63383 9.3333C7.8945 9.26197 8.0505 9.1353 8.0545 8.9353C8.03916 8.7453 8.01783 8.5553 7.93583 8.3653C7.94716 8.33064 7.88583 8.2413 7.89716 8.20664C7.94383 8.27997 8.01516 8.27397 8.03116 8.20664C7.98716 8.06064 7.9185 7.92064 7.8065 7.85997C7.7145 7.77864 7.57983 7.7953 7.53049 7.96463C7.50783 8.1593 7.60116 8.3913 7.7425 8.57997C7.7725 8.65397 7.81516 8.77664 7.79649 8.8873C7.72116 8.92997 7.64516 8.91264 7.58249 8.84597C7.58249 8.84597 7.37516 8.69064 7.37516 8.65597C7.4305 8.30397 7.38783 8.26397 7.35716 8.16664C7.33583 8.03197 7.27183 7.98864 7.21983 7.89664C7.16783 7.84197 7.09783 7.84197 7.0645 7.89664C6.9725 8.0553 7.01516 8.39664 7.08183 8.5493C7.12916 8.6893 7.2025 8.77797 7.16783 8.77797C7.13916 8.8573 7.0805 8.83864 7.03783 8.7473C6.9765 8.55797 6.96449 8.27597 6.96449 8.14863C6.94583 7.9913 6.92583 7.65464 6.8225 7.5693C6.75916 7.4833 6.66516 7.52464 6.6325 7.60397C6.62583 7.75997 6.62449 7.91664 6.64249 8.0613C6.71316 8.31397 6.73583 8.53664 6.7705 8.79597C6.77983 9.1433 6.56983 8.94663 6.57916 8.77463C6.62783 8.5513 6.61516 8.1993 6.57183 8.10997C6.53783 8.0213 6.49716 7.99864 6.41449 8.0133C6.34916 8.00797 6.17983 8.1933 6.13183 8.49997C6.13183 8.49997 6.09116 8.65797 6.07383 8.79864C6.0505 8.9573 5.9465 9.0693 5.87316 8.77664C5.80983 8.56397 5.77116 8.0393 5.66516 8.16197C5.6345 8.57197 5.59783 9.2933 5.94583 9.36664Z" fill="white"/>
<path d="M6.57894 9.66602C6.23227 9.67268 5.72494 10.1213 5.71094 10.37C6.07627 10.194 6.4356 10.0247 6.8076 9.84335C6.7476 9.75335 6.80427 9.67268 6.57894 9.66602Z" fill="white"/>
<path d="M8.49096 11.0107C8.65163 10.4754 8.46496 10.0807 8.55229 10.0827C8.73696 10.282 8.99563 10.1094 9.05229 10.04C9.07696 10.0054 9.13763 9.98271 9.18029 10.028C9.32496 10.132 9.57963 10.0827 9.63229 9.90004C9.66559 9.71658 9.68609 9.53102 9.69363 9.34471C9.57563 9.38137 9.48763 9.40604 9.47963 9.45471L9.45496 9.61337C9.44496 9.66471 9.34296 9.66671 9.33896 9.60137C9.29429 9.39804 9.10896 9.37137 8.99696 9.68671C8.92163 9.74804 8.78563 9.76004 8.77096 9.66871C8.78896 9.45737 8.70363 9.42871 8.53296 9.52804C8.47829 9.10871 8.42296 8.70804 8.36829 8.28871C8.43963 8.28671 8.50496 8.33937 8.56963 8.25804C8.49829 8.03604 8.34763 7.58271 8.26429 7.55004C8.22363 7.50071 8.18896 7.53137 8.13629 7.54404C8.04696 7.57271 7.96363 7.65004 7.98963 7.80004C8.09563 8.44337 8.16496 8.93337 8.27029 9.57671C8.28629 9.65204 8.22363 9.75137 8.14229 9.74137C8.00429 9.64804 7.96963 9.45871 7.73363 9.46671C7.56229 9.46871 7.36696 9.65404 7.34296 9.83337C7.31429 9.97537 7.30429 10.13 7.34296 10.2547C7.46296 10.3987 7.60763 10.3847 7.73363 10.352C7.83696 10.3094 7.92296 10.2054 7.95896 10.23C7.98363 10.26 7.96496 10.602 7.47096 10.8647C7.17163 10.9987 6.93363 11.0294 6.80563 10.7854C6.72629 10.6327 6.81163 10.0527 6.61629 10.1874C6.03829 11.6774 7.96963 11.884 8.18563 10.2487C8.20629 10.1814 8.28763 10.114 8.30163 10.224C8.25696 11.7054 6.80763 11.8074 6.56163 11.3414C6.50029 11.2314 6.48229 10.9874 6.47629 10.8407C6.43963 10.5494 6.28696 10.6614 6.26296 10.95C6.23829 11.1107 6.24496 11.156 6.24496 11.31C6.32163 12.48 8.18829 11.9774 8.49096 11.0107ZM7.77096 9.99871C7.75896 10.0214 7.70629 10.012 7.66763 10.012C7.62363 10.01 7.60296 10.0027 7.57629 9.96737C7.56429 9.92737 7.60163 9.88937 7.61829 9.85937C7.63896 9.82404 7.75029 9.78737 7.78963 9.88604C7.79691 9.90477 7.79902 9.92511 7.79573 9.94493C7.79245 9.96475 7.78389 9.98333 7.77096 9.99871Z" fill="white"/>
<path d="M9.0675 8.67267C9.1835 8.63 9.7335 8.00133 9.7335 8.00133C9.70484 7.97667 9.6795 7.95867 9.65084 7.934C9.62017 7.90734 9.6235 7.88067 9.65084 7.85467C9.78684 7.77533 9.7435 7.60134 9.67217 7.522C9.62603 7.49937 9.57524 7.48782 9.52385 7.48828C9.47246 7.48875 9.42189 7.50121 9.37617 7.52467C9.28084 7.616 9.25817 7.76267 9.3335 7.85467C9.40684 7.88933 9.48017 7.96333 9.4315 8.004C9.20684 8.244 8.59084 8.658 8.66217 8.67267C8.6775 8.69267 9.0555 8.692 9.0675 8.67267ZM9.47484 7.68533C9.51017 7.67667 9.5555 7.708 9.57684 7.75467C9.59817 7.80134 9.58684 7.846 9.55217 7.85467H9.55084C9.51617 7.86333 9.47084 7.832 9.4495 7.78534C9.42884 7.738 9.44017 7.694 9.47484 7.68533ZM5.9075 11.5053C5.81684 11.69 5.77884 11.5633 5.77084 11.46C5.76042 11.2865 5.76914 11.1123 5.79684 10.9407C5.8195 10.794 5.79684 10.8387 5.75017 10.898C5.54417 11.226 5.52617 11.7167 5.64017 11.8627C5.70017 11.932 5.7995 11.9627 5.8735 11.94C6.00284 11.884 6.0595 11.6213 6.02884 11.526C5.98484 11.4587 5.95084 11.448 5.9075 11.5053ZM12.6948 8.03334C12.9322 8.352 13.1575 8.67667 13.3782 9.00733C13.4215 9.294 13.4528 9.574 13.4715 9.852C13.5082 10.388 13.5188 10.968 13.4855 11.5327C13.5855 11.5367 13.7475 11.37 13.8035 11.1267C13.8402 10.79 13.7902 10.1907 13.7868 9.992C13.7824 9.86749 13.7764 9.74303 13.7688 9.61867C14.0315 10.048 14.2875 10.4973 14.5375 10.9967C14.6288 10.954 14.6088 10.4433 14.5555 10.3713C14.3555 9.94267 14.0802 9.51867 13.9922 9.356C13.9595 9.296 13.8482 9.12534 13.7155 8.93C13.7041 8.7741 13.6854 8.61882 13.6595 8.46467C13.6182 8.17933 13.7775 8.496 13.7555 8.33C13.7042 8.04467 13.5455 7.852 13.3602 7.59067C13.3002 7.506 13.3022 7.48867 13.2095 7.61133C13.1767 7.68482 13.1617 7.76497 13.1655 7.84533C13.1366 7.80279 13.1056 7.76164 13.0728 7.722C12.9722 7.63519 12.8711 7.54897 12.7695 7.46333C12.7022 7.41533 12.5382 7.32867 12.5088 7.47267C12.4952 7.57361 12.5002 7.67619 12.5235 7.77534C12.5408 7.84667 12.6442 7.96534 12.6948 8.03334ZM13.1882 8.01734C13.2008 8.07267 13.2142 8.128 13.2228 8.18467L13.2328 8.23867C13.2049 8.19959 13.1757 8.16135 13.1455 8.124C13.0362 7.99467 13.1268 8.02267 13.1882 8.01734Z" fill="white"/>
<path d="M14.6113 11.1288C14.3793 11.3708 14.0446 11.6688 13.6806 11.8068C13.6413 11.8508 13.778 12.0395 13.954 12.0395C14.2493 12.0048 14.5093 11.8388 14.75 11.4021C14.8146 11.3008 14.928 11.0828 14.9306 10.9135C14.9526 9.92279 14.8813 9.15146 14.7326 8.43546C14.7227 8.37801 14.7254 8.31907 14.7406 8.26279C14.7593 8.24012 14.8246 8.26279 14.8593 8.20679C14.9093 8.15479 14.7253 7.72812 14.62 7.56412C14.5826 7.49079 14.57 7.44146 14.508 7.57279C14.4426 7.67946 14.3993 7.86546 14.4046 8.03879C14.5453 9.01412 14.5886 9.86812 14.6806 10.8435C14.688 10.9375 14.674 11.0748 14.6113 11.1288ZM18.498 8.65546C18.488 8.58612 18.4573 8.42479 18.4693 8.40412C18.488 8.35479 18.5846 8.40946 18.6193 8.35279C18.67 8.30146 18.37 7.91612 18.2653 7.75212C18.2273 7.67879 18.2146 7.62946 18.1526 7.76079C18.0873 7.86746 18.0646 8.05879 18.0906 8.22679C18.2473 9.28612 18.364 10.0821 18.388 11.0215C18.374 11.1108 18.3713 11.1588 18.3293 11.2708C18.2366 11.3895 18.1346 11.5375 18.038 11.6095C17.942 11.6808 17.7373 11.7495 17.67 11.8021C17.4586 11.9255 17.458 12.0661 17.63 12.0708C17.9246 12.0361 18.274 12.0121 18.5146 11.6481C18.5793 11.5468 18.656 11.2715 18.6593 11.1021C18.6813 10.1115 18.6466 9.37146 18.498 8.65546ZM16.264 9.48012C16.2666 9.34412 16.2793 9.16412 16.2866 9.05146C16.29 9.00946 16.3 8.96212 16.34 8.95146C16.3806 8.94079 16.4526 8.99279 16.4533 8.94879C16.4453 8.86279 16.428 8.73479 16.3793 8.67412C16.3126 8.57546 16.136 8.59946 16.1046 8.75412C16.1053 8.81146 16.1313 8.84212 16.1266 8.89412C16.1186 8.92346 16.088 8.94346 16.0153 8.90879C16.0273 8.89812 15.968 8.81612 15.968 8.81612C15.9113 8.78146 15.8353 8.81812 15.7866 8.84946C15.769 8.88307 15.7585 8.91995 15.7558 8.95779C15.753 8.99564 15.7581 9.03365 15.7706 9.06946C15.8506 9.22079 16.13 9.47746 16.264 9.48012Z" fill="white"/>
<path d="M16.1701 8.32077C16.3655 8.56011 16.5648 8.80277 16.7655 9.04944C16.8088 9.60011 16.8201 10.0508 16.8628 10.6014C16.8568 10.8348 16.7848 11.0381 16.7161 11.0674C16.7161 11.0674 16.6128 11.1274 16.5435 11.0614C16.4928 11.0408 16.2908 10.7248 16.2908 10.7248C16.1875 10.6301 16.1195 10.6568 16.0461 10.7248C15.8435 10.9201 15.7521 11.2868 15.6148 11.5388C15.5788 11.5954 15.4788 11.6434 15.3675 11.5348C15.0855 11.1488 15.2508 10.6001 15.2161 10.7414C14.9648 11.0248 15.0755 11.4934 15.1321 11.5948C15.2148 11.7601 15.2821 11.8668 15.4435 11.9488C15.5901 12.0568 15.7048 11.9888 15.7675 11.9134C15.9155 11.7594 15.9175 11.3694 15.9868 11.2908C16.0348 11.1488 16.1581 11.1728 16.2175 11.2361C16.2718 11.3128 16.3439 11.3752 16.4275 11.4181C16.5655 11.5401 16.7301 11.5621 16.8921 11.4508C17.0028 11.3888 17.0755 11.3081 17.1401 11.1488C17.2121 10.9568 17.1728 10.0741 17.1581 9.54477C17.2615 9.67811 17.3621 9.81744 17.4641 9.95677C17.5088 10.3988 17.5341 10.8388 17.5195 11.2881C17.5088 11.3781 17.8328 11.0214 17.8301 10.8521C17.8288 10.7154 17.8301 10.5914 17.8301 10.4748C17.9861 10.7094 18.1381 10.9514 18.2808 11.2074C18.3701 11.1608 18.3408 10.6574 18.2841 10.5881C18.1195 10.3121 17.9001 10.0248 17.7488 9.81944C17.7388 9.79344 17.7335 9.76411 17.7215 9.73944C17.6608 9.59877 17.6988 9.48544 17.6701 9.33611C17.6421 9.18611 17.6495 8.96211 17.6061 8.78411C17.5941 8.71477 17.5581 8.49211 17.5688 8.47144C17.5861 8.42144 17.6528 8.47277 17.6855 8.41544C17.7341 8.36211 17.5168 7.79877 17.4061 7.63744C17.3661 7.56544 17.2941 7.59011 17.2048 7.70744C17.1228 7.78477 17.1535 7.96077 17.1848 8.12811C17.2628 8.53344 17.3281 8.92211 17.3841 9.30677C17.2643 9.14739 17.1432 8.98894 17.0208 8.83144L17.0155 8.80211C17.0155 8.79477 16.9975 8.45277 16.9815 8.37144C16.9788 8.33877 16.9708 8.32877 17.0055 8.33277C17.0421 8.36344 17.0468 8.36544 17.0701 8.37611C17.1075 8.38277 17.1401 8.31944 17.1181 8.26144L16.7735 7.62677C16.7461 7.59944 16.7101 7.57011 16.6668 7.63411C16.6399 7.65761 16.6184 7.68661 16.6036 7.71916C16.5889 7.75171 16.5814 7.78705 16.5815 7.82277C16.5921 7.97277 16.6181 8.12611 16.6281 8.27677L16.6428 8.35811C16.6275 8.34011 16.6088 8.31744 16.6008 8.30944C16.3081 8.00144 16.7355 8.25944 16.5448 8.02144C16.3835 7.84411 16.3368 7.78877 16.1981 7.68211C16.1288 7.63744 16.0868 7.55211 16.0641 7.69744C16.0527 7.82488 16.0494 7.95291 16.0541 8.08077C16.0541 8.14211 16.1161 8.25411 16.1701 8.32077ZM10.2361 9.04011C10.4041 9.10944 10.5115 8.78944 10.5808 8.43877C10.6275 8.34011 10.6635 8.32944 10.6875 8.38011C10.6815 8.84677 10.7208 8.95011 10.8408 9.09211C11.1081 9.29877 11.3295 9.11811 11.3475 9.10077L11.5555 8.89277C11.6015 8.84411 11.6635 8.84077 11.7288 8.88411C11.7928 8.94144 11.7841 9.04144 11.9201 9.11077C12.0348 9.15677 12.2801 9.12144 12.3368 9.02277C12.4135 8.89211 12.4321 8.84677 12.4668 8.79744C12.5215 8.72477 12.6148 8.75744 12.6148 8.78011C12.6061 8.82077 12.5515 8.86144 12.5888 8.93411C12.6541 8.98277 12.6688 8.95144 12.7075 8.94077C12.8435 8.87544 12.9448 8.58077 12.9448 8.58077C12.9508 8.47077 12.8895 8.48011 12.8495 8.50277C12.7975 8.53411 12.7941 8.54477 12.7421 8.57677C12.6755 8.58677 12.5468 8.63077 12.4835 8.53211C12.4181 8.41344 12.4168 8.24811 12.3675 8.12877C12.3675 8.12011 12.2808 7.94011 12.3615 7.92877C12.4021 7.93611 12.4881 7.95877 12.5021 7.88677C12.5441 7.81611 12.4108 7.61477 12.3201 7.51277C12.2408 7.42611 12.1308 7.41544 12.0248 7.50411C11.9501 7.57277 11.9608 7.64877 11.9461 7.72144C11.934 7.77272 11.9341 7.82612 11.9462 7.87739C11.9584 7.92866 11.9823 7.97638 12.0161 8.01677C12.0901 8.16277 12.2255 8.35144 12.1808 8.61544C12.1808 8.61544 12.1021 8.74077 11.9641 8.72477C11.9068 8.71211 11.8135 8.68744 11.7641 8.32077C11.7268 8.04277 11.7735 7.65411 11.6555 7.47211C11.6128 7.36211 11.5821 7.25611 11.4781 7.44411C11.4501 7.51811 11.3301 7.63011 11.4175 7.86144C11.4888 8.00744 11.5175 8.24544 11.4855 8.51077C11.4361 8.58611 11.4255 8.61144 11.3608 8.68677C11.2701 8.78411 11.1721 8.75944 11.0968 8.72277C11.0261 8.67544 10.9715 8.65077 10.9395 8.50011C10.9455 8.26011 10.9588 7.86677 10.9148 7.78344C10.8501 7.65411 10.7435 7.70077 10.6975 7.74011C10.4781 7.94077 10.3701 8.27877 10.3041 8.54744C10.2435 8.74344 10.1788 8.68744 10.1335 8.60811C10.0228 8.50411 10.0155 7.69277 9.88148 7.82677C9.66615 8.43611 10.0028 9.10544 10.2361 9.04011Z" fill="white"/>
<path d="M13.4236 10.3493L13.3596 10.3126L12.1056 10.3066C12.041 10.282 12.0603 10.2606 12.1056 10.2433C12.405 10.2026 12.9376 10.116 12.973 9.60462C12.967 9.33862 12.8583 9.16396 12.5316 9.11596C12.2923 9.13462 12.121 9.36729 12.1483 9.62262C12.137 9.69196 12.171 9.82662 12.101 9.84196C11.6403 9.88396 11.1383 10.172 11.1216 10.3786C11.0936 10.398 11.031 10.342 11.039 10.254C11.0168 9.87753 10.9084 9.51123 10.7223 9.18329C10.577 9.03796 10.6223 9.08596 10.525 9.15462C10.4623 9.22662 10.451 9.27596 10.4543 9.41929C10.4543 9.42462 10.5716 9.75196 10.671 9.98129C10.737 10.2166 10.799 10.4853 10.7543 10.7393C10.5996 11.0753 10.2883 11.3766 9.98829 11.54C9.83362 11.59 9.70095 11.572 9.66829 11.5373C9.57295 11.4733 9.57762 11.3553 9.58495 11.3533C9.83762 11.1766 10.127 11.0346 10.3536 10.5593C10.4203 10.378 10.4403 10.268 10.3743 9.98729C10.3559 9.88838 10.3105 9.79652 10.243 9.72196C10.2836 9.69529 10.4003 9.78396 10.4183 9.73129C10.3845 9.57766 10.308 9.4367 10.1976 9.32462C10.1076 9.24262 10.0096 9.23329 9.92695 9.30862C9.83362 9.36062 9.81362 9.54596 9.85829 9.70862C9.90762 9.83129 10.0416 9.85196 10.1376 10.098C10.1376 10.1033 10.1723 10.282 10.123 10.352C10.0836 10.4746 9.57362 10.8753 9.54562 10.8933C9.53162 10.9106 9.53762 10.8846 9.53562 10.818C9.53229 10.7366 9.56829 10.5446 9.55829 10.5433C9.39229 10.6506 9.33695 10.9793 9.30695 11.0766C8.88695 11.3666 8.41162 11.5826 8.13695 11.8773C7.99362 12.1006 9.12229 11.6206 9.25362 11.5626C9.28295 11.584 9.27962 11.6846 9.35829 11.7746C9.47562 11.9333 9.72362 12.0313 9.96695 11.9706C10.3736 11.8233 10.609 11.546 10.8476 11.2386C10.8816 11.1886 10.935 11.1506 10.9843 11.1886C11.1483 11.556 11.6223 11.816 12.2336 11.8433C12.3756 11.6706 12.307 11.5873 12.2496 11.5513C12.2496 11.546 11.9476 11.4313 11.9016 11.3166C11.8736 11.2126 11.9416 11.1213 12.0776 11.052C12.4703 11.0046 12.8563 10.952 13.2303 10.832C13.2343 10.7066 13.307 10.5186 13.357 10.4373C13.405 10.3546 13.431 10.3793 13.4236 10.3493ZM12.3923 9.56796C12.411 9.53662 12.473 9.53796 12.531 9.57196C12.589 9.60529 12.6216 9.65862 12.6023 9.68996C12.5836 9.72196 12.521 9.71996 12.463 9.68596C12.405 9.65262 12.3736 9.59996 12.3923 9.56796ZM11.8876 10.8346C11.753 10.8806 11.6236 10.9166 11.6236 11.1113C11.6736 11.382 11.555 11.2893 11.485 11.252C11.4023 11.1926 11.1696 11.0493 11.1363 10.74C11.131 10.666 11.189 10.604 11.2816 10.604C11.421 10.642 11.627 10.6446 11.8056 10.6633C11.9516 10.6726 12.0243 10.7873 11.8876 10.8346ZM7.24295 7.83129C7.38695 7.90062 7.65895 7.87129 7.64695 7.63796C7.64695 7.61729 7.64162 7.54796 7.63962 7.52929C7.61029 7.46062 7.53029 7.47729 7.51162 7.54862C7.50562 7.57196 7.52162 7.60929 7.50095 7.62129C7.48895 7.63329 7.44295 7.62596 7.44495 7.56196C7.44495 7.54129 7.42962 7.51929 7.42095 7.50662C7.41162 7.50062 7.40629 7.49862 7.38962 7.49862C7.36962 7.49929 7.36962 7.50462 7.35895 7.52196C7.35429 7.53862 7.34762 7.55596 7.34762 7.57529C7.34495 7.59796 7.33629 7.60596 7.31962 7.60996C7.30095 7.60996 7.30495 7.61196 7.29029 7.60196C7.28095 7.59196 7.26962 7.58796 7.26962 7.57129C7.26956 7.5518 7.26641 7.53245 7.26029 7.51396C7.25229 7.50329 7.23962 7.49862 7.22495 7.49462C7.14629 7.49462 7.14095 7.58462 7.14562 7.61929C7.13829 7.62529 7.13562 7.78662 7.24295 7.83129Z" fill="white"/>
<path d="M11.6744 9.35138C11.6744 9.33071 11.6591 9.30938 11.6504 9.29604C11.6411 9.29004 11.6358 9.28804 11.6191 9.28804C11.5991 9.28871 11.5998 9.29404 11.5884 9.31138C11.5838 9.32871 11.5771 9.34538 11.5771 9.36471C11.5751 9.38804 11.5658 9.39604 11.5491 9.39938C11.5304 9.39938 11.5344 9.40138 11.5191 9.39204C11.5098 9.38204 11.4984 9.37804 11.4984 9.36138C11.4985 9.34189 11.4953 9.32253 11.4891 9.30404C11.4811 9.29338 11.4684 9.28871 11.4538 9.28538C11.3751 9.28538 11.3698 9.37538 11.3738 9.40938C11.3678 9.41604 11.3644 9.57671 11.4718 9.62204C11.6164 9.69071 11.9598 9.65071 11.8758 9.42871C11.8744 9.3922 11.8719 9.35574 11.8684 9.31938C11.8391 9.25071 11.7584 9.26804 11.7404 9.33871C11.7351 9.36204 11.7511 9.39938 11.7298 9.41138C11.7191 9.42338 11.6724 9.41604 11.6744 9.35138ZM13.9391 8.88004C14.0831 8.94938 14.3544 8.92004 14.3424 8.68738C14.341 8.65087 14.3386 8.61441 14.3351 8.57804C14.3058 8.50938 14.2258 8.52671 14.2078 8.59738C14.2018 8.62071 14.2178 8.65804 14.1964 8.67004C14.1844 8.68204 14.1384 8.67538 14.1404 8.61071C14.1404 8.59004 14.1251 8.56804 14.1164 8.55538C14.1071 8.54938 14.1018 8.54738 14.0844 8.54738C14.0645 8.54871 14.0651 8.55338 14.0538 8.57071C14.0491 8.58804 14.0424 8.60471 14.0424 8.62404C14.0398 8.64738 14.0311 8.65538 14.0144 8.65871C13.9958 8.65871 13.9998 8.66071 13.9844 8.65138C13.9751 8.64138 13.9644 8.63738 13.9644 8.62071C13.9644 8.60101 13.9612 8.58144 13.9551 8.56271C13.9465 8.55204 13.9344 8.54738 13.9191 8.54404C13.8404 8.54404 13.8351 8.63404 13.8398 8.66804C13.8351 8.67471 13.8318 8.83538 13.9391 8.88004ZM14.0364 7.97871C14.0878 8.12271 13.9971 8.26004 14.0511 8.28004C14.0998 8.30271 14.1691 8.13138 14.1944 7.97338C14.2244 7.84538 14.1331 7.58338 14.0038 7.52938C13.9251 7.51071 13.8131 7.55738 13.8491 7.66271C13.8311 7.71338 14.0078 7.88538 14.0364 7.97871ZM15.3664 11.3547C15.4671 11.3554 15.5831 11.1247 15.6324 10.896C15.6598 10.5814 15.6138 10.39 15.6058 10.2047C15.5971 10.02 15.3971 8.61004 15.3558 8.47004C15.3071 8.20538 15.5511 8.43471 15.5245 8.28071C15.4398 8.08671 15.2298 7.80471 15.1631 7.63604C15.1231 7.56404 15.1404 7.50004 15.0511 7.61738C14.9691 7.88738 14.9404 8.10738 14.9718 8.27538C15.1838 9.38204 15.4011 10.302 15.3664 11.3547ZM17.8704 8.46138C17.8938 8.53338 17.8351 8.76604 17.8838 8.78738C17.9284 8.81138 17.9911 8.62671 18.0144 8.45538C18.0271 8.36138 17.9584 8.03338 17.8404 7.97471C17.7684 7.95471 17.6664 8.00471 17.6998 8.11938C17.6831 8.17471 17.8444 8.36004 17.8704 8.46138ZM9.12445 10.8987C9.16778 10.9167 9.22712 10.7807 9.24978 10.6547C9.26245 10.5854 9.19578 10.3447 9.08312 10.3014C9.01378 10.2867 8.91912 10.3054 8.94845 10.408C8.94512 10.4634 9.10178 10.53 9.11112 10.6587C9.13378 10.712 9.07778 10.8834 9.12445 10.8987ZM6.08712 7.82204C6.10912 7.87738 6.06512 8.05404 6.11112 8.07071C6.15312 8.08938 6.21245 7.94804 6.23445 7.81804C6.24712 7.74604 6.23712 7.50204 6.07045 7.45204C6.00178 7.43671 5.90645 7.47471 5.93778 7.56204C5.92178 7.60338 6.06245 7.74471 6.08712 7.82204ZM9.35512 8.60404C9.22778 8.67338 9.17778 8.87871 9.25778 8.99804C9.33178 9.10404 9.44912 9.06471 9.46512 9.06471C9.59045 9.08004 9.66445 8.83004 9.66445 8.83004C9.66445 8.83004 9.66845 8.76004 9.51978 8.89271C9.45712 8.90471 9.44912 8.88138 9.43378 8.84538C9.4186 8.78013 9.4254 8.7117 9.45312 8.65071C9.47445 8.58871 9.42645 8.56138 9.35512 8.60404ZM10.3164 7.83538C10.337 7.82268 10.3546 7.80578 10.3682 7.78579C10.3817 7.7658 10.3909 7.74317 10.3951 7.71938C10.4144 7.62204 10.2918 7.76538 10.2764 7.65671C10.2491 7.55604 10.3278 7.51471 10.4024 7.41738C10.4051 7.35004 10.4038 7.30271 10.3124 7.35738C10.2484 7.40071 10.1204 7.53271 10.1164 7.68471C10.1124 7.77071 10.0964 7.77004 10.1531 7.82471C10.1938 7.88404 10.2344 7.87804 10.3164 7.83538ZM11.1824 7.88738C11.2651 7.66338 11.2651 7.56871 11.2711 7.47338C11.2458 7.32871 11.1478 7.33338 11.0831 7.49404C11.0551 7.55471 11.0224 7.87404 11.0278 7.87404C11.0058 7.96938 11.1271 8.01004 11.1824 7.88738ZM16.6291 9.47604C16.6291 9.47604 15.9604 9.95138 15.9444 9.96804C15.8778 10.0267 15.9111 10.2347 15.9444 10.2107C15.9918 10.2294 16.6644 9.77271 16.6511 9.71938C16.6824 9.72071 16.6978 9.45204 16.6291 9.47604ZM16.5471 10.7654C16.5918 10.7894 16.7098 10.6434 16.7051 10.4614C16.7184 10.3674 16.6711 10.0227 16.5538 9.96404C16.4818 9.94404 16.3858 10.0054 16.4191 10.1194C16.4024 10.174 16.5018 10.3654 16.5278 10.4667C16.5511 10.5394 16.4984 10.744 16.5471 10.7654ZM12.7604 11.7627C12.7604 11.7687 12.8171 11.8174 12.8838 11.7787C13.0238 11.7247 13.1118 11.6727 13.3078 11.6294C13.3591 11.6287 13.3558 11.4907 13.2744 11.486C13.1684 11.4914 13.0698 11.4967 12.9638 11.5807C12.8984 11.5954 12.8878 11.556 12.8731 11.52C12.8571 11.4314 12.9098 11.37 12.8984 11.304C12.9024 11.308 12.8378 11.2487 12.7718 11.282C12.7685 11.282 12.6244 11.3794 12.5784 11.4474C12.5498 11.4694 12.5531 11.488 12.5618 11.5247C12.5838 11.5754 12.6231 11.56 12.6671 11.536C12.7258 11.528 12.7538 11.5667 12.7491 11.6367C12.7211 11.7254 12.7604 11.758 12.7604 11.7627ZM17.1278 11.8734C17.1058 11.9114 17.0911 11.9687 17.1591 11.9867C17.2844 12.022 17.5731 11.834 17.5731 11.8307C17.6198 11.7954 17.6044 11.7294 17.6004 11.7294C17.5731 11.698 17.5118 11.716 17.4704 11.7114C17.4511 11.7114 17.3858 11.7014 17.4171 11.644C17.4392 11.6131 17.4567 11.5792 17.4691 11.5434C17.4885 11.5 17.4718 11.4714 17.4011 11.448C17.3298 11.4347 17.3011 11.4414 17.2218 11.448C17.1791 11.4574 17.1644 11.476 17.1565 11.528C17.1598 11.6067 17.2071 11.6027 17.2564 11.634C17.2851 11.6707 17.3038 11.704 17.2544 11.7634C17.2078 11.8067 17.1751 11.8307 17.1278 11.8734ZM16.9998 15.3334H15.9998V15C15.9998 14.9116 15.9647 14.8269 15.9022 14.7643C15.8396 14.7018 15.7549 14.6667 15.6664 14.6667C15.578 14.6667 15.4933 14.7018 15.4307 14.7643C15.3682 14.8269 15.3331 14.9116 15.3331 15V15.3334H7.33312C7.33312 15.3334 7.33312 16 9.33312 16H15.3331V16.3334C15.3331 16.4218 15.3682 16.5066 15.4307 16.5691C15.4933 16.6316 15.578 16.6667 15.6664 16.6667C15.7549 16.6667 15.8396 16.6316 15.9022 16.5691C15.9647 16.5066 15.9998 16.4218 15.9998 16.3334V16H16.6664V16.3334C16.6664 16.4218 16.7016 16.5066 16.7641 16.5691C16.8266 16.6316 16.9114 16.6667 16.9998 16.6667C17.0882 16.6667 17.173 16.6316 17.2355 16.5691C17.298 16.5066 17.3331 16.4218 17.3331 16.3334V15.6667C17.3331 15.5783 17.298 15.4935 17.2355 15.431C17.173 15.3685 17.0882 15.3334 16.9998 15.3334Z" fill="white"/>
</g>
<defs>
<clipPath id="clip0_1805_23079">
<rect width="24" height="24" fill="white"/>
</clipPath>
</defs>
</svg>
