<svg width="40" height="40" viewBox="0 0 40 40" fill="none" xmlns="http://www.w3.org/2000/svg">
<rect width="40" height="40" rx="20" fill="white"/>
<rect x="1" y="1" width="38" height="38" rx="19" stroke="#2D2D2D" stroke-opacity="0.1" strokeWidth="2"/>
<path d="M31.6423 17.1855V16.376C31.6296 15.897 31.4307 15.4418 31.0877 15.1074C30.7448 14.773 30.2851 14.5859 29.8064 14.5859C29.3277 14.5859 28.868 14.773 28.525 15.1074C28.1821 15.4418 27.9831 15.897 27.9705 16.376V17.9886C27.9705 18.1307 27.9141 18.267 27.8137 18.3675C27.7134 18.4679 27.5773 18.5244 27.4353 18.5244C27.2934 18.5244 27.1573 18.4679 27.0569 18.3675C26.9565 18.267 26.9001 18.1307 26.9001 17.9886V15.2119C26.8809 14.1074 26.4291 13.0547 25.6421 12.2804C24.8551 11.5061 23.7959 11.0723 22.6925 11.0723C21.5892 11.0723 20.5299 11.5061 19.7429 12.2804C18.956 13.0547 18.5042 14.1074 18.4849 15.2119V17.9886C18.4849 18.1307 18.4285 18.267 18.3282 18.3675C18.2278 18.4679 18.0917 18.5244 17.9497 18.5244C17.8078 18.5244 17.6717 18.4679 17.5713 18.3675C17.471 18.267 17.4146 18.1307 17.4146 17.9886V15.2119C17.4146 14.0948 16.9713 13.0235 16.1824 12.2336C15.3934 11.4438 14.3234 11 13.2076 11C12.0919 11 11.0218 11.4438 10.2328 12.2336C9.44387 13.0235 9.00064 14.0948 9.00064 15.2119V20.3875C8.99416 20.633 9.03685 20.8772 9.1262 21.1059C9.21555 21.3346 9.34974 21.543 9.52086 21.719C9.69198 21.8949 9.89656 22.0347 10.1225 22.1301C10.3485 22.2256 10.5913 22.2748 10.8365 22.2748C11.0818 22.2748 11.3246 22.2256 11.5505 22.1301C11.7765 22.0347 11.9811 21.8949 12.1522 21.719C12.3233 21.543 12.4575 21.3346 12.5469 21.1059C12.6362 20.8772 12.6789 20.633 12.6724 20.3875V15.2119C12.6724 15.0698 12.7288 14.9335 12.8292 14.833C12.9295 14.7326 13.0657 14.6761 13.2076 14.6761C13.3495 14.6761 13.4857 14.7326 13.586 14.833C13.6864 14.9335 13.7428 15.0698 13.7428 15.2119V17.9886C13.7428 19.1057 14.186 20.177 14.975 20.9669C15.7639 21.7567 16.834 22.2005 17.9497 22.2005C19.0655 22.2005 20.1356 21.7567 20.9245 20.9669C21.7135 20.177 22.1567 19.1057 22.1567 17.9886V15.2119C22.1635 15.0742 22.2228 14.9443 22.3226 14.8492C22.4223 14.7541 22.5548 14.7011 22.6925 14.7011C22.8303 14.7011 22.9627 14.7541 23.0625 14.8492C23.1622 14.9443 23.2216 15.0742 23.2283 15.2119V17.9886C23.2273 18.5893 23.3548 19.1833 23.6023 19.7305C23.8498 20.2778 24.2115 20.7655 24.6632 21.161C25.1149 21.5565 25.646 21.8504 26.2207 22.0231C26.7954 22.1957 27.4004 22.2431 27.9949 22.1619V24.1214C27.9949 24.2635 27.9385 24.3998 27.8381 24.5003C27.7378 24.6008 27.6016 24.6572 27.4597 24.6572C27.3178 24.6572 27.1816 24.6008 27.0813 24.5003C26.9809 24.3998 26.9245 24.2635 26.9245 24.1214V23.9235C26.931 23.6781 26.8883 23.4338 26.799 23.2051C26.7096 22.9764 26.5754 22.768 26.4043 22.5921C26.2332 22.4162 26.0286 22.2764 25.8026 22.1809C25.5767 22.0854 25.3339 22.0363 25.0886 22.0363C24.8434 22.0363 24.6006 22.0854 24.3746 22.1809C24.1487 22.2764 23.9441 22.4162 23.773 22.5921C23.6018 22.768 23.4676 22.9764 23.3783 23.2051C23.2889 23.4338 23.2463 23.6781 23.2527 23.9235V24.1214C23.2527 25.2385 23.696 26.3098 24.4849 27.0997C25.2739 27.8896 26.3439 28.3333 27.4597 28.3333C28.5755 28.3333 29.6455 27.8896 30.4345 27.0997C31.2234 26.3098 31.6667 25.2385 31.6667 24.1214V17.4733C31.6657 17.3769 31.6576 17.2807 31.6423 17.1855Z" fill="#2D2D2D" fill-opacity="0.1"/>
<path d="M20.6022 25.986C21.6165 25.986 22.4387 25.1628 22.4387 24.1473C22.4387 23.1318 21.6165 22.3086 20.6022 22.3086C19.5879 22.3086 18.7656 23.1318 18.7656 24.1473C18.7656 25.1628 19.5879 25.986 20.6022 25.986Z" fill="#6EC531"/>
</svg>
