<svg width="117" height="32" viewBox="0 0 117 32" fill="none" xmlns="http://www.w3.org/2000/svg">
<path d="M58.03 13.5712C58.002 12.8168 58.16 12.0655 58.4946 11.3629C58.8292 10.6603 59.3333 10.021 59.9765 9.48371C60.6196 8.94646 61.3884 8.52244 62.2363 8.23736C63.0841 7.95228 63.9933 7.81206 64.9089 7.82521C66.2666 7.79476 67.6015 8.11816 68.7233 8.74938C69.8451 9.3806 70.6968 10.2875 71.1571 11.3409H70.3431C69.8851 10.4745 69.1225 9.74128 68.1538 9.23587C67.1851 8.73046 66.0548 8.47611 64.9089 8.50566C64.0981 8.49636 63.2934 8.62272 62.5435 8.87711C61.7936 9.1315 61.1141 9.50863 60.5461 9.98568C59.9781 10.4627 59.5334 11.0298 59.2389 11.6526C58.9444 12.2754 58.8061 12.9409 58.8326 13.609C58.8094 14.2764 58.9499 14.9408 59.2455 15.5624C59.5412 16.184 59.9861 16.75 60.5534 17.2265C61.1208 17.703 61.799 18.0802 62.5473 18.3355C63.2957 18.5908 64.099 18.719 64.9089 18.7124C66.0584 18.7387 67.1916 18.4834 68.165 17.9787C69.1385 17.4741 69.9085 16.7427 70.3775 15.8772H71.203C70.7255 16.9288 69.8633 17.832 68.7356 18.4619C67.608 19.0917 66.2707 19.4171 64.9089 19.3928C63.9867 19.4024 63.0718 19.2572 62.2199 18.966C61.368 18.6749 60.5968 18.2439 59.9533 17.6994C59.3098 17.1548 58.8075 16.508 58.4769 15.7983C58.1462 15.0886 57.9942 14.3309 58.03 13.5712Z" fill="#232773"/>
<path d="M64.909 19.8462C63.9128 19.8605 62.9233 19.7083 62.0005 19.3986C61.0776 19.0889 60.2405 18.6282 59.5397 18.0443C58.8389 17.4604 58.2889 16.7655 57.9231 16.0015C57.5572 15.2375 57.3831 14.4203 57.4111 13.5993C57.3831 12.7778 57.5572 11.9602 57.923 11.1956C58.2887 10.4311 58.8384 9.73562 59.5391 9.151C60.2397 8.56638 61.0767 8.10478 61.9996 7.79403C62.9226 7.48328 63.9122 7.32983 64.909 7.34291C66.3921 7.29733 67.8548 7.63802 69.0896 8.31661C70.3244 8.9952 71.2685 9.9772 71.7879 11.1232L72.0974 11.8036H69.9421L69.7816 11.5012C69.3713 10.7242 68.6876 10.0665 67.8189 9.61323C66.9503 9.16 65.9366 8.93209 64.909 8.95898C64.1794 8.95224 63.4557 9.06748 62.7816 9.29772C62.1075 9.52797 61.497 9.86845 60.9869 10.2986C60.4769 10.7288 60.0779 11.2397 59.8141 11.8005C59.5502 12.3612 59.427 12.9603 59.4518 13.5615C59.4286 14.1618 59.553 14.7599 59.8175 15.3195C60.0821 15.8792 60.4813 16.389 60.9912 16.8181C61.5011 17.2473 62.111 17.5869 62.7844 17.8166C63.4577 18.0462 64.1804 18.1612 64.909 18.1545C65.9453 18.1809 66.9673 17.95 67.8423 17.4916C68.7173 17.0332 69.405 16.3685 69.8159 15.5839L69.9879 15.2815H72.086L71.7764 15.9714C71.2635 17.1262 70.3261 18.1202 69.0951 18.8148C67.864 19.5094 66.4006 19.87 64.909 19.8462Z" fill="#232773"/>
<path d="M87.1507 8.04242V19.0997H86.4858L86.4055 16.2078C85.8598 17.159 84.9908 17.9592 83.904 18.5111C82.8173 19.0631 81.5595 19.3431 80.2834 19.3171C79.3683 19.3289 78.4598 19.1877 77.6127 18.9022C76.7656 18.6166 75.9975 18.1926 75.3546 17.6556C74.7118 17.1186 74.2076 16.4799 73.8724 15.7779C73.5373 15.0759 73.3781 14.3252 73.4045 13.5711C73.3765 12.8166 73.5345 12.0653 73.8691 11.3627C74.2037 10.6601 74.7078 10.0208 75.351 9.48355C75.9941 8.9463 76.7629 8.52228 77.6108 8.2372C78.4586 7.95212 79.3679 7.8119 80.2834 7.82505C81.5597 7.79787 82.8181 8.07736 83.9052 8.62944C84.9922 9.18152 85.861 9.98235 86.4055 10.9343L86.4858 8.04242H87.1507ZM86.3482 13.5711C86.3765 12.9052 86.2396 12.2415 85.9458 11.6208C85.6521 11 85.2077 10.4352 84.6399 9.961C84.0722 9.48677 83.3929 9.11307 82.6438 8.8628C81.8947 8.61253 81.0915 8.49094 80.2834 8.5055C79.473 8.49754 78.6691 8.62482 77.9199 8.87967C77.1708 9.13453 76.492 9.5117 75.9243 9.98848C75.3566 10.4653 74.9119 11.0318 74.6167 11.654C74.3216 12.2762 74.1823 12.9411 74.2071 13.6089C74.1806 14.277 74.3189 14.9425 74.6134 15.5653C74.9079 16.1881 75.3527 16.7552 75.9207 17.2322C76.4887 17.7093 77.1681 18.0864 77.918 18.3408C78.6679 18.5952 79.4726 18.7215 80.2834 18.7122C81.0995 18.7274 81.9107 18.6037 82.6663 18.3488C83.4218 18.0939 84.1055 17.7134 84.6747 17.2309C85.2438 16.7485 85.6861 16.1744 85.9741 15.5447C86.262 14.915 86.3894 14.2432 86.3482 13.5711Z" fill="#232773"/>
<path d="M80.248 19.8464C79.2542 19.8583 78.2677 19.7041 77.3482 19.3931C76.4286 19.0822 75.595 18.6209 74.8975 18.0372C74.2001 17.4534 73.6533 16.7593 73.2901 15.9966C72.927 15.2339 72.755 14.4185 72.7845 13.5995C72.7694 12.3481 73.2148 11.1222 74.062 10.0837C74.9092 9.04511 76.1183 8.24263 77.53 7.78206C78.9417 7.3215 80.4896 7.22448 81.9695 7.50381C83.4495 7.78314 84.7919 8.42569 85.8199 9.34672V7.56054H87.7116V19.6007H85.8543V17.8334C85.1513 18.4825 84.2863 18.9986 83.3186 19.346C82.3509 19.6935 81.3034 19.8642 80.248 19.8464ZM80.248 8.99704C79.5184 8.99031 78.7947 9.10554 78.1206 9.33579C77.4465 9.56604 76.836 9.90651 76.3259 10.3367C75.8159 10.7668 75.4169 11.2777 75.1531 11.8385C74.8892 12.3993 74.766 12.9984 74.7908 13.5995C74.7676 14.1999 74.892 14.7979 75.1565 15.3576C75.4211 15.9173 75.8203 16.4271 76.3302 16.8562C76.8401 17.2853 77.45 17.625 78.1233 17.8546C78.7966 18.0843 79.5194 18.1992 80.248 18.1926C80.9784 18.2061 81.7044 18.0958 82.3809 17.8684C83.0575 17.641 83.6701 17.3015 84.1807 16.8708C84.6914 16.4401 85.0892 15.9274 85.3495 15.3647C85.6098 14.802 85.7269 14.2011 85.6938 13.5995C85.7315 12.9976 85.6189 12.3957 85.363 11.831C85.1072 11.2664 84.7134 10.7511 84.2061 10.317C83.6988 9.88285 83.0888 9.5392 82.4139 9.30728C81.739 9.07537 81.0135 8.96013 80.2824 8.96869L80.248 8.99704Z" fill="#232773"/>
<path d="M90.7734 16.0659H91.553C91.7594 17.7197 93.3645 18.6743 95.8982 18.6743C98.4319 18.6743 100.152 17.6819 100.152 16.1509C100.152 14.2608 97.9733 13.9017 95.7606 13.5898C93.5479 13.2779 91.0371 12.9188 91.0371 10.7546C91.0371 9.00622 92.9632 7.81543 95.795 7.81543C98.6268 7.81543 100.461 8.99676 100.587 10.9058H99.8306C99.693 9.34644 98.214 8.42027 95.7835 8.42027C93.353 8.42027 91.8167 9.36534 91.8167 10.7451C91.8167 12.399 93.7543 12.6353 95.9326 12.9661C98.2828 13.2968 100.943 13.6843 100.943 16.1415C100.943 18.0316 98.9249 19.3075 95.8867 19.3075C92.8486 19.3075 90.9798 18.0978 90.7734 16.0659Z" fill="#232773"/>
<path d="M95.8867 19.846C92.5963 19.846 90.3951 18.4379 90.1543 16.1603V15.6121H92.1033L92.2179 16.0657C92.4587 17.9559 94.6599 18.2111 95.9554 18.2111C98.1681 18.2111 99.6012 17.4266 99.6012 16.1981C99.6012 14.7805 98.1337 14.4686 95.7147 14.1378C93.2956 13.807 90.4868 13.4007 90.4868 10.7923C90.4868 8.76038 92.688 7.34277 95.8523 7.34277C99.0165 7.34277 101.115 8.71312 101.264 10.9151V11.4538H99.2573V10.9813C99.1082 9.22346 97.0446 8.95884 95.8179 8.95884C93.7771 8.95884 92.4587 9.67709 92.4587 10.7828C92.4587 11.8885 93.6052 12.1626 96.0701 12.5123C98.363 12.8242 101.596 13.2683 101.596 16.1792C101.562 18.3434 99.2802 19.846 95.8867 19.846Z" fill="#232773"/>
<path d="M115.881 12.5504V19.0998H115.147V12.6638C115.147 10.0271 113.405 8.43939 110.561 8.43939C109.216 8.46131 107.933 8.913 106.983 9.69929C106.034 10.4856 105.491 11.545 105.471 12.6544V19.0998H104.6V4.12988H105.391V10.5374C105.868 9.72597 106.612 9.04138 107.538 8.5618C108.465 8.08221 109.536 7.82693 110.63 7.8251C113.863 7.8251 115.881 9.65853 115.881 12.5504Z" fill="#232773"/>
<path d="M116.5 19.6006H114.482V12.6638C114.482 10.3011 113.014 8.94019 110.481 8.94019C109.292 8.95719 108.158 9.35395 107.318 10.0468C106.477 10.7397 105.996 11.6746 105.975 12.6543V19.6006H103.992V3.62891H105.975V8.94019C106.569 8.43056 107.281 8.02416 108.069 7.74498C108.856 7.4658 109.704 7.31948 110.561 7.31467C114.127 7.31467 116.431 9.37492 116.431 12.5503L116.5 19.6006Z" fill="#232773"/>
<path d="M61.8708 25.2047H58.4314C58.437 25.5104 58.5664 25.8057 58.7991 26.0438C59.0318 26.2819 59.3544 26.449 59.7155 26.5185C60.0767 26.5881 60.4556 26.556 60.7922 26.4276C61.1287 26.2991 61.4035 26.0816 61.5728 25.8095H61.8021C61.6638 26.0913 61.4258 26.3321 61.119 26.5007C60.8123 26.6693 60.451 26.7578 60.0823 26.7546C59.5927 26.7236 59.1354 26.5414 58.8017 26.2444C58.4681 25.9474 58.2827 25.5575 58.2827 25.1527C58.2827 24.7479 58.4681 24.3581 58.8017 24.0611C59.1354 23.7641 59.5927 23.5818 60.0823 23.5508C60.3311 23.5493 60.5776 23.5896 60.8069 23.6691C61.0362 23.7486 61.2435 23.8658 61.4162 24.0134C61.5888 24.161 61.7232 24.3361 61.8113 24.5279C61.8993 24.7197 61.9391 24.9242 61.9282 25.1291C61.9282 25.1291 61.8708 25.1763 61.8708 25.2047ZM58.4314 25.0251H61.7103C61.7073 24.8514 61.6629 24.6798 61.5794 24.5202C61.496 24.3606 61.3752 24.2162 61.2241 24.0951C61.0729 23.9739 60.8942 23.8786 60.6983 23.8144C60.5024 23.7502 60.2931 23.7184 60.0823 23.7209C59.8666 23.7133 59.6513 23.7412 59.4488 23.8029C59.2462 23.8646 59.0606 23.9588 58.9027 24.0802C58.7448 24.2016 58.6178 24.3476 58.529 24.5098C58.4402 24.6721 58.3915 24.8472 58.3856 25.0251H58.4314Z" fill="#232773"/>
<path d="M66.3873 23.6265V26.7169H66.1924V25.9136C66.0394 26.1779 65.7964 26.3999 65.4932 26.5526C65.1899 26.7053 64.8394 26.7821 64.4842 26.7736C63.9946 26.7426 63.5372 26.5604 63.2036 26.2634C62.8699 25.9664 62.6846 25.5765 62.6846 25.1717C62.6846 24.7669 62.8699 24.3771 63.2036 24.0801C63.5372 23.7831 63.9946 23.6009 64.4842 23.5698C64.8406 23.5622 65.192 23.6404 65.4954 23.7948C65.7988 23.9492 66.041 24.1732 66.1924 24.4393V23.6265H66.3873ZM66.158 25.1765C66.1535 24.9003 66.0499 24.6313 65.8602 24.4036C65.6705 24.1759 65.4033 23.9996 65.0922 23.8969C64.7811 23.7942 64.4401 23.7698 64.1122 23.8266C63.7843 23.8835 63.4841 24.0191 63.2496 24.2164C63.015 24.4137 62.8566 24.6638 62.7943 24.9352C62.7319 25.2066 62.7685 25.4872 62.8993 25.7415C63.0301 25.9958 63.2494 26.2125 63.5294 26.3642C63.8094 26.5159 64.1376 26.5959 64.4727 26.5941C64.7009 26.5969 64.9273 26.5611 65.138 26.4887C65.3486 26.4163 65.5389 26.3089 65.697 26.1733C65.8551 26.0376 65.9776 25.8766 66.0569 25.7002C66.1362 25.5239 66.1707 25.3359 66.158 25.1481V25.1765Z" fill="#232773"/>
<path d="M67.3965 25.847H67.6143C67.6716 26.3101 68.1188 26.5747 68.8296 26.5747C69.5404 26.5747 69.976 26.3006 69.976 25.8659C69.976 25.4312 69.3684 25.2421 68.7493 25.1571C68.1302 25.072 67.4309 24.9681 67.4309 24.3632C67.4309 23.7584 67.9697 23.541 68.7608 23.541C69.5519 23.541 70.0678 23.8718 70.1022 24.401H69.8843C69.8843 23.9663 69.4372 23.7111 68.7379 23.7111C68.0385 23.7111 67.5914 23.9663 67.5914 24.3632C67.5914 24.7602 68.1302 24.8925 68.7379 24.9775C69.3455 25.0626 70.1251 25.176 70.1251 25.8659C70.1251 26.3951 69.5633 26.7448 68.7149 26.7448C67.8665 26.7448 67.4538 26.4046 67.3965 25.847Z" fill="#232773"/>
<path d="M74.2984 23.626L72.3838 26.9621C72.0284 27.5953 71.7074 27.7748 71.1112 27.7748H70.8131V27.6047H71.0883C71.6042 27.6047 71.8564 27.4819 72.2347 26.9054L72.4526 26.5179L70.6641 23.626H70.9048L72.5328 26.3383L74.0576 23.626H74.2984Z" fill="#232773"/>
<path d="M81.7736 23.626L80.4437 26.7163H80.2717L78.9991 24.0796L77.7265 26.7163H77.5546L76.2705 23.626H76.5113L77.6577 26.395L78.9533 23.7299H79.045L80.352 26.4045L81.4984 23.626H81.7736Z" fill="#232773"/>
<path d="M86.1188 23.6267V26.7171H85.9239V25.9138C85.7642 26.1759 85.5156 26.394 85.2082 26.5417C84.9008 26.6894 84.548 26.7602 84.1927 26.7455C83.7031 26.7144 83.2457 26.5322 82.9121 26.2352C82.5784 25.9382 82.3931 25.5484 82.3931 25.1436C82.3931 24.7388 82.5784 24.3489 82.9121 24.0519C83.2457 23.7549 83.7031 23.5727 84.1927 23.5417C84.5494 23.5329 84.9014 23.6105 85.2051 23.7651C85.5088 23.9197 85.7507 24.1443 85.9009 24.4112V23.5984L86.1188 23.6267ZM85.9009 25.1767C85.9032 24.9 85.8059 24.6291 85.6213 24.398C85.4368 24.167 85.1733 23.9862 84.8641 23.8787C84.5549 23.7711 84.214 23.7415 83.8844 23.7936C83.5548 23.8457 83.2514 23.9773 83.0125 24.1716C82.7736 24.3658 82.61 24.6142 82.5423 24.8851C82.4746 25.156 82.5059 25.4375 82.6322 25.6937C82.7585 25.95 82.9742 26.1697 83.252 26.3249C83.5297 26.4802 83.8571 26.564 84.1927 26.5659C84.4197 26.5712 84.6457 26.5381 84.8566 26.4686C85.0675 26.3991 85.2589 26.2947 85.419 26.1618C85.579 26.029 85.7044 25.8705 85.7873 25.6962C85.8702 25.5219 85.9089 25.3354 85.9009 25.1483V25.1767Z" fill="#232773"/>
<path d="M90.6011 23.626L88.698 26.9904C88.3311 27.6236 88.0101 27.8032 87.4139 27.8032H87.1158V27.6331H87.4025C87.9069 27.6331 88.1706 27.5102 88.5489 26.9337L88.7782 26.5462L86.9668 23.626H87.219L88.8356 26.3383L90.3604 23.626H90.6011Z" fill="#232773"/>
<path d="M92.8359 25.847H93.0538C93.0538 26.3101 93.5582 26.5747 94.269 26.5747C94.9798 26.5747 95.4155 26.3006 95.4155 25.8659C95.4155 25.4312 94.7964 25.2421 94.1888 25.1571C93.5811 25.072 92.8703 24.9681 92.8703 24.3632C92.8703 23.7584 93.3977 23.541 94.1888 23.541C94.9798 23.541 95.4957 23.8718 95.5301 24.401H95.3238C95.3238 23.9663 94.8652 23.7111 94.1773 23.7111C93.4894 23.7111 93.0308 23.9663 93.0308 24.3632C93.0308 24.7602 93.5697 24.8925 94.1773 24.9775C94.7849 25.0626 95.576 25.176 95.576 25.8659C95.576 26.3951 95.0028 26.7448 94.1658 26.7448C93.3289 26.7448 92.8933 26.4046 92.8359 25.847Z" fill="#232773"/>
<path d="M99.7383 23.626L97.8352 26.9621C97.4683 27.5953 97.1473 27.7748 96.5511 27.7748H96.253V27.6047H96.5397C97.0556 27.6047 97.3078 27.4819 97.6861 26.9054L97.9154 26.5179L96.104 23.626H96.3562L97.9498 26.31L99.509 23.626H99.7383Z" fill="#232773"/>
<path d="M100.152 25.847H100.37C100.37 26.3101 100.874 26.5747 101.585 26.5747C102.296 26.5747 102.731 26.3006 102.731 25.8659C102.731 25.4312 102.124 25.2421 101.505 25.1571C100.886 25.072 100.244 24.9681 100.244 24.3632C100.244 23.7584 100.782 23.541 101.573 23.541C102.365 23.541 102.88 23.8718 102.915 24.401H102.697C102.697 23.9663 102.25 23.7111 101.551 23.7111C100.851 23.7111 100.404 23.9663 100.404 24.3632C100.404 24.7602 100.943 24.8925 101.551 24.9775C102.158 25.0626 102.938 25.176 102.938 25.8659C102.938 26.3951 102.376 26.7448 101.528 26.7448C100.679 26.7448 100.244 26.4046 100.152 25.847Z" fill="#232773"/>
<path d="M105.838 26.5186V26.6887H105.356C105.202 26.7021 105.046 26.6868 104.899 26.6441C104.753 26.6013 104.62 26.5321 104.51 26.4415C104.4 26.351 104.316 26.2413 104.264 26.1206C104.212 25.9998 104.194 25.8711 104.21 25.7437V23.759H103.35V23.6267H104.21V22.6816H104.428V23.6267H105.792V23.7874H104.451V25.7626C104.437 25.8655 104.45 25.9698 104.491 26.0678C104.532 26.1658 104.599 26.2551 104.687 26.3292C104.774 26.4034 104.881 26.4605 104.999 26.4966C105.117 26.5326 105.243 26.5466 105.368 26.5375L105.838 26.5186Z" fill="#232773"/>
<path d="M109.953 25.2043H106.514C106.514 25.3838 106.557 25.5616 106.64 25.7273C106.724 25.8931 106.847 26.0435 107.001 26.17C107.156 26.2965 107.339 26.3965 107.541 26.4644C107.742 26.5322 107.958 26.5665 108.176 26.5652C108.484 26.5675 108.787 26.4976 109.048 26.3638C109.31 26.2299 109.521 26.0376 109.655 25.8092H109.896C109.745 26.0588 109.516 26.2708 109.233 26.4233C108.949 26.5758 108.622 26.6633 108.284 26.6768C107.946 26.6902 107.61 26.6292 107.31 26.4999C107.01 26.3706 106.758 26.1778 106.578 25.9412C106.399 25.7047 106.299 25.4331 106.29 25.1543C106.28 24.8755 106.361 24.5996 106.524 24.3551C106.686 24.1106 106.925 23.9062 107.216 23.7632C107.506 23.6201 107.838 23.5434 108.176 23.541C108.424 23.5408 108.669 23.582 108.897 23.6621C109.125 23.7422 109.331 23.8595 109.502 24.007C109.674 24.1545 109.807 24.3291 109.894 24.5203C109.982 24.7114 110.021 24.9152 110.01 25.1193L109.953 25.2043ZM106.514 25.0248H109.793C109.787 24.6755 109.613 24.3424 109.31 24.0981C109.008 23.8537 108.6 23.718 108.176 23.7206C107.959 23.713 107.743 23.7407 107.539 23.8021C107.335 23.8636 107.148 23.9576 106.988 24.0787C106.828 24.1999 106.699 24.3458 106.608 24.5081C106.517 24.6704 106.465 24.846 106.456 25.0248H106.514Z" fill="#232773"/>
<path d="M116.294 24.7418V26.6886H116.087V24.7985C116.087 24.1558 115.663 23.7306 115.021 23.7306C114.842 23.7323 114.666 23.7649 114.503 23.8262C114.34 23.8875 114.195 23.9762 114.076 24.0865C113.957 24.1969 113.868 24.3265 113.813 24.467C113.759 24.6075 113.741 24.7558 113.76 24.9024V26.7075H113.542V24.8174C113.542 24.1653 113.118 23.7495 112.464 23.7495C112.285 23.7512 112.109 23.7838 111.946 23.8451C111.783 23.9064 111.638 23.9951 111.519 24.1054C111.401 24.2158 111.311 24.3454 111.257 24.4859C111.202 24.6264 111.184 24.7747 111.203 24.9213V26.7264H110.985V23.6266H111.157V24.2598C111.268 24.0513 111.451 23.8745 111.684 23.7517C111.917 23.6289 112.188 23.5657 112.464 23.5699C112.739 23.567 113.006 23.6455 113.216 23.7912C113.427 23.937 113.567 24.1401 113.611 24.3638C113.706 24.1289 113.89 23.9252 114.135 23.7825C114.38 23.6397 114.675 23.5652 114.975 23.5699C115.159 23.565 115.342 23.5926 115.511 23.6509C115.681 23.7093 115.833 23.797 115.958 23.9081C116.083 24.0192 116.178 24.1511 116.236 24.2949C116.294 24.4387 116.313 24.5911 116.294 24.7418Z" fill="#232773"/>
<path d="M51.2658 11.416V9.92281C51.2658 9.02298 50.8321 8.16001 50.0603 7.52374C49.2884 6.88747 48.2415 6.53001 47.1499 6.53001C46.0583 6.53001 45.0115 6.88747 44.2396 7.52374C43.4677 8.16001 43.0341 9.02298 43.0341 9.92281V12.8998C43.0341 13.163 42.9073 13.4154 42.6815 13.6014C42.4558 13.7875 42.1496 13.8921 41.8303 13.8921C41.511 13.8921 41.2048 13.7875 40.9791 13.6014C40.7533 13.4154 40.6265 13.163 40.6265 12.8998V7.7775C40.6707 6.73391 40.4594 5.69367 40.0054 4.71881C39.5514 3.74396 38.8639 2.85444 37.9839 2.1033C37.1039 1.35217 36.0495 0.754787 34.8834 0.346786C33.7173 -0.0612153 32.4635 -0.271484 31.1968 -0.271484C29.93 -0.271484 28.6762 -0.0612153 27.5101 0.346786C26.3441 0.754787 25.2896 1.35217 24.4096 2.1033C23.5296 2.85444 22.8421 3.74396 22.3881 4.71881C21.9341 5.69367 21.7229 6.73391 21.767 7.7775V12.8998C21.767 13.1617 21.6408 13.4129 21.4161 13.5981C21.1915 13.7833 20.8867 13.8874 20.569 13.8874C20.2512 13.8874 19.9465 13.7833 19.7218 13.5981C19.4971 13.4129 19.3709 13.1617 19.3709 12.8998V7.7775C19.3709 5.71467 18.3768 3.73633 16.6073 2.27769C14.8378 0.819051 12.4379 -0.000404745 9.93546 -0.000404745C7.43302 -0.000404745 5.03307 0.819051 3.26358 2.27769C1.49409 3.73633 0.5 5.71467 0.5 7.7775L0.5 17.3321C0.5 18.232 0.933631 19.0949 1.7055 19.7312C2.47737 20.3675 3.52425 20.7249 4.61583 20.7249C5.70742 20.7249 6.7543 20.3675 7.52617 19.7312C8.29803 19.0949 8.73167 18.232 8.73167 17.3321V7.7775C8.73167 7.64781 8.76265 7.51939 8.82286 7.39957C8.88307 7.27975 8.97132 7.17087 9.08257 7.07917C9.19382 6.98746 9.32589 6.91472 9.47125 6.86508C9.6166 6.81545 9.7724 6.78991 9.92973 6.78991C10.0871 6.78991 10.2429 6.81545 10.3882 6.86508C10.5336 6.91472 10.6656 6.98746 10.7769 7.07917C10.8881 7.17087 10.9764 7.27975 11.0366 7.39957C11.0968 7.51939 11.1278 7.64781 11.1278 7.7775V12.8998C11.1278 14.9626 12.1219 16.9409 13.8914 18.3996C15.6609 19.8582 18.0608 20.6777 20.5633 20.6777C23.0657 20.6777 25.4656 19.8582 27.2351 18.3996C29.0046 16.9409 29.9987 14.9626 29.9987 12.8998V7.7775C29.9987 7.51558 30.1249 7.26438 30.3496 7.07917C30.5743 6.89396 30.879 6.78991 31.1968 6.78991C31.5145 6.78991 31.8193 6.89396 32.0439 7.07917C32.2686 7.26438 32.3948 7.51558 32.3948 7.7775V12.8998C32.3979 14.9618 33.3929 16.9387 35.1618 18.3968C36.9306 19.8549 39.3288 20.6752 41.8303 20.6777C42.2523 20.6764 42.6737 20.6512 43.0914 20.6021V24.2217C43.0914 24.4849 42.9646 24.7373 42.7388 24.9234C42.5131 25.1095 42.2069 25.214 41.8876 25.214C41.5684 25.214 41.2622 25.1095 41.0364 24.9234C40.8107 24.7373 40.6838 24.4849 40.6838 24.2217V23.8531C40.6838 23.4076 40.5774 22.9664 40.3705 22.5547C40.1637 22.1431 39.8605 21.7691 39.4783 21.454C39.0961 21.139 38.6424 20.8891 38.1431 20.7186C37.6437 20.5481 37.1085 20.4603 36.568 20.4603C36.0275 20.4603 35.4923 20.5481 34.9929 20.7186C34.4936 20.8891 34.0398 21.139 33.6577 21.454C33.2755 21.7691 32.9723 22.1431 32.7655 22.5547C32.5586 22.9664 32.4522 23.4076 32.4522 23.8531V24.2217C32.4522 26.2845 33.4463 28.2629 35.2157 29.7215C36.9852 31.1801 39.3852 31.9996 41.8876 31.9996C44.3901 31.9996 46.79 31.1801 48.5595 29.7215C50.329 28.2629 51.3231 26.2845 51.3231 24.2217V11.9358C51.3204 11.7616 51.3012 11.5878 51.2658 11.416Z" fill="#232773"/>
<path d="M26.5138 27.6616C28.7869 27.6616 30.6296 26.1426 30.6296 24.2688C30.6296 22.395 28.7869 20.876 26.5138 20.876C24.2407 20.876 22.3979 22.395 22.3979 24.2688C22.3979 26.1426 24.2407 27.6616 26.5138 27.6616Z" fill="#6EC531"/>
</svg>
