<svg width="43" height="13" viewBox="0 0 43 13" fill="none" xmlns="http://www.w3.org/2000/svg">
<g clip-path="url(#clip0_596_71679)">
<path d="M21.3271 5.7301C21.3168 5.43252 21.3748 5.13618 21.4978 4.85905C21.6208 4.58191 21.8061 4.32975 22.0424 4.11784C22.2788 3.90593 22.5614 3.73868 22.873 3.62623C23.1846 3.51379 23.5187 3.45848 23.8552 3.46367C24.3542 3.45165 24.8448 3.57922 25.2571 3.82819C25.6694 4.07717 25.9824 4.43486 26.1516 4.85037H25.8524C25.6841 4.50865 25.4038 4.21943 25.0478 4.02008C24.6917 3.82073 24.2763 3.7204 23.8552 3.73206C23.5572 3.72839 23.2615 3.77823 22.9859 3.87857C22.7103 3.97891 22.4606 4.12767 22.2518 4.31583C22.0431 4.504 21.8796 4.72767 21.7714 4.97332C21.6631 5.21897 21.6123 5.48149 21.622 5.74501C21.6135 6.00825 21.6651 6.27031 21.7738 6.51549C21.8825 6.76066 22.046 6.98391 22.2545 7.17186C22.463 7.35981 22.7122 7.5086 22.9873 7.6093C23.2623 7.71001 23.5575 7.76057 23.8552 7.75796C24.2777 7.76835 24.6941 7.66765 25.0519 7.46858C25.4097 7.26952 25.6927 6.98104 25.8651 6.63965H26.1684C25.9929 7.05444 25.676 7.41071 25.2616 7.65914C24.8472 7.90758 24.3557 8.03591 23.8552 8.02635C23.5163 8.03012 23.18 7.97284 22.8669 7.85801C22.5538 7.74317 22.2704 7.57318 22.0339 7.35838C21.7974 7.14358 21.6128 6.88845 21.4913 6.60853C21.3698 6.3286 21.3139 6.02973 21.3271 5.7301Z" fill="#232773"/>
<path d="M23.8554 8.20578C23.4892 8.21145 23.1256 8.1514 22.7864 8.02924C22.4472 7.90709 22.1396 7.72537 21.882 7.49507C21.6244 7.26476 21.4223 6.99066 21.2879 6.68931C21.1534 6.38796 21.0894 6.06563 21.0997 5.74178C21.0894 5.41776 21.1534 5.09526 21.2878 4.79371C21.4222 4.49217 21.6243 4.21782 21.8818 3.98723C22.1393 3.75663 22.4469 3.57456 22.7861 3.45199C23.1253 3.32942 23.489 3.26889 23.8554 3.27406C24.4004 3.25608 24.938 3.39046 25.3918 3.65812C25.8456 3.92578 26.1926 4.31311 26.3835 4.76513L26.4972 5.03352H25.7051L25.6461 4.91424C25.4953 4.60774 25.2441 4.34832 24.9248 4.16955C24.6055 3.99078 24.233 3.90088 23.8554 3.91149C23.5872 3.90883 23.3212 3.95429 23.0735 4.0451C22.8257 4.13592 22.6013 4.27022 22.4139 4.43989C22.2264 4.60955 22.0798 4.81107 21.9828 5.03227C21.8859 5.25347 21.8406 5.48976 21.8497 5.72687C21.8412 5.96368 21.8869 6.19956 21.9841 6.42033C22.0813 6.64109 22.2281 6.84215 22.4155 7.01142C22.6029 7.18068 22.827 7.31464 23.0745 7.40523C23.3219 7.49582 23.5876 7.54116 23.8554 7.53853C24.2362 7.54895 24.6118 7.45785 24.9334 7.27704C25.255 7.09623 25.5077 6.83407 25.6587 6.5246L25.7219 6.40531H26.493L26.3793 6.67743C26.1908 7.13292 25.8462 7.525 25.3938 7.79898C24.9414 8.07296 24.4035 8.21517 23.8554 8.20578Z" fill="#232773"/>
<path d="M32.0295 3.54934V7.91073H31.7851L31.7556 6.77006C31.5551 7.14526 31.2357 7.46087 30.8363 7.67858C30.4369 7.89628 29.9746 8.00671 29.5056 7.99647C29.1693 8.00112 28.8354 7.94545 28.5241 7.83282C28.2128 7.72019 27.9304 7.55293 27.6942 7.34112C27.4579 7.12932 27.2726 6.87737 27.1494 6.60048C27.0263 6.32358 26.9678 6.02748 26.9775 5.73004C26.9672 5.43245 27.0253 5.13612 27.1482 4.85898C27.2712 4.58185 27.4565 4.32968 27.6928 4.11777C27.9292 3.90586 28.2118 3.73862 28.5234 3.62617C28.835 3.51372 29.1691 3.45842 29.5056 3.4636C29.9747 3.45288 30.4372 3.56312 30.8367 3.78088C31.2362 3.99864 31.5555 4.31452 31.7556 4.69001L31.7851 3.54934H32.0295ZM31.7346 5.73004C31.745 5.46738 31.6946 5.20562 31.5867 4.96077C31.4787 4.71593 31.3154 4.49315 31.1067 4.3061C30.8981 4.11905 30.6484 3.97165 30.3731 3.87293C30.0978 3.77421 29.8026 3.72626 29.5056 3.732C29.2078 3.72886 28.9123 3.77906 28.637 3.87959C28.3617 3.98011 28.1122 4.12888 27.9036 4.31694C27.6949 4.505 27.5315 4.72845 27.423 4.97387C27.3145 5.21928 27.2633 5.48157 27.2724 5.74495C27.2627 6.00846 27.3135 6.27098 27.4218 6.51663C27.53 6.76228 27.6935 6.98596 27.9022 7.17412C28.111 7.36229 28.3607 7.51104 28.6363 7.61138C28.9119 7.71172 29.2076 7.76156 29.5056 7.7579C29.8056 7.76387 30.1037 7.71507 30.3814 7.61454C30.6591 7.51401 30.9103 7.3639 31.1195 7.17361C31.3287 6.98331 31.4912 6.7569 31.5971 6.50853C31.7029 6.26015 31.7497 5.99513 31.7346 5.73004Z" fill="#232773"/>
<path d="M29.4927 8.20535C29.1275 8.21002 28.7649 8.1492 28.427 8.02655C28.089 7.9039 27.7826 7.72196 27.5263 7.49171C27.27 7.26146 27.069 6.98766 26.9356 6.68683C26.8021 6.386 26.7389 6.06438 26.7497 5.74135C26.7442 5.24773 26.9079 4.76421 27.2192 4.35457C27.5306 3.94493 27.975 3.6284 28.4938 3.44674C29.0126 3.26507 29.5815 3.22681 30.1254 3.33698C30.6693 3.44716 31.1627 3.7006 31.5405 4.06389V3.35936H32.2357V8.10843H31.5531V7.41135C31.2948 7.66739 30.9769 7.87092 30.6212 8.00798C30.2656 8.14503 29.8806 8.21237 29.4927 8.20535ZM29.4927 3.92597C29.2246 3.92331 28.9586 3.96876 28.7108 4.05958C28.4631 4.1504 28.2387 4.2847 28.0513 4.45436C27.8638 4.62403 27.7172 4.82555 27.6202 5.04675C27.5233 5.26794 27.478 5.50424 27.4871 5.74135C27.4786 5.97816 27.5243 6.21404 27.6215 6.4348C27.7187 6.65556 27.8655 6.85663 28.0528 7.0259C28.2402 7.19516 28.4644 7.32912 28.7119 7.41971C28.9593 7.5103 29.2249 7.55564 29.4927 7.553C29.7612 7.55836 30.028 7.51484 30.2766 7.42515C30.5253 7.33547 30.7504 7.20152 30.9381 7.03164C31.1258 6.86176 31.272 6.65956 31.3676 6.4376C31.4633 6.21564 31.5064 5.97865 31.4942 5.74135C31.508 5.50392 31.4667 5.2665 31.3726 5.04379C31.2786 4.82108 31.1338 4.61781 30.9474 4.44659C30.761 4.27536 30.5368 4.13981 30.2888 4.04834C30.0407 3.95686 29.7741 3.91141 29.5054 3.91478L29.4927 3.92597Z" fill="#232773"/>
<path d="M33.3611 6.71423H33.6476C33.7234 7.36657 34.3133 7.74307 35.2445 7.74307C36.1757 7.74307 36.8078 7.35166 36.8078 6.74778C36.8078 6.00224 36.0072 5.86059 35.194 5.73758C34.3808 5.61456 33.458 5.47291 33.458 4.61927C33.458 3.92965 34.1659 3.45996 35.2066 3.45996C36.2474 3.45996 36.9215 3.92592 36.9679 4.67891H36.6898C36.6392 4.06385 36.0957 3.69853 35.2024 3.69853C34.3091 3.69853 33.7445 4.0713 33.7445 4.61554C33.7445 5.26789 34.4566 5.36108 35.2572 5.49155C36.1209 5.62202 37.0985 5.77485 37.0985 6.74405C37.0985 7.48959 36.3569 7.99282 35.2403 7.99282C34.1237 7.99282 33.4369 7.51568 33.3611 6.71423Z" fill="#232773"/>
<path d="M35.2403 8.20516C34.031 8.20516 33.222 7.64974 33.1335 6.75137V6.53516H33.8498L33.892 6.71409C33.9805 7.45963 34.7895 7.56027 35.2656 7.56027C36.0788 7.56027 36.6055 7.25087 36.6055 6.76628C36.6055 6.20712 36.0662 6.08411 35.1771 5.95364C34.2881 5.82317 33.2557 5.66288 33.2557 4.63404C33.2557 3.83259 34.0647 3.27344 35.2277 3.27344C36.3906 3.27344 37.1617 3.81395 37.2165 4.6825V4.89498H36.4791V4.7086C36.4243 4.01525 35.6659 3.91087 35.215 3.91087C34.465 3.91087 33.9805 4.19418 33.9805 4.63031C33.9805 5.06645 34.4018 5.17456 35.3077 5.31248C36.1504 5.43549 37.3386 5.61069 37.3386 6.75882C37.326 7.61246 36.4875 8.20516 35.2403 8.20516Z" fill="#232773"/>
<path d="M42.5885 5.32723V7.91051H42.3188V5.37196C42.3188 4.33193 41.6784 3.70568 40.6334 3.70568C40.1389 3.71433 39.6674 3.89249 39.3184 4.20263C38.9694 4.51277 38.7702 4.93066 38.7626 5.36823V7.91051H38.4424V2.00586H38.7331V4.53323C38.9085 4.21315 39.182 3.94313 39.5225 3.75396C39.8629 3.5648 40.2567 3.46411 40.6587 3.46338C41.8469 3.46338 42.5885 4.18655 42.5885 5.32723Z" fill="#232773"/>
<path d="M42.816 8.10838H42.0744V5.37226C42.0744 4.44034 41.535 3.90355 40.6039 3.90355C40.167 3.91026 39.7502 4.06676 39.4413 4.34005C39.1324 4.61335 38.9555 4.98209 38.9479 5.36853V8.10838H38.219V1.80859H38.9479V3.90355C39.1662 3.70254 39.4279 3.54224 39.7173 3.43212C40.0068 3.322 40.3183 3.26429 40.6333 3.26239C41.9438 3.26239 42.7907 4.07503 42.7907 5.32753L42.816 8.10838Z" fill="#232773"/>
<path d="M22.7386 10.3194H21.4746C21.4766 10.4399 21.5242 10.5564 21.6097 10.6503C21.6952 10.7442 21.8138 10.8101 21.9465 10.8376C22.0792 10.865 22.2185 10.8524 22.3422 10.8017C22.4659 10.751 22.5669 10.6652 22.6291 10.5579H22.7134C22.6625 10.6691 22.5751 10.7641 22.4623 10.8306C22.3496 10.897 22.2168 10.9319 22.0813 10.9307C21.9014 10.9185 21.7333 10.8466 21.6107 10.7294C21.488 10.6123 21.4199 10.4585 21.4199 10.2988C21.4199 10.1392 21.488 9.98541 21.6107 9.86827C21.7333 9.75112 21.9014 9.67924 22.0813 9.66701C22.1727 9.66642 22.2634 9.6823 22.3476 9.71367C22.4319 9.74503 22.5081 9.79124 22.5715 9.84947C22.635 9.9077 22.6844 9.97674 22.7167 10.0524C22.7491 10.128 22.7637 10.2087 22.7597 10.2895C22.7597 10.2895 22.7386 10.3082 22.7386 10.3194ZM21.4746 10.2485H22.6796C22.6785 10.18 22.6622 10.1123 22.6315 10.0494C22.6009 9.98643 22.5565 9.92944 22.5009 9.88167C22.4454 9.8339 22.3797 9.79628 22.3077 9.77096C22.2357 9.74564 22.1588 9.73312 22.0813 9.73411C22.0021 9.73111 21.9229 9.7421 21.8485 9.76643C21.774 9.79076 21.7058 9.82794 21.6478 9.87581C21.5898 9.92368 21.5431 9.98129 21.5104 10.0453C21.4778 10.1093 21.4599 10.1784 21.4577 10.2485H21.4746Z" fill="#232773"/>
<path d="M24.3984 9.69639V10.9153H24.3268V10.5985C24.2706 10.7028 24.1813 10.7903 24.0698 10.8505C23.9584 10.9108 23.8295 10.941 23.699 10.9377C23.5191 10.9255 23.351 10.8536 23.2283 10.7365C23.1057 10.6193 23.0376 10.4655 23.0376 10.3059C23.0376 10.1462 23.1057 9.99243 23.2283 9.87529C23.351 9.75814 23.5191 9.68626 23.699 9.67403C23.83 9.67103 23.9591 9.70186 24.0706 9.76277C24.1821 9.82368 24.2712 9.91202 24.3268 10.017V9.69639H24.3984ZM24.3142 10.3077C24.3125 10.1988 24.2744 10.0927 24.2047 10.0029C24.135 9.91309 24.0368 9.84354 23.9224 9.80304C23.8081 9.76254 23.6828 9.75289 23.5623 9.77532C23.4418 9.79774 23.3314 9.85124 23.2452 9.92905C23.159 10.0069 23.1008 10.1055 23.0779 10.2126C23.055 10.3196 23.0684 10.4303 23.1165 10.5306C23.1646 10.6309 23.2452 10.7164 23.3481 10.7762C23.451 10.8361 23.5716 10.8676 23.6948 10.8669C23.7786 10.868 23.8619 10.8539 23.9393 10.8253C24.0167 10.7968 24.0866 10.7544 24.1447 10.7009C24.2028 10.6474 24.2479 10.5839 24.277 10.5143C24.3062 10.4448 24.3188 10.3706 24.3142 10.2966V10.3077Z" fill="#232773"/>
<path d="M24.7695 10.5726H24.8496C24.8707 10.7553 25.035 10.8597 25.2962 10.8597C25.5575 10.8597 25.7176 10.7516 25.7176 10.5801C25.7176 10.4086 25.4943 10.3341 25.2667 10.3005C25.0392 10.267 24.7822 10.226 24.7822 9.98739C24.7822 9.74882 24.9802 9.66309 25.2709 9.66309C25.5617 9.66309 25.7513 9.79355 25.7639 10.0023H25.6839C25.6839 9.83083 25.5195 9.73018 25.2625 9.73018C25.0055 9.73018 24.8412 9.83083 24.8412 9.98739C24.8412 10.144 25.0392 10.1961 25.2625 10.2297C25.4858 10.2632 25.7724 10.308 25.7724 10.5801C25.7724 10.7888 25.5659 10.9268 25.2541 10.9268C24.9423 10.9268 24.7906 10.7926 24.7695 10.5726Z" fill="#232773"/>
<path d="M27.3061 9.69727L26.6025 11.0131C26.4719 11.2629 26.3539 11.3337 26.1348 11.3337H26.0252V11.2666H26.1264C26.316 11.2666 26.4087 11.2182 26.5477 10.9908L26.6278 10.8379L25.9705 9.69727H26.0589L26.6573 10.7671L27.2177 9.69727H27.3061Z" fill="#232773"/>
<path d="M30.0535 9.69727L29.5647 10.9162H29.5015L29.0338 9.87619L28.5661 10.9162H28.5029L28.031 9.69727H28.1195L28.5408 10.7895L29.017 9.73827H29.0507L29.531 10.7932L29.9524 9.69727H30.0535Z" fill="#232773"/>
<path d="M31.6503 9.6969V10.9159H31.5787V10.599C31.52 10.7024 31.4286 10.7884 31.3156 10.8467C31.2027 10.9049 31.073 10.9328 30.9424 10.927C30.7625 10.9148 30.5944 10.8429 30.4718 10.7258C30.3491 10.6086 30.281 10.4549 30.281 10.2952C30.281 10.1355 30.3491 9.98176 30.4718 9.86461C30.5944 9.74747 30.7625 9.67559 30.9424 9.66335C31.0735 9.65987 31.2029 9.69051 31.3145 9.75147C31.4261 9.81244 31.515 9.90104 31.5702 10.0063V9.68572L31.6503 9.6969ZM31.5702 10.3082C31.5711 10.1991 31.5353 10.0923 31.4675 10.0011C31.3996 9.90999 31.3028 9.8387 31.1892 9.79626C31.0755 9.75383 30.9502 9.74215 30.8291 9.76272C30.708 9.78328 30.5965 9.83516 30.5087 9.91179C30.4209 9.98842 30.3607 10.0864 30.3359 10.1932C30.311 10.3001 30.3225 10.4111 30.3689 10.5122C30.4153 10.6133 30.4946 10.6999 30.5967 10.7612C30.6988 10.8224 30.8191 10.8555 30.9424 10.8562C31.0259 10.8583 31.1089 10.8452 31.1864 10.8178C31.2639 10.7904 31.3343 10.7492 31.3931 10.6968C31.4519 10.6444 31.498 10.5819 31.5285 10.5132C31.5589 10.4444 31.5731 10.3709 31.5702 10.2971V10.3082Z" fill="#232773"/>
<path d="M33.2976 9.69727L32.5982 11.0243C32.4633 11.2741 32.3453 11.3449 32.1262 11.3449H32.0167V11.2778H32.122C32.3074 11.2778 32.4043 11.2293 32.5434 11.002L32.6277 10.8491L31.9619 9.69727H32.0546L32.6487 10.7671L33.2091 9.69727H33.2976Z" fill="#232773"/>
<path d="M34.1191 10.5726H34.1992C34.1992 10.7553 34.3846 10.8597 34.6458 10.8597C34.9071 10.8597 35.0672 10.7516 35.0672 10.5801C35.0672 10.4086 34.8397 10.3341 34.6163 10.3005C34.393 10.267 34.1318 10.226 34.1318 9.98739C34.1318 9.74882 34.3256 9.66309 34.6163 9.66309C34.9071 9.66309 35.0967 9.79355 35.1093 10.0023H35.0335C35.0335 9.83083 34.8649 9.73018 34.6121 9.73018C34.3593 9.73018 34.1908 9.83083 34.1908 9.98739C34.1908 10.144 34.3888 10.1961 34.6121 10.2297C34.8354 10.2632 35.1262 10.308 35.1262 10.5801C35.1262 10.7888 34.9155 10.9268 34.6079 10.9268C34.3003 10.9268 34.1402 10.7926 34.1191 10.5726Z" fill="#232773"/>
<path d="M36.6558 9.69727L35.9563 11.0131C35.8215 11.2629 35.7035 11.3337 35.4844 11.3337H35.3748V11.2666H35.4802C35.6698 11.2666 35.7625 11.2182 35.9015 10.9908L35.9858 10.8379L35.3201 9.69727H35.4128L35.9984 10.7559L36.5715 9.69727H36.6558Z" fill="#232773"/>
<path d="M36.8076 10.5726H36.8877C36.8877 10.7553 37.0731 10.8597 37.3343 10.8597C37.5955 10.8597 37.7557 10.7516 37.7557 10.5801C37.7557 10.4086 37.5323 10.3341 37.3048 10.3005C37.0773 10.267 36.8413 10.226 36.8413 9.98739C36.8413 9.74882 37.0394 9.66309 37.3301 9.66309C37.6208 9.66309 37.8104 9.79355 37.8231 10.0023H37.743C37.743 9.83083 37.5787 9.73018 37.3217 9.73018C37.0646 9.73018 36.9003 9.83083 36.9003 9.98739C36.9003 10.144 37.0984 10.1961 37.3217 10.2297C37.545 10.2632 37.8315 10.308 37.8315 10.5801C37.8315 10.7888 37.625 10.9268 37.3132 10.9268C37.0014 10.9268 36.8413 10.7926 36.8076 10.5726Z" fill="#232773"/>
<path d="M38.8977 10.8377V10.9048H38.7208C38.664 10.91 38.6066 10.904 38.5527 10.8871C38.4989 10.8703 38.45 10.843 38.4096 10.8073C38.3692 10.7715 38.3384 10.7283 38.3193 10.6807C38.3003 10.633 38.2935 10.5822 38.2994 10.532V9.74917H37.9834V9.69699H38.2994V9.32422H38.3795V9.69699H38.8809V9.76036H38.3879V10.5394C38.3827 10.5801 38.3878 10.6212 38.4028 10.6598C38.4178 10.6985 38.4423 10.7337 38.4746 10.763C38.5068 10.7922 38.546 10.8147 38.5893 10.829C38.6326 10.8432 38.679 10.8487 38.725 10.8451L38.8977 10.8377Z" fill="#232773"/>
<path d="M40.4098 10.3192H39.1458C39.1458 10.39 39.1616 10.4601 39.1924 10.5254C39.2231 10.5908 39.2682 10.6502 39.325 10.7C39.3818 10.7499 39.4492 10.7894 39.5233 10.8162C39.5974 10.8429 39.6767 10.8564 39.7567 10.8559C39.8699 10.8568 39.9811 10.8293 40.0773 10.7765C40.1735 10.7237 40.2509 10.6478 40.3003 10.5577H40.3888C40.3333 10.6562 40.2492 10.7398 40.1451 10.8C40.041 10.8601 39.9206 10.8946 39.7964 10.8999C39.6722 10.9052 39.5487 10.8812 39.4385 10.8302C39.3283 10.7792 39.2355 10.7031 39.1695 10.6098C39.1036 10.5165 39.067 10.4094 39.0635 10.2994C39.06 10.1894 39.0897 10.0806 39.1495 9.98419C39.2093 9.88774 39.2971 9.80715 39.4038 9.75071C39.5106 9.69427 39.6324 9.66402 39.7567 9.66309C39.8478 9.66301 39.938 9.67926 40.0217 9.71085C40.1055 9.74244 40.1812 9.78872 40.2442 9.8469C40.3072 9.90508 40.3562 9.97394 40.3883 10.0493C40.4204 10.1247 40.4349 10.2051 40.4309 10.2856L40.4098 10.3192ZM39.1458 10.2483H40.3508C40.3486 10.1106 40.2849 9.97918 40.1736 9.88281C40.0623 9.78644 39.9125 9.73291 39.7567 9.73391C39.677 9.73091 39.5975 9.74185 39.5225 9.76609C39.4476 9.79033 39.3789 9.8274 39.3202 9.87518C39.2614 9.92296 39.214 9.98051 39.1804 10.0445C39.1469 10.1086 39.128 10.1778 39.1247 10.2483H39.1458Z" fill="#232773"/>
<path d="M42.7402 10.1363V10.9042H42.6643V10.1586C42.6643 9.90517 42.5084 9.73742 42.2725 9.73742C42.2067 9.73812 42.1418 9.75098 42.082 9.77516C42.0222 9.79934 41.9688 9.83431 41.9251 9.87783C41.8815 9.92135 41.8486 9.97246 41.8286 10.0279C41.8086 10.0833 41.8019 10.1418 41.809 10.1997V10.9116H41.7289V10.1661C41.7289 9.90889 41.573 9.74488 41.3329 9.74488C41.2671 9.74558 41.2022 9.75843 41.1424 9.78261C41.0826 9.80679 41.0292 9.84177 40.9855 9.88529C40.9419 9.92881 40.909 9.97992 40.889 10.0353C40.869 10.0908 40.8623 10.1493 40.8694 10.2071V10.9191H40.7893V9.69642H40.8525V9.94617C40.8933 9.86392 40.9606 9.79419 41.0461 9.74576C41.1316 9.69734 41.2314 9.67238 41.3329 9.67405C41.4338 9.6729 41.5319 9.70388 41.6093 9.76136C41.6866 9.81883 41.7381 9.89897 41.7542 9.98718C41.7892 9.89454 41.8567 9.81421 41.9469 9.75789C42.0371 9.70157 42.1452 9.67219 42.2556 9.67405C42.3231 9.6721 42.3903 9.683 42.4527 9.70601C42.515 9.72902 42.5711 9.76361 42.617 9.80743C42.6629 9.85125 42.6977 9.90329 42.719 9.96002C42.7402 10.0168 42.7474 10.0769 42.7402 10.1363Z" fill="#232773"/>
<path d="M18.8411 4.88047V4.2915C18.8411 3.93658 18.6817 3.59619 18.398 3.34522C18.1144 3.09425 17.7296 2.95326 17.3284 2.95326C16.9273 2.95326 16.5425 3.09425 16.2588 3.34522C15.9751 3.59619 15.8158 3.93658 15.8158 4.2915V5.46572C15.8158 5.56953 15.7692 5.66908 15.6862 5.74249C15.6032 5.81589 15.4907 5.85713 15.3734 5.85713C15.256 5.85713 15.1435 5.81589 15.0605 5.74249C14.9776 5.66908 14.9309 5.56953 14.9309 5.46572V3.44531C14.9472 3.03368 14.8695 2.62338 14.7027 2.23886C14.5358 1.85434 14.2832 1.50348 13.9597 1.20721C13.6363 0.910933 13.2488 0.675306 12.8202 0.514376C12.3917 0.353445 11.9309 0.270508 11.4653 0.270508C10.9998 0.270508 10.539 0.353445 10.1104 0.514376C9.68184 0.675306 9.29431 0.910933 8.97089 1.20721C8.64748 1.50348 8.39481 1.85434 8.22795 2.23886C8.06109 2.62338 7.98346 3.03368 7.99969 3.44531V5.46572C7.99969 5.56903 7.9533 5.66811 7.87072 5.74117C7.78815 5.81422 7.67615 5.85526 7.55937 5.85526C7.44259 5.85526 7.3306 5.81422 7.24802 5.74117C7.16545 5.66811 7.11906 5.56903 7.11906 5.46572V3.44531C7.11906 2.63166 6.75371 1.85133 6.10338 1.27599C5.45306 0.700654 4.57103 0.377431 3.65133 0.377431C2.73163 0.377431 1.8496 0.700654 1.19927 1.27599C0.548943 1.85133 0.183594 2.63166 0.183594 3.44531L0.183594 7.214C0.183594 7.56893 0.342962 7.90931 0.626641 8.16028C0.910319 8.41125 1.29507 8.55224 1.69625 8.55224C2.09743 8.55224 2.48218 8.41125 2.76586 8.16028C3.04954 7.90931 3.20891 7.56893 3.20891 7.214V3.44531C3.20891 3.39416 3.2203 3.3435 3.24242 3.29624C3.26455 3.24898 3.29698 3.20604 3.33787 3.16987C3.37876 3.13369 3.4273 3.105 3.48072 3.08542C3.53414 3.06585 3.5914 3.05577 3.64922 3.05577C3.70704 3.05577 3.7643 3.06585 3.81772 3.08542C3.87114 3.105 3.91968 3.13369 3.96057 3.16987C4.00146 3.20604 4.03389 3.24898 4.05602 3.29624C4.07814 3.3435 4.08953 3.39416 4.08953 3.44531V5.46572C4.08953 6.27937 4.45488 7.0597 5.10521 7.63504C5.75554 8.21038 6.63757 8.5336 7.55727 8.5336C8.47697 8.5336 9.359 8.21038 10.0093 7.63504C10.6596 7.0597 11.025 6.27937 11.025 5.46572V3.44531C11.025 3.342 11.0714 3.24292 11.154 3.16987C11.2365 3.09681 11.3485 3.05577 11.4653 3.05577C11.5821 3.05577 11.6941 3.09681 11.7767 3.16987C11.8592 3.24292 11.9056 3.342 11.9056 3.44531V5.46572C11.9067 6.27907 12.2724 7.05882 12.9225 7.63395C13.5726 8.20908 14.454 8.53262 15.3734 8.5336C15.5284 8.53311 15.6833 8.52314 15.8368 8.50378V9.93148C15.8368 10.0353 15.7902 10.1348 15.7073 10.2082C15.6243 10.2817 15.5118 10.3229 15.3944 10.3229C15.2771 10.3229 15.1646 10.2817 15.0816 10.2082C14.9986 10.1348 14.952 10.0353 14.952 9.93148V9.7861C14.952 9.61036 14.9129 9.43635 14.8369 9.27398C14.7608 9.11162 14.6494 8.96409 14.509 8.83983C14.3685 8.71556 14.2017 8.61699 14.0182 8.54973C13.8347 8.48248 13.638 8.44787 13.4394 8.44787C13.2407 8.44787 13.044 8.48248 12.8605 8.54973C12.677 8.61699 12.5102 8.71556 12.3697 8.83983C12.2293 8.96409 12.1179 9.11162 12.0418 9.27398C11.9658 9.43635 11.9267 9.61036 11.9267 9.7861V9.93148C11.9267 10.7451 12.292 11.5255 12.9424 12.1008C13.5927 12.6761 14.4747 12.9994 15.3944 12.9994C16.3141 12.9994 17.1962 12.6761 17.8465 12.1008C18.4968 11.5255 18.8622 10.7451 18.8622 9.93148V5.0855C18.8612 5.01677 18.8541 4.94823 18.8411 4.88047Z" fill="#232773"/>
<path d="M9.74435 11.2888C10.5798 11.2888 11.257 10.6896 11.257 9.95054C11.257 9.21145 10.5798 8.6123 9.74435 8.6123C8.90893 8.6123 8.23169 9.21145 8.23169 9.95054C8.23169 10.6896 8.90893 11.2888 9.74435 11.2888Z" fill="#6EC531"/>
</g>
<defs>
<clipPath id="clip0_596_71679">
<rect width="43" height="13" fill="white"/>
</clipPath>
</defs>
</svg>
