<svg width="398" height="304" viewBox="0 0 398 304" fill="none" xmlns="http://www.w3.org/2000/svg">
<g opacity="0.2">
<path d="M395.44 288.908H15.2183V303.452H395.44V288.908Z" fill="#BBBCD4"/>
<path opacity="0.5" d="M395.44 288.908H15.2183V303.452H395.44V288.908Z" fill="white"/>
<path d="M104.882 132.474C103.023 133.04 101.197 133.698 99.413 134.447C100.388 133.783 101.363 133.092 102.338 132.392C106.678 129.137 110.809 125.647 114.71 121.939C110.133 126.084 105.246 129.921 100.086 133.42C100.797 132.267 101.422 131.071 101.958 129.838C102.932 127.575 103.108 125.293 100.797 124.084C97.9408 122.593 94.4896 124.82 95.3963 128.629C95.9497 130.755 97.028 132.732 98.5453 134.401C95.1777 136.575 91.6603 138.54 88.0161 140.283L87.6748 140.446C88.4452 139.202 89.1259 137.911 89.7124 136.583C90.6289 134.329 90.8628 132.038 88.5425 130.838C85.686 129.338 82.2347 131.574 83.1512 135.383C83.6953 137.481 84.7493 139.434 86.2319 141.092C81.8545 143.101 77.3308 144.81 72.8267 146.664L72.1735 146.937C73.0526 146.056 73.8699 145.124 74.6205 144.146C76.0829 142.146 76.8726 139.983 74.9228 138.301C72.5245 136.228 68.5955 137.647 68.537 141.574C68.5396 143.741 69.0802 145.878 70.1164 147.818C65.9015 149.655 61.8969 151.884 58.1638 154.473L58.0468 154.563C58.5517 153.817 59.0138 153.046 59.4312 152.255C60.5329 150.064 60.9423 147.809 58.7195 146.437C58.2678 146.147 57.7516 145.957 57.2096 145.88C56.6677 145.803 56.1141 145.842 55.5905 145.993C55.0669 146.145 54.5869 146.405 54.1866 146.754C53.7863 147.103 53.4761 147.532 53.2794 148.009C52.9863 147.583 52.5887 147.228 52.1192 146.973C49.8866 145.773 47.6931 147.073 45.8114 148.909C45.324 149.391 44.8365 149.909 44.4173 150.418C45.8688 146.662 47.6933 143.041 49.8671 139.601C51.9373 140.444 54.1695 140.886 56.4284 140.901C60.8741 140.901 62.7459 137.447 60.5621 135.301C58.7877 133.565 56.2919 134.229 53.9326 135.501C53.1557 135.924 52.4039 136.385 51.6805 136.883C53.9406 133.709 56.5054 130.733 59.3434 127.993C61.2031 129.395 63.3642 130.409 65.6805 130.965C69.9994 131.956 72.7097 129.038 71.1498 126.466C69.8824 124.375 67.2501 124.457 64.6665 125.157C63.4299 125.501 62.2185 125.92 61.0398 126.411C62.2195 125.338 63.4381 124.311 64.6763 123.293C66.2947 122.002 67.9715 120.757 69.6777 119.539C71.5121 120.904 73.635 121.892 75.9074 122.439C80.2264 123.429 82.9367 120.511 81.3768 117.939C80.1094 115.848 77.4771 115.93 74.8838 116.63C74.2793 116.794 73.6651 116.994 73.0704 117.203C75.3225 115.703 77.6038 114.239 79.8949 112.785L82.0105 111.43C83.9169 112.919 86.1548 113.994 88.562 114.576C92.8809 115.566 95.601 112.648 94.0411 110.076C92.764 107.985 90.1414 108.067 87.5481 108.767C86.5277 109.058 85.5235 109.394 84.5356 109.776L85.842 108.867C86.6414 108.331 87.4408 107.785 88.2208 107.212C89.1957 106.531 90.1219 105.776 91.0676 105.049C91.6135 104.649 92.1302 104.222 92.647 103.785C94.561 105.29 96.8134 106.374 99.2375 106.958C103.556 107.949 106.267 105.031 104.707 102.458C103.439 100.367 100.807 100.449 98.2235 101.149C96.7747 101.567 95.3551 102.068 93.9729 102.649C95.7375 101.122 97.4436 99.5312 99.062 97.8768C99.1692 97.7586 99.2667 97.6404 99.3837 97.5313C100.076 96.8132 100.758 96.086 101.421 95.3315C102.084 94.577 102.942 93.5862 103.664 92.6771C106.626 89.0513 109.065 85.0782 110.917 80.8598C108.976 85.0281 106.455 88.9402 103.42 92.4953C100.418 96.0654 97.0657 99.3672 93.4074 102.358L93.0077 102.676C93.8387 101.357 94.5748 99.9873 95.211 98.5767C96.1372 96.3223 96.3614 94.0316 94.0411 92.8317C91.1943 91.3318 87.7333 93.568 88.6498 97.3768C89.2384 99.6322 90.4137 101.718 92.0717 103.449L91.2138 104.14L90.2389 104.922C89.6734 105.349 89.0885 105.758 88.5035 106.167C88.1915 106.385 87.8893 106.612 87.5286 106.831C86.6999 107.403 85.8615 107.958 85.0133 108.503L83.7946 109.276L82.4102 110.185C83.2194 108.897 83.9296 107.558 84.5356 106.176C85.4617 103.913 85.686 101.631 83.3754 100.431C80.5189 98.9312 77.0579 101.167 77.9743 104.976C78.5395 107.164 79.6595 109.193 81.2403 110.894L80.2654 111.512L76.4729 113.83L75.7222 114.285L73.6066 115.603L72.6902 116.175C71.7153 116.803 70.7403 117.439 69.7654 118.093C70.5488 116.785 71.2329 115.427 71.8128 114.03C72.7877 111.776 72.9632 109.485 70.6526 108.285C67.7961 106.785 64.3448 109.021 65.2612 112.83C65.8339 115.047 66.9785 117.101 68.5955 118.812C66.9381 119.948 65.3002 121.111 63.7209 122.329C62.5607 123.239 61.42 124.148 60.2989 125.129C60.7873 124.287 61.2235 123.419 61.6053 122.529C62.5217 120.266 62.7557 117.984 60.4354 116.784C57.5788 115.285 54.1276 117.521 55.044 121.33C55.5881 123.427 56.6422 125.381 58.1248 127.038C54.9672 129.964 52.1232 133.17 49.6332 136.61C49.9159 135.618 50.1308 134.61 50.2766 133.592C50.5886 131.192 50.2181 128.938 47.6541 128.284C44.4953 127.475 41.7265 130.42 43.6081 133.929C44.6905 135.86 46.239 137.531 48.1318 138.81C45.6759 142.55 43.625 146.509 42.0092 150.627C41.9671 149.766 41.8759 148.907 41.7362 148.055C41.2975 145.664 40.2641 143.601 37.6026 143.646C34.3268 143.71 32.5622 147.282 35.4382 150.137C36.972 151.628 38.8441 152.78 40.9173 153.509C39.8085 156.688 38.9067 159.927 38.2168 163.208C38.0998 163.726 38.012 164.245 37.9048 164.763C37.7878 164.863 37.6708 164.963 37.5636 165.072C37.4466 164.626 37.3101 164.163 37.1541 163.735C36.3351 161.445 34.9702 159.545 32.3477 159.981C29.1304 160.508 27.9703 164.272 31.285 166.699C32.9696 167.898 34.9116 168.744 36.9786 169.181C36.9786 169.271 37.0566 169.353 37.1053 169.444C36.7446 171.908 36.4716 174.389 36.3059 176.88C36.1792 178.698 36.1109 180.598 36.0719 182.461C33.2836 182.461 31.3143 185.316 33.2349 188.406C34.0453 189.688 35.0838 190.831 36.3059 191.788C36.5399 195.288 36.9104 198.787 37.4076 202.26C37.0133 201.92 36.5308 201.682 36.0077 201.568C35.4846 201.455 34.9388 201.471 34.4243 201.615C32.6694 202.06 31.8797 203.378 31.597 204.996C30.9725 205.599 30.623 206.403 30.6221 207.241C29.3157 205.423 28.0775 203.605 26.8784 201.687C28.7089 200.379 30.2264 198.729 31.3338 196.842C33.4299 193.206 31.0608 190.015 28.0093 190.788C25.5135 191.424 24.9675 193.788 25.0845 196.324C25.1235 197.286 25.2211 198.245 25.377 199.197L24.0901 197.088C23.0176 195.27 22.1402 193.451 21.0873 191.633C20.8338 191.188 20.6096 190.724 20.4048 190.27C22.4588 189.305 24.2749 187.952 25.7377 186.297C28.5357 183.08 26.8491 179.543 23.6903 179.771C21.1165 179.962 20.0929 182.189 19.6639 184.698C19.4967 185.791 19.3926 186.893 19.3519 187.997L18.4355 186.025C16.4836 181.55 14.8774 176.951 13.6291 172.262C15.9539 171.494 18.0656 170.252 19.8101 168.626C22.9396 165.672 21.643 162.008 18.4745 161.936C15.9007 161.881 14.643 163.999 13.9411 166.481C13.597 167.798 13.3398 169.134 13.1709 170.48C12.4884 167.79 11.9035 165.063 11.416 162.299C11.0845 160.608 10.87 158.89 10.6458 157.181C13.1447 156.72 15.4983 155.734 17.5288 154.3C21.0385 151.755 20.2683 147.937 17.1291 147.509C14.5845 147.137 13.0441 149.091 12.0107 151.446C11.4057 152.93 10.8978 154.448 10.4898 155.991C10.2948 154.009 10.0706 152.018 9.97311 150.027C9.68064 145.917 9.68064 141.793 9.97311 137.683C9.52806 141.79 9.37498 145.92 9.51489 150.046C9.51489 151.945 9.69038 153.836 9.81712 155.736C9.26016 154.445 8.60867 153.19 7.86726 151.982C6.54136 149.9 4.76699 148.346 2.31018 149.255C-0.721849 150.418 -0.98508 154.327 2.81714 156.036C5.0472 156.991 7.49344 157.425 9.94386 157.3C10.1193 158.999 10.2753 160.69 10.5483 162.372C10.9285 165.099 11.416 167.717 11.9912 170.362C11.3673 169.349 10.6737 168.374 9.91461 167.444C8.30598 165.544 6.33663 164.199 4.06504 165.426C1.228 166.944 1.50099 170.88 5.50794 172.089C7.77531 172.746 10.1768 172.896 12.5177 172.526C13.63 177.265 15.0926 181.928 16.8951 186.479L17.4703 187.843C16.9545 187.206 16.3978 186.599 15.8032 186.025C13.9996 184.279 11.9035 183.125 9.72937 184.57C7.06782 186.388 7.77952 190.206 11.8742 191.061C14.134 191.487 16.4687 191.425 18.6987 190.879C18.9034 191.343 19.1082 191.788 19.3519 192.261C20.3268 194.133 21.1945 196.051 22.2182 197.888L23.0664 199.478C22.5594 199.069 22.033 198.678 21.487 198.315C19.3617 196.924 17.0608 196.16 15.228 197.951C12.9661 200.16 14.4285 203.833 18.6402 203.951C20.8329 203.998 23.0098 203.595 25.0162 202.769C26.2251 204.805 27.4633 206.814 28.8087 208.787C29.3059 209.541 29.7836 210.287 30.3491 211.032C29.5843 210.38 28.7768 209.773 27.9313 209.214C25.8059 207.823 23.5051 207.06 21.6625 208.85C19.4104 211.059 20.8728 214.732 25.0845 214.85C27.4917 214.877 29.8711 214.369 32.026 213.368C32.7279 214.277 33.4494 215.186 34.1903 216.095C32.6207 217.795 33.1374 220.64 36.3254 221.94C37.8738 222.542 39.5241 222.884 41.2 222.949C41.395 223.095 41.59 223.24 41.8045 223.377L41.902 223.449C43.9168 230.467 46.3054 237.382 49.0677 244.193C50.2376 247.093 51.4953 249.965 52.7919 252.82H41.0928V295.835H76.8434V252.783H57.8128C56.1847 249.466 54.615 246.111 53.1526 242.721C50.7641 237.157 48.5997 231.503 46.7181 225.767C47.0383 225.855 47.3639 225.925 47.6931 225.976C48.1261 226.058 48.5701 226.077 49.0092 226.031L48.5022 223.04H48.161C47.9577 223.013 47.7559 222.977 47.5566 222.931C47.1062 222.811 46.6662 222.659 46.2404 222.477L45.7334 222.258C47.615 221.647 49.3623 220.723 50.8908 219.531C54.2738 216.804 53.3184 213.077 50.1596 212.759C47.6053 212.495 46.1624 214.514 45.285 216.904C45.0218 217.586 44.8073 218.295 44.622 218.986C44.4368 218.35 44.2516 217.713 44.0761 217.077C43.5594 215.195 43.1011 213.295 42.6332 211.396C44.6751 210.802 46.5728 209.841 48.2195 208.569C51.6025 205.841 50.6373 202.124 47.4883 201.805C44.9243 201.542 43.4911 203.56 42.6137 205.951C42.3505 206.641 42.1262 207.36 41.9312 208.069C41.6388 206.687 41.356 205.296 41.0928 203.905C40.9076 202.878 40.7321 201.842 40.5663 200.805C40.5078 199.333 40.4786 197.86 40.4981 196.379C40.4981 195.569 40.4981 194.76 40.5761 193.951C42.4875 194.515 44.4922 194.752 46.4939 194.651C50.9396 194.379 52.5774 190.833 50.2571 188.825C48.3658 187.179 45.9187 187.997 43.6471 189.397C42.6284 190.043 41.6518 190.744 40.7223 191.497C40.9961 188.037 41.56 184.603 42.4089 181.225C42.9064 179.236 43.5282 177.275 44.2711 175.353C46.3095 176.008 48.4648 176.289 50.6178 176.18C55.0635 175.916 56.7014 172.371 54.3811 170.353C52.4995 168.717 50.0426 169.526 47.771 170.935C46.9781 171.443 46.2164 171.992 45.4897 172.58C46.347 170.7 47.3438 168.877 48.473 167.126C50.7123 163.593 53.5203 160.401 56.7989 157.663C58.4979 159.125 60.5075 160.236 62.6972 160.927C66.9284 162.217 69.8629 159.49 68.5468 156.818C67.4451 154.645 64.8518 154.545 62.1805 155.063C61.1511 155.268 60.1354 155.529 59.1387 155.845L59.2069 155.791C62.8449 153.144 66.7652 150.853 70.9061 148.955C72.367 150.738 74.2224 152.208 76.3462 153.264C80.3044 155.163 83.6679 152.909 82.7904 150.073C82.0787 147.764 79.5342 147.282 76.8141 147.346C75.7458 147.4 74.6815 147.509 73.6261 147.673C78.023 145.737 82.5077 143.91 86.8364 141.773H86.9339C88.8718 143.333 91.171 144.454 93.6511 145.046C97.9701 146.046 100.68 143.119 99.1205 140.501C97.8531 138.41 95.2208 138.501 92.6372 139.192C91.906 139.392 91.1748 139.637 90.4631 139.892C93.3539 138.325 96.1557 136.62 98.8573 134.783L99.0815 135.01V134.892C101.039 136.466 103.357 137.601 105.857 138.21C110.166 139.201 112.886 136.283 111.327 133.665C110.098 131.692 107.505 131.774 104.882 132.474ZM36.7154 214.841C35.8282 213.877 34.9897 212.868 34.1708 211.85C34.3658 211.686 34.5803 211.505 34.7948 211.305C36.013 211.659 37.2739 211.869 38.5482 211.932V212.123L39.1429 212.005C39.4549 213.441 39.7766 214.868 40.1179 216.295C39.7217 215.812 39.2043 215.426 38.611 215.173C38.0178 214.919 37.3669 214.805 36.7154 214.841ZM39.8936 180.616C39.5914 181.689 39.3379 182.761 39.0942 183.843L38.948 183.652C38.948 181.434 38.9837 179.222 39.0552 177.016C39.1234 175.471 39.2404 173.935 39.3867 172.389C40.1888 173.151 41.0706 173.836 42.019 174.435C41.1938 176.458 40.4876 178.521 39.9034 180.616H39.8936ZM43.8908 170.435C43.9493 170.035 43.9981 169.626 44.0176 169.226V168.617C44.3685 168.517 44.7293 168.399 45.0802 168.262C44.6903 168.981 44.2808 169.708 43.9006 170.435H43.8908ZM48.9702 162.754C48.8018 162.394 48.5568 162.07 48.2501 161.801C47.9434 161.533 47.5815 161.325 47.1861 161.19C44.778 160.281 42.8282 161.917 41.278 164.008L41.2 164.108H41.044C40.8806 164.074 40.7142 164.052 40.5468 164.045C40.5353 163.917 40.5588 163.789 40.6151 163.672C41.2323 160.388 42.0658 157.143 43.1109 153.954C45.3489 154.219 47.6214 154.055 49.7892 153.473C51.1284 153.145 52.2933 152.372 53.0649 151.3C53.494 153.133 54.3128 154.867 55.473 156.4C53.0745 158.302 50.8981 160.435 48.98 162.763L48.9702 162.754Z" fill="#BBBCD4"/>
<path opacity="0.3" d="M104.882 132.474C103.023 133.04 101.197 133.698 99.413 134.447C100.388 133.783 101.363 133.092 102.338 132.392C106.678 129.137 110.809 125.647 114.71 121.939C110.133 126.084 105.246 129.921 100.086 133.42C100.797 132.267 101.422 131.071 101.958 129.838C102.932 127.575 103.108 125.293 100.797 124.084C97.9408 122.593 94.4896 124.82 95.3963 128.629C95.9497 130.755 97.028 132.732 98.5453 134.401C95.1777 136.575 91.6603 138.54 88.0161 140.283L87.6748 140.446C88.4452 139.202 89.1259 137.911 89.7124 136.583C90.6289 134.329 90.8628 132.038 88.5425 130.838C85.686 129.338 82.2347 131.574 83.1512 135.383C83.6953 137.481 84.7493 139.434 86.2319 141.092C81.8545 143.101 77.3308 144.81 72.8267 146.664L72.1735 146.937C73.0526 146.056 73.8699 145.124 74.6205 144.146C76.0829 142.146 76.8726 139.983 74.9228 138.301C72.5245 136.228 68.5955 137.647 68.537 141.574C68.5396 143.741 69.0802 145.878 70.1164 147.818C65.9015 149.655 61.8969 151.884 58.1638 154.473L58.0468 154.563C58.5517 153.817 59.0138 153.046 59.4312 152.255C60.5329 150.064 60.9423 147.809 58.7195 146.437C58.2678 146.147 57.7516 145.957 57.2096 145.88C56.6677 145.803 56.1141 145.842 55.5905 145.993C55.0669 146.145 54.5869 146.405 54.1866 146.754C53.7863 147.103 53.4761 147.532 53.2794 148.009C52.9863 147.583 52.5887 147.228 52.1192 146.973C49.8866 145.773 47.6931 147.073 45.8114 148.909C45.324 149.391 44.8365 149.909 44.4173 150.418C45.8688 146.662 47.6933 143.041 49.8671 139.601C51.9373 140.444 54.1695 140.886 56.4284 140.901C60.8741 140.901 62.7459 137.447 60.5621 135.301C58.7877 133.565 56.2919 134.229 53.9326 135.501C53.1557 135.924 52.4039 136.385 51.6805 136.883C53.9406 133.709 56.5054 130.733 59.3434 127.993C61.2031 129.395 63.3642 130.409 65.6805 130.965C69.9994 131.956 72.7097 129.038 71.1498 126.466C69.8824 124.375 67.2501 124.457 64.6665 125.157C63.4299 125.501 62.2185 125.92 61.0398 126.411C62.2195 125.338 63.4381 124.311 64.6763 123.293C66.2947 122.002 67.9715 120.757 69.6777 119.539C71.5121 120.904 73.635 121.892 75.9074 122.439C80.2264 123.429 82.9367 120.511 81.3768 117.939C80.1094 115.848 77.4771 115.93 74.8838 116.63C74.2793 116.794 73.6651 116.994 73.0704 117.203C75.3225 115.703 77.6038 114.239 79.8949 112.785L82.0105 111.43C83.9169 112.919 86.1548 113.994 88.562 114.576C92.8809 115.566 95.601 112.648 94.0411 110.076C92.764 107.985 90.1414 108.067 87.5481 108.767C86.5277 109.058 85.5235 109.394 84.5356 109.776L85.842 108.867C86.6414 108.331 87.4408 107.785 88.2208 107.212C89.1957 106.531 90.1219 105.776 91.0676 105.049C91.6135 104.649 92.1302 104.222 92.647 103.785C94.561 105.29 96.8134 106.374 99.2375 106.958C103.556 107.949 106.267 105.031 104.707 102.458C103.439 100.367 100.807 100.449 98.2235 101.149C96.7747 101.567 95.3551 102.068 93.9729 102.649C95.7375 101.122 97.4436 99.5312 99.062 97.8768C99.1692 97.7586 99.2667 97.6404 99.3837 97.5313C100.076 96.8132 100.758 96.086 101.421 95.3315C102.084 94.577 102.942 93.5862 103.664 92.6771C106.626 89.0513 109.065 85.0782 110.917 80.8598C108.976 85.0281 106.455 88.9402 103.42 92.4953C100.418 96.0654 97.0657 99.3672 93.4074 102.358L93.0077 102.676C93.8387 101.357 94.5748 99.9873 95.211 98.5767C96.1372 96.3223 96.3614 94.0316 94.0411 92.8317C91.1943 91.3318 87.7333 93.568 88.6498 97.3768C89.2384 99.6322 90.4137 101.718 92.0717 103.449L91.2138 104.14L90.2389 104.922C89.6734 105.349 89.0885 105.758 88.5035 106.167C88.1915 106.385 87.8893 106.612 87.5286 106.831C86.6999 107.403 85.8615 107.958 85.0133 108.503L83.7946 109.276L82.4102 110.185C83.2194 108.897 83.9296 107.558 84.5356 106.176C85.4617 103.913 85.686 101.631 83.3754 100.431C80.5189 98.9312 77.0579 101.167 77.9743 104.976C78.5395 107.164 79.6595 109.193 81.2403 110.894L80.2654 111.512L76.4729 113.83L75.7222 114.285L73.6066 115.603L72.6902 116.175C71.7153 116.803 70.7403 117.439 69.7654 118.093C70.5488 116.785 71.2329 115.427 71.8128 114.03C72.7877 111.776 72.9632 109.485 70.6526 108.285C67.7961 106.785 64.3448 109.021 65.2612 112.83C65.8339 115.047 66.9785 117.101 68.5955 118.812C66.9381 119.948 65.3002 121.111 63.7209 122.329C62.5607 123.239 61.42 124.148 60.2989 125.129C60.7873 124.287 61.2235 123.419 61.6053 122.529C62.5217 120.266 62.7557 117.984 60.4354 116.784C57.5788 115.285 54.1276 117.521 55.044 121.33C55.5881 123.427 56.6422 125.381 58.1248 127.038C54.9672 129.964 52.1232 133.17 49.6332 136.61C49.9159 135.618 50.1308 134.61 50.2766 133.592C50.5886 131.192 50.2181 128.938 47.6541 128.284C44.4953 127.475 41.7265 130.42 43.6081 133.929C44.6905 135.86 46.239 137.531 48.1318 138.81C45.6759 142.55 43.625 146.509 42.0092 150.627C41.9671 149.766 41.8759 148.907 41.7362 148.055C41.2975 145.664 40.2641 143.601 37.6026 143.646C34.3268 143.71 32.5622 147.282 35.4382 150.137C36.972 151.628 38.8441 152.78 40.9173 153.509C39.8085 156.688 38.9067 159.927 38.2168 163.208C38.0998 163.726 38.012 164.245 37.9048 164.763C37.7878 164.863 37.6708 164.963 37.5636 165.072C37.4466 164.626 37.3101 164.163 37.1541 163.735C36.3351 161.445 34.9702 159.545 32.3477 159.981C29.1304 160.508 27.9703 164.272 31.285 166.699C32.9696 167.898 34.9116 168.744 36.9786 169.181C36.9786 169.271 37.0566 169.353 37.1053 169.444C36.7446 171.908 36.4716 174.389 36.3059 176.88C36.1792 178.698 36.1109 180.598 36.0719 182.461C33.2836 182.461 31.3143 185.316 33.2349 188.406C34.0453 189.688 35.0838 190.831 36.3059 191.788C36.5399 195.288 36.9104 198.787 37.4076 202.26C37.0133 201.92 36.5308 201.682 36.0077 201.568C35.4846 201.455 34.9388 201.471 34.4243 201.615C32.6694 202.06 31.8797 203.378 31.597 204.996C30.9725 205.599 30.623 206.403 30.6221 207.241C29.3157 205.423 28.0775 203.605 26.8784 201.687C28.7089 200.379 30.2264 198.729 31.3338 196.842C33.4299 193.206 31.0608 190.015 28.0093 190.788C25.5135 191.424 24.9675 193.788 25.0845 196.324C25.1235 197.286 25.2211 198.245 25.377 199.197L24.0901 197.088C23.0176 195.27 22.1402 193.451 21.0873 191.633C20.8338 191.188 20.6096 190.724 20.4048 190.27C22.4588 189.305 24.2749 187.952 25.7377 186.297C28.5357 183.08 26.8491 179.543 23.6903 179.771C21.1165 179.962 20.0929 182.189 19.6639 184.698C19.4967 185.791 19.3926 186.893 19.3519 187.997L18.4355 186.025C16.4836 181.55 14.8774 176.951 13.6291 172.262C15.9539 171.494 18.0656 170.252 19.8101 168.626C22.9396 165.672 21.643 162.008 18.4745 161.936C15.9007 161.881 14.643 163.999 13.9411 166.481C13.597 167.798 13.3398 169.134 13.1709 170.48C12.4884 167.79 11.9035 165.063 11.416 162.299C11.0845 160.608 10.87 158.89 10.6458 157.181C13.1447 156.72 15.4983 155.734 17.5288 154.3C21.0385 151.755 20.2683 147.937 17.1291 147.509C14.5845 147.137 13.0441 149.091 12.0107 151.446C11.4057 152.93 10.8978 154.448 10.4898 155.991C10.2948 154.009 10.0706 152.018 9.97311 150.027C9.68064 145.917 9.68064 141.793 9.97311 137.683C9.52806 141.79 9.37498 145.92 9.51489 150.046C9.51489 151.945 9.69038 153.836 9.81712 155.736C9.26016 154.445 8.60867 153.19 7.86726 151.982C6.54136 149.9 4.76699 148.346 2.31018 149.255C-0.721849 150.418 -0.98508 154.327 2.81714 156.036C5.0472 156.991 7.49344 157.425 9.94386 157.3C10.1193 158.999 10.2753 160.69 10.5483 162.372C10.9285 165.099 11.416 167.717 11.9912 170.362C11.3673 169.349 10.6737 168.374 9.91461 167.444C8.30598 165.544 6.33663 164.199 4.06504 165.426C1.228 166.944 1.50099 170.88 5.50794 172.089C7.77531 172.746 10.1768 172.896 12.5177 172.526C13.63 177.265 15.0926 181.928 16.8951 186.479L17.4703 187.843C16.9545 187.206 16.3978 186.599 15.8032 186.025C13.9996 184.279 11.9035 183.125 9.72937 184.57C7.06782 186.388 7.77952 190.206 11.8742 191.061C14.134 191.487 16.4687 191.425 18.6987 190.879C18.9034 191.343 19.1082 191.788 19.3519 192.261C20.3268 194.133 21.1945 196.051 22.2182 197.888L23.0664 199.478C22.5594 199.069 22.033 198.678 21.487 198.315C19.3617 196.924 17.0608 196.16 15.228 197.951C12.9661 200.16 14.4285 203.833 18.6402 203.951C20.8329 203.998 23.0098 203.595 25.0162 202.769C26.2251 204.805 27.4633 206.814 28.8087 208.787C29.3059 209.541 29.7836 210.287 30.3491 211.032C29.5843 210.38 28.7768 209.773 27.9313 209.214C25.8059 207.823 23.5051 207.06 21.6625 208.85C19.4104 211.059 20.8728 214.732 25.0845 214.85C27.4917 214.877 29.8711 214.369 32.026 213.368C32.7279 214.277 33.4494 215.186 34.1903 216.095C32.6207 217.795 33.1374 220.64 36.3254 221.94C37.8738 222.542 39.5241 222.884 41.2 222.949C41.395 223.095 41.59 223.24 41.8045 223.377L41.902 223.449C43.9168 230.467 46.3054 237.382 49.0677 244.193C50.2376 247.093 51.4953 249.965 52.7919 252.82H41.0928V295.835H76.8434V252.783H57.8128C56.1847 249.466 54.615 246.111 53.1526 242.721C50.7641 237.157 48.5997 231.503 46.7181 225.767C47.0383 225.855 47.3639 225.925 47.6931 225.976C48.1261 226.058 48.5701 226.077 49.0092 226.031L48.5022 223.04H48.161C47.9577 223.013 47.7559 222.977 47.5566 222.931C47.1062 222.811 46.6662 222.659 46.2404 222.477L45.7334 222.258C47.615 221.647 49.3623 220.723 50.8908 219.531C54.2738 216.804 53.3184 213.077 50.1596 212.759C47.6053 212.495 46.1624 214.514 45.285 216.904C45.0218 217.586 44.8073 218.295 44.622 218.986C44.4368 218.35 44.2516 217.713 44.0761 217.077C43.5594 215.195 43.1011 213.295 42.6332 211.396C44.6751 210.802 46.5728 209.841 48.2195 208.569C51.6025 205.841 50.6373 202.124 47.4883 201.805C44.9243 201.542 43.4911 203.56 42.6137 205.951C42.3505 206.641 42.1262 207.36 41.9312 208.069C41.6388 206.687 41.356 205.296 41.0928 203.905C40.9076 202.878 40.7321 201.842 40.5663 200.805C40.5078 199.333 40.4786 197.86 40.4981 196.379C40.4981 195.569 40.4981 194.76 40.5761 193.951C42.4875 194.515 44.4922 194.752 46.4939 194.651C50.9396 194.379 52.5774 190.833 50.2571 188.825C48.3658 187.179 45.9187 187.997 43.6471 189.397C42.6284 190.043 41.6518 190.744 40.7223 191.497C40.9961 188.037 41.56 184.603 42.4089 181.225C42.9064 179.236 43.5282 177.275 44.2711 175.353C46.3095 176.008 48.4648 176.289 50.6178 176.18C55.0635 175.916 56.7014 172.371 54.3811 170.353C52.4995 168.717 50.0426 169.526 47.771 170.935C46.9781 171.443 46.2164 171.992 45.4897 172.58C46.347 170.7 47.3438 168.877 48.473 167.126C50.7123 163.593 53.5203 160.401 56.7989 157.663C58.4979 159.125 60.5075 160.236 62.6972 160.927C66.9284 162.217 69.8629 159.49 68.5468 156.818C67.4451 154.645 64.8518 154.545 62.1805 155.063C61.1511 155.268 60.1354 155.529 59.1387 155.845L59.2069 155.791C62.8449 153.144 66.7652 150.853 70.9061 148.955C72.367 150.738 74.2224 152.208 76.3462 153.264C80.3044 155.163 83.6679 152.909 82.7904 150.073C82.0787 147.764 79.5342 147.282 76.8141 147.346C75.7458 147.4 74.6815 147.509 73.6261 147.673C78.023 145.737 82.5077 143.91 86.8364 141.773H86.9339C88.8718 143.333 91.171 144.454 93.6511 145.046C97.9701 146.046 100.68 143.119 99.1205 140.501C97.8531 138.41 95.2208 138.501 92.6372 139.192C91.906 139.392 91.1748 139.637 90.4631 139.892C93.3539 138.325 96.1557 136.62 98.8573 134.783L99.0815 135.01V134.892C101.039 136.466 103.357 137.601 105.857 138.21C110.166 139.201 112.886 136.283 111.327 133.665C110.098 131.692 107.505 131.774 104.882 132.474ZM36.7154 214.841C35.8282 213.877 34.9897 212.868 34.1708 211.85C34.3658 211.686 34.5803 211.505 34.7948 211.305C36.013 211.659 37.2739 211.869 38.5482 211.932V212.123L39.1429 212.005C39.4549 213.441 39.7766 214.868 40.1179 216.295C39.7217 215.812 39.2043 215.426 38.611 215.173C38.0178 214.919 37.3669 214.805 36.7154 214.841ZM39.8936 180.616C39.5914 181.689 39.3379 182.761 39.0942 183.843L38.948 183.652C38.948 181.434 38.9837 179.222 39.0552 177.016C39.1234 175.471 39.2404 173.935 39.3867 172.389C40.1888 173.151 41.0706 173.836 42.019 174.435C41.1938 176.458 40.4876 178.521 39.9034 180.616H39.8936ZM43.8908 170.435C43.9493 170.035 43.9981 169.626 44.0176 169.226V168.617C44.3685 168.517 44.7293 168.399 45.0802 168.262C44.6903 168.981 44.2808 169.708 43.9006 170.435H43.8908ZM48.9702 162.754C48.8018 162.394 48.5568 162.07 48.2501 161.801C47.9434 161.533 47.5815 161.325 47.1861 161.19C44.778 160.281 42.8282 161.917 41.278 164.008L41.2 164.108H41.044C40.8806 164.074 40.7142 164.052 40.5468 164.045C40.5353 163.917 40.5588 163.789 40.6151 163.672C41.2323 160.388 42.0658 157.143 43.1109 153.954C45.3489 154.219 47.6214 154.055 49.7892 153.473C51.1284 153.145 52.2933 152.372 53.0649 151.3C53.494 153.133 54.3128 154.867 55.473 156.4C53.0745 158.302 50.8981 160.435 48.98 162.763L48.9702 162.754Z" fill="white"/>
<path d="M345.27 256.174C345.27 256.174 340.552 246.348 339.421 245.339C338.29 244.33 329.252 241.275 326.747 233.521C324.241 225.767 319.483 205.069 331.475 206.423C343.467 207.778 340.552 229.458 344.91 228.776C349.268 228.094 341.283 193.561 348.907 188.779C356.531 183.998 368.883 188.443 367.43 206.732C365.978 225.022 363.072 235.512 365.617 234.503C368.162 233.494 375.425 229.758 375.425 237.548C375.425 245.339 368.522 250.756 364.525 251.093C360.528 251.429 358.676 251.774 358.676 251.774V256.847L345.27 256.174Z" fill="#2E353A" stroke="#2E353A" stroke-linecap="round" stroke-linejoin="round"/>
<path d="M341.429 237.13C338.689 234.712 336.174 232.367 335.014 230.212C332.713 225.913 330.978 213.85 330.978 213.85" stroke="white" stroke-width="0.5" stroke-linecap="round" stroke-linejoin="round"/>
<path d="M326.893 219.74C328.706 226.785 328.96 232.094 334.439 238.275C337.364 241.621 345.105 244.457 345.972 247.411C346.749 250.966 347.331 254.555 347.717 258.165L352.046 258.438C352.046 258.438 352.923 251.438 350.447 246.448" stroke="white" stroke-width="0.5" stroke-linecap="round" stroke-linejoin="round"/>
<path d="M328.102 208.441C328.102 208.441 324.865 210.759 326.015 216.468" stroke="white" stroke-width="0.5" stroke-linecap="round" stroke-linejoin="round"/>
<path d="M348.839 229.231L347.123 231.821" stroke="white" stroke-width="0.5" stroke-linecap="round" stroke-linejoin="round"/>
<path d="M349.434 228.331L348.839 229.231" stroke="white" stroke-width="0.5" stroke-linecap="round" stroke-linejoin="round"/>
<path d="M355.195 189.625C355.195 189.625 348.566 189.361 348.566 195.27C348.566 200.26 350.203 217.295 349.852 225.086" stroke="white" stroke-width="0.5" stroke-linecap="round" stroke-linejoin="round"/>
<path d="M360.391 238.03C360.235 240.057 360.138 241.493 360.138 242.039C360.138 244.993 368.2 233.703 371.954 233.439C371.954 233.439 375.698 233.167 374.255 239.621C373.73 242.017 372.514 244.233 370.737 246.032C368.961 247.831 366.692 249.144 364.174 249.829C360.996 250.638 358.402 249.293 357.827 250.638C357.368 252.22 357.077 253.839 356.96 255.474" stroke="white" stroke-width="0.5" stroke-linecap="round" stroke-linejoin="round"/>
<path d="M362.273 195.233C362.774 197.183 363.01 199.183 362.975 201.187C362.975 207.478 361.688 222.313 360.83 232.33" stroke="white" stroke-width="0.5" stroke-linecap="round" stroke-linejoin="round"/>
<path d="M358.939 190.17C359.805 190.633 360.506 191.321 360.957 192.152" stroke="white" stroke-width="0.5" stroke-linecap="round" stroke-linejoin="round"/>
<path d="M354.25 236.394L354.045 240.157" stroke="white" stroke-width="0.5" stroke-linecap="round" stroke-linejoin="round"/>
<path d="M355.77 193.388C355.77 193.388 354.045 193.924 354.62 199.569C355.098 204.233 354.62 225.404 354.396 232.63" stroke="white" stroke-width="0.5" stroke-linecap="round" stroke-linejoin="round"/>
<path d="M373.933 235.048C371.461 239.362 367.501 242.773 362.692 244.729C354.893 247.684 354.62 246.338 354.62 249.275C354.62 252.211 354.328 257.61 354.328 257.61" stroke="white" stroke-width="0.5" stroke-linecap="round" stroke-linejoin="round"/>
<path d="M363.121 295.808H337.929L332.538 261.783H368.513L363.121 295.808Z" fill="#BBBCD4" stroke="#2E353A" stroke-linecap="round" stroke-linejoin="round"/>
<path d="M371.603 256.42H329.447V265.528H371.603V256.42Z" fill="#BBBCD4" stroke="#2E353A" stroke-linecap="round" stroke-linejoin="round"/>
<path d="M224.799 272.9V254.429H166.459V272.9C166.449 278.917 164.265 284.755 160.258 289.472L157.704 292.471H233.553L230.999 289.472C226.992 284.755 224.808 278.917 224.799 272.9Z" fill="white" stroke="#2E353A" stroke-linecap="round" stroke-linejoin="round"/>
<path d="M162.871 285.836H228.386C226.034 281.877 224.8 277.426 224.799 272.9V254.429H166.459V272.9C166.458 277.426 165.223 281.877 162.871 285.836Z" fill="#BBBCD4"/>
<path d="M304.596 96.2769H86.6512C82.0852 96.2769 78.3838 99.7281 78.3838 103.985V252.547C78.3838 256.804 82.0852 260.256 86.6512 260.256H304.596C309.162 260.256 312.864 256.804 312.864 252.547V103.985C312.864 99.7281 309.162 96.2769 304.596 96.2769Z" fill="#2E353A" stroke="#2E353A" stroke-linecap="round" stroke-linejoin="round"/>
<path d="M78.384 234.767H312.874V252.538C312.874 254.582 312.003 256.543 310.452 257.989C308.902 259.434 306.799 260.247 304.606 260.247H86.6612C84.4685 260.247 82.3657 259.434 80.8152 257.989C79.2648 256.543 78.3938 254.582 78.3938 252.538V234.767H78.384Z" fill="white" stroke="#2E353A" stroke-linecap="round" stroke-linejoin="round"/>
<path d="M301.077 106.485H90.1808V222.331H301.077V106.485Z" fill="white" stroke="#2E353A" stroke-linecap="round" stroke-linejoin="round"/>
<path d="M199.957 247.511C199.957 246.713 199.703 245.933 199.228 245.269C198.752 244.605 198.076 244.088 197.285 243.782C196.494 243.477 195.624 243.397 194.784 243.553C193.944 243.708 193.173 244.093 192.568 244.657C191.962 245.222 191.55 245.941 191.383 246.724C191.216 247.507 191.302 248.318 191.629 249.056C191.957 249.793 192.512 250.424 193.224 250.867C193.936 251.31 194.772 251.547 195.629 251.547C196.777 251.547 197.878 251.122 198.689 250.365C199.501 249.608 199.957 248.582 199.957 247.511Z" fill="#2E353A" stroke="#2E353A" stroke-linecap="round" stroke-linejoin="round"/>
<path d="M233.563 292.508H157.704V295.808H233.563V292.508Z" fill="white" stroke="#2E353A" stroke-linecap="round" stroke-linejoin="round"/>
<path d="M299.098 114.648H91.838V124.802H299.098V114.648Z" fill="white" stroke="#2E353A" stroke-linecap="round" stroke-linejoin="round"/>
<path d="M126.038 124.802L123.552 118.53H91.838V124.802V133.12V217.395H299.098V124.802H126.038Z" fill="#BBBCD4" stroke="#2E353A" stroke-linecap="round" stroke-linejoin="round"/>
<path d="M147.623 170.717H244.804" stroke="#2E353A" stroke-width="2" stroke-linecap="round" stroke-linejoin="round"/>
<path d="M147.623 179.625H244.804" stroke="#2E353A" stroke-width="2" stroke-linecap="round" stroke-linejoin="round"/>
<path d="M147.623 188.534H244.804" stroke="#2E353A" stroke-width="2" stroke-linecap="round" stroke-linejoin="round"/>
<path d="M147.623 197.451H244.804" stroke="#2E353A" stroke-width="2" stroke-linecap="round" stroke-linejoin="round"/>
<path d="M239.666 146.964H151.601C150.694 146.965 149.797 146.8 148.959 146.478C148.121 146.155 147.359 145.682 146.717 145.085C146.075 144.489 145.566 143.78 145.218 143C144.87 142.219 144.69 141.382 144.689 140.537C144.687 139.692 144.865 138.855 145.21 138.074C145.556 137.292 146.063 136.582 146.703 135.984C147.343 135.385 148.104 134.91 148.941 134.586C149.778 134.261 150.675 134.094 151.581 134.092H239.666C240.574 134.091 241.474 134.257 242.313 134.58C243.152 134.904 243.914 135.379 244.557 135.977C245.199 136.576 245.708 137.287 246.055 138.069C246.402 138.852 246.58 139.691 246.578 140.537C246.577 141.382 246.397 142.219 246.049 143C245.701 143.78 245.192 144.489 244.55 145.085C243.908 145.682 243.146 146.155 242.308 146.478C241.47 146.8 240.573 146.965 239.666 146.964Z" fill="white" stroke="#2E353A" stroke-linecap="round" stroke-linejoin="round"/>
<path d="M239.666 146.964H227.635V134.074H239.666C240.574 134.073 241.474 134.239 242.313 134.562C243.152 134.886 243.915 135.36 244.557 135.959C245.199 136.558 245.708 137.269 246.055 138.051C246.402 138.834 246.58 139.672 246.578 140.519C246.58 141.366 246.402 142.204 246.055 142.987C245.708 143.769 245.199 144.48 244.557 145.079C243.915 145.678 243.152 146.152 242.313 146.476C241.474 146.799 240.574 146.965 239.666 146.964Z" fill="#2E353A" stroke="#2E353A" stroke-linecap="round" stroke-linejoin="round"/>
<path d="M236.985 135.71C236.412 135.21 235.693 134.879 234.919 134.76C234.144 134.641 233.349 134.738 232.634 135.04C231.919 135.342 231.317 135.836 230.902 136.457C230.488 137.079 230.28 137.801 230.306 138.532C230.332 139.264 230.59 139.972 231.048 140.567C231.505 141.161 232.142 141.616 232.876 141.874C233.611 142.131 234.411 142.179 235.176 142.013C235.94 141.846 236.634 141.472 237.17 140.937C237.528 140.585 237.806 140.169 237.991 139.716C238.176 139.262 238.262 138.779 238.246 138.294C238.23 137.809 238.111 137.332 237.896 136.89C237.681 136.449 237.375 136.051 236.995 135.719L236.985 135.71ZM236.595 140.437C236.165 140.863 235.608 141.161 234.997 141.293C234.385 141.424 233.745 141.384 233.157 141.177C232.57 140.97 232.062 140.605 231.697 140.129C231.331 139.653 231.126 139.087 231.105 138.501C231.085 137.916 231.251 137.339 231.582 136.841C231.913 136.344 232.395 135.949 232.967 135.707C233.539 135.465 234.174 135.386 234.794 135.481C235.414 135.575 235.99 135.838 236.449 136.238C237.065 136.777 237.427 137.522 237.454 138.309C237.482 139.097 237.173 139.862 236.595 140.437Z" fill="white"/>
<path d="M239.968 142.283C239.881 142.203 239.771 142.149 239.652 142.127C239.533 142.104 239.409 142.114 239.296 142.155L237.862 140.901C237.79 140.834 237.692 140.797 237.589 140.797C237.487 140.797 237.389 140.834 237.317 140.901L237.19 141.028C237.12 141.099 237.081 141.191 237.081 141.287C237.081 141.383 237.12 141.476 237.19 141.546L238.603 142.783C238.562 142.895 238.555 143.016 238.584 143.132C238.614 143.248 238.678 143.354 238.769 143.437L241.206 145.664C241.367 145.813 241.584 145.896 241.811 145.896C242.037 145.896 242.255 145.813 242.415 145.664C242.575 145.514 242.664 145.312 242.664 145.101C242.664 144.889 242.575 144.687 242.415 144.537L239.968 142.283Z" fill="white"/>
<path d="M265.141 185.843C265.426 186.501 265.85 187.1 266.387 187.603C266.925 188.105 267.565 188.502 268.271 188.77C269.372 189.188 270.844 189.097 272.541 189.988C276.372 191.997 285.936 190.206 292.868 190.897C299.8 191.588 309.14 184.434 309.14 184.434L336.642 185.843V160.39C336.642 160.39 307.94 161.508 301.72 159.272C295.5 157.036 288.569 152.364 285.459 152.582C282.349 152.8 256.757 155.482 256.757 155.482L265.131 185.843H265.141Z" fill="white" stroke="#2E353A" stroke-linecap="round" stroke-linejoin="round"/>
<path d="M258.024 83.2142C252.345 83.8003 246.98 85.9433 242.608 89.3723C238.236 92.8012 235.052 97.3621 233.46 102.478C231.867 107.594 231.938 113.036 233.662 118.114C235.386 123.193 238.687 127.681 243.147 131.01C247.607 134.34 253.026 136.362 258.718 136.82C264.41 137.278 270.12 136.152 275.126 133.584C280.132 131.016 284.209 127.122 286.841 122.394C289.473 117.666 290.542 112.316 289.914 107.022C289.499 103.505 288.344 100.099 286.517 96.9991C284.689 93.8988 282.224 91.165 279.262 88.9539C276.3 86.7427 272.9 85.0977 269.256 84.1128C265.611 83.128 261.795 82.8226 258.024 83.2142ZM263.756 131.465C259.201 131.937 254.598 131.139 250.529 129.171C246.46 127.204 243.109 124.156 240.898 120.412C238.687 116.669 237.716 112.398 238.109 108.14C238.501 103.883 240.239 99.8288 243.102 96.4917C245.965 93.1546 249.825 90.6842 254.194 89.3927C258.563 88.1012 263.245 88.0466 267.647 89.236C272.05 90.4254 275.975 92.8052 278.926 96.0745C281.878 99.3439 283.724 103.356 284.23 107.603C284.566 110.424 284.303 113.278 283.456 116.003C282.609 118.729 281.195 121.272 279.294 123.488C277.392 125.704 275.042 127.549 272.376 128.917C269.71 130.286 266.781 131.152 263.756 131.465Z" fill="white" stroke="#2E353A" stroke-linecap="round" stroke-linejoin="round"/>
<path d="M257.868 81.6779C252.19 82.264 246.825 84.407 242.452 87.836C238.08 91.2649 234.896 95.8258 233.304 100.942C231.712 106.058 231.782 111.499 233.506 116.578C235.231 121.657 238.532 126.145 242.992 129.474C247.451 132.804 252.87 134.825 258.562 135.283C264.254 135.741 269.964 134.615 274.97 132.048C279.976 129.48 284.053 125.586 286.685 120.858C289.317 116.13 290.387 110.78 289.758 105.485C288.913 98.3862 285.079 91.8907 279.099 87.4264C273.119 82.9621 265.483 80.8945 257.868 81.6779ZM263.601 129.929C259.045 130.401 254.442 129.603 250.374 127.635C246.305 125.668 242.953 122.62 240.742 118.876C238.531 115.133 237.561 110.862 237.953 106.604C238.345 102.346 240.083 98.2925 242.946 94.9554C245.809 91.6184 249.67 89.1479 254.039 87.8564C258.408 86.5649 263.089 86.5103 267.492 87.6997C271.894 88.8891 275.819 91.2689 278.771 94.5382C281.722 97.8076 283.568 101.82 284.074 106.067C284.41 108.887 284.147 111.742 283.3 114.467C282.453 117.193 281.039 119.736 279.138 121.952C277.237 124.167 274.886 126.012 272.22 127.381C269.554 128.75 266.626 129.616 263.601 129.929Z" fill="white" stroke="#2E353A" stroke-linecap="round" stroke-linejoin="round"/>
<path d="M265.176 135.72L263.81 135.861C262.269 136.02 261.158 137.314 261.328 138.751L263.546 157.417C263.716 158.854 265.104 159.89 266.645 159.731L268.012 159.59C269.553 159.431 270.664 158.137 270.493 156.7L268.276 138.033C268.105 136.596 266.717 135.56 265.176 135.72Z" fill="#BBBCD4" stroke="#2E353A" stroke-linecap="round" stroke-linejoin="round"/>
<path d="M264.732 151.3L267.656 151.009C268.914 150.884 270.174 151.226 271.163 151.961C272.153 152.696 272.791 153.765 272.94 154.936L277.318 191.852C277.496 193.361 277.024 194.874 276.005 196.059C274.987 197.243 273.506 198.002 271.887 198.169H271.692C270.891 198.253 270.079 198.188 269.305 197.978C268.53 197.769 267.807 197.419 267.178 196.948C266.549 196.478 266.025 195.897 265.637 195.237C265.249 194.578 265.004 193.854 264.917 193.106L260.539 156.2C260.469 155.615 260.523 155.024 260.698 154.459C260.873 153.894 261.166 153.366 261.56 152.907C261.954 152.448 262.441 152.065 262.993 151.782C263.546 151.498 264.153 151.319 264.78 151.255L264.732 151.3Z" fill="#2E353A" stroke="#2E353A" stroke-linecap="round" stroke-linejoin="round"/>
<path d="M268.982 182.061C268.982 182.061 262.05 182.298 261.075 183.416C260.101 184.534 260.276 188.425 262.158 188.87C266.954 190.043 277.152 189.361 277.552 188.561C277.951 187.761 278.77 183.107 276.665 182.607C274.122 182.244 271.554 182.061 268.982 182.061Z" fill="white" stroke="#2E353A" stroke-linecap="round" stroke-linejoin="round"/>
<path d="M266.984 173.044C266.984 173.044 258.921 172.762 257.664 174.117C256.406 175.471 256.162 180.534 258.288 181.298C263.708 183.234 275.904 182.48 276.46 181.48C277.016 180.48 278.225 175.289 275.836 174.453C273.448 173.617 266.984 173.044 266.984 173.044Z" fill="white" stroke="#2E353A" stroke-linecap="round" stroke-linejoin="round"/>
<path d="M265.824 162.863C265.824 162.863 257.205 162.554 255.86 164.008C254.514 165.463 254.251 170.862 256.523 171.68C262.372 173.753 275.046 173.753 275.641 172.68C276.236 171.608 277.835 165.263 275.28 164.363C272.726 163.463 265.824 162.863 265.824 162.863Z" fill="white" stroke="#2E353A" stroke-linecap="round" stroke-linejoin="round"/>
<path d="M260.852 153.336C260.852 153.336 252.233 153.036 250.888 154.482C249.542 155.927 249.221 161.499 251.551 162.154C253.881 162.808 270.074 164.226 270.669 163.163C271.264 162.099 272.863 155.736 270.308 154.836C267.754 153.936 260.852 153.336 260.852 153.336Z" fill="white" stroke="#2E353A" stroke-linecap="round" stroke-linejoin="round"/>
<path d="M289.076 180.071C287.529 179.674 286.063 179.041 284.737 178.198C277.806 173.735 278.04 163.481 278.04 163.481L276.372 163.036C274.995 162.547 273.704 161.87 272.541 161.027C273.099 163.145 273.426 165.31 273.516 167.49C273.491 168.688 272.989 169.834 272.108 170.706C271.227 171.578 270.029 172.113 268.748 172.208C266.594 172.435 265.638 172.653 264.917 169.98C264.196 167.308 260.618 156.6 260.374 155.036C260.159 153.618 262.714 151.091 266.779 150.491C273.028 150.964 279.19 152.591 285.488 152.591C287.679 152.783 289.779 153.503 291.581 154.682" fill="white"/>
<path d="M289.076 180.071C287.529 179.674 286.063 179.041 284.737 178.198C277.806 173.735 278.04 163.481 278.04 163.481L276.372 163.036C274.995 162.547 273.704 161.87 272.541 161.027C273.099 163.145 273.426 165.31 273.516 167.49C273.491 168.688 272.989 169.834 272.108 170.706C271.227 171.578 270.029 172.113 268.748 172.208C266.594 172.435 265.638 172.653 264.917 169.98C264.196 167.308 260.618 156.6 260.374 155.036C260.159 153.618 262.714 151.091 266.779 150.491C273.028 150.964 279.19 152.591 285.488 152.591C287.679 152.783 289.779 153.503 291.581 154.682" stroke="#2E353A" stroke-linecap="round" stroke-linejoin="round"/>
<path d="M295.666 180.634C294.906 180.671 294.144 180.671 293.385 180.634H295.666Z" fill="white"/>
<path d="M295.666 180.634C294.906 180.671 294.144 180.671 293.385 180.634" stroke="#2E353A" stroke-linecap="round" stroke-linejoin="round"/>
<path d="M300.765 179.753C299.11 180.241 297.398 180.546 295.666 180.662L300.765 179.753Z" fill="white"/>
<path d="M300.765 179.753C299.11 180.241 297.398 180.546 295.666 180.662" stroke="#2E353A" stroke-linecap="round" stroke-linejoin="round"/>
<path d="M309.374 176.862H317.982" stroke="#2E353A" stroke-linecap="round" stroke-linejoin="round"/>
<path d="M310.095 179.089H313.683" stroke="#2E353A" stroke-linecap="round" stroke-linejoin="round"/>
<path d="M278.039 163.481C278.039 163.481 282.797 163.481 285.917 160.836" stroke="#2E353A" stroke-linecap="round" stroke-linejoin="round"/>
<path d="M272.434 160.736C272.296 159.525 272.025 158.331 271.624 157.172" stroke="#2E353A" stroke-linecap="round" stroke-linejoin="round"/>
<path d="M264.848 168.808C264.848 168.808 263.942 166.463 265.043 165.617C266.145 164.772 269.07 163.554 269.577 164.49C270.084 165.426 271.185 169.744 270.883 170.59L270.581 171.435" stroke="#2E353A" stroke-width="0.5" stroke-linecap="round" stroke-linejoin="round"/>
<path d="M397 197.251H314.57V159.472H397" fill="#BBBCD4"/>
<path d="M397 197.251H314.57V159.472H397" stroke="#2E353A" stroke-linecap="round" stroke-linejoin="round"/>
<path d="M320.615 194.724C321.638 194.724 322.467 193.951 322.467 192.997C322.467 192.043 321.638 191.27 320.615 191.27C319.592 191.27 318.762 192.043 318.762 192.997C318.762 193.951 319.592 194.724 320.615 194.724Z" fill="white" stroke="#2E353A" stroke-linecap="round" stroke-linejoin="round"/>
<path d="M189.614 123.493C190.32 123.227 190.962 122.832 191.501 122.331C192.04 121.83 192.466 121.233 192.753 120.575C193.201 119.548 193.094 118.184 194.059 116.594C196.204 113.03 194.293 104.113 195.034 97.6404C195.775 91.1681 188.093 82.4779 188.093 82.4779L189.584 56.8343H162.286C162.286 56.8343 163.476 83.596 161.087 89.3864C158.699 95.1769 153.678 101.658 153.912 104.558C154.146 107.458 157.041 131.302 157.041 131.302L189.565 123.493H189.614Z" fill="white" stroke="#2E353A" stroke-linecap="round" stroke-linejoin="round"/>
<path d="M79.6124 130.111C80.2368 135.406 82.5313 140.41 86.2058 144.489C89.8803 148.569 94.7697 151.541 100.256 153.029C105.742 154.517 111.578 154.456 117.026 152.851C122.474 151.247 127.29 148.172 130.864 144.016C134.438 139.859 136.61 134.808 137.105 129.501C137.6 124.194 136.396 118.869 133.645 114.2C130.894 109.53 126.72 105.727 121.651 103.269C116.582 100.812 110.844 99.8117 105.165 100.395H105.097C97.4948 101.192 90.5422 104.768 85.7646 110.339C80.9869 115.91 78.7744 123.021 79.6124 130.111ZM131.284 124.757C131.791 129.005 130.936 133.299 128.827 137.095C126.717 140.891 123.448 144.019 119.432 146.082C115.417 148.146 110.835 149.053 106.266 148.688C101.698 148.324 97.3478 146.705 93.7663 144.035C90.1848 141.366 87.5327 137.766 86.1453 133.691C84.758 129.616 84.6977 125.249 85.972 121.142C87.2464 117.036 89.7982 113.373 93.3048 110.619C96.8114 107.864 101.115 106.141 105.672 105.667C111.783 105.034 117.913 106.689 122.716 110.269C127.518 113.848 130.6 119.059 131.284 124.757Z" fill="white" stroke="#2E353A" stroke-linecap="round" stroke-linejoin="round"/>
<path d="M77.9259 130.274C78.5561 135.566 80.8549 140.565 84.5318 144.639C88.2087 148.713 93.0985 151.679 98.5831 153.163C104.068 154.646 109.901 154.579 115.345 152.972C120.789 151.364 125.6 148.288 129.169 144.132C132.738 139.975 134.905 134.925 135.397 129.621C135.889 124.316 134.682 118.994 131.931 114.329C129.179 109.663 125.005 105.863 119.938 103.409C114.87 100.954 109.135 99.9561 103.459 100.54C99.6883 100.928 96.0363 102.005 92.7119 103.71C89.3876 105.414 86.4561 107.713 84.0848 110.474C81.7136 113.236 79.9492 116.406 78.8924 119.803C77.8357 123.2 77.5072 126.759 77.9259 130.274ZM129.675 124.938C130.181 129.186 129.325 133.478 127.215 137.271C125.105 141.065 121.836 144.19 117.821 146.252C113.806 148.313 109.226 149.218 104.659 148.852C100.093 148.487 95.745 146.866 92.166 144.197C88.587 141.527 85.9374 137.928 84.5523 133.854C83.1671 129.78 83.1087 125.415 84.3843 121.311C85.6599 117.206 88.2122 113.546 91.7186 110.794C95.225 108.042 99.5279 106.321 104.083 105.849C107.108 105.535 110.169 105.781 113.092 106.57C116.015 107.36 118.743 108.679 121.119 110.452C123.496 112.224 125.475 114.416 126.943 116.902C128.411 119.387 129.339 122.118 129.675 124.938Z" fill="white" stroke="#2E353A" stroke-linecap="round" stroke-linejoin="round"/>
<path d="M158.393 118.517L138.374 120.584C136.832 120.743 135.721 122.037 135.892 123.474L136.043 124.748C136.214 126.185 137.602 127.221 139.143 127.062L159.163 124.995C160.704 124.836 161.815 123.542 161.644 122.105L161.493 120.831C161.322 119.394 159.935 118.358 158.393 118.517Z" fill="#BBBCD4" stroke="#2E353A" stroke-linecap="round" stroke-linejoin="round"/>
<path d="M152.595 123.884L152.274 121.157C152.134 119.975 152.504 118.791 153.301 117.864C154.098 116.936 155.257 116.342 156.524 116.212L196.106 112.13C196.911 112.043 197.727 112.105 198.506 112.312C199.285 112.52 200.013 112.869 200.647 113.339C201.281 113.81 201.81 114.393 202.201 115.054C202.593 115.715 202.841 116.442 202.931 117.193V117.375C203.024 118.126 202.958 118.886 202.736 119.613C202.513 120.339 202.139 121.018 201.634 121.609C201.129 122.2 200.505 122.693 199.795 123.058C199.086 123.424 198.306 123.655 197.501 123.738L157.918 127.82C156.653 127.953 155.383 127.614 154.386 126.876C153.388 126.139 152.745 125.063 152.595 123.884Z" fill="#2E353A" stroke="#2E353A" stroke-linecap="round" stroke-linejoin="round"/>
<path d="M185.578 119.921C185.578 119.921 185.841 126.375 187.03 127.284C188.22 128.193 192.412 128.029 192.88 126.275C194.147 121.811 193.406 112.294 192.548 111.93C191.69 111.567 186.699 110.785 186.172 112.757C185.779 115.128 185.581 117.522 185.578 119.921Z" fill="white" stroke="#2E353A" stroke-linecap="round" stroke-linejoin="round"/>
<path d="M175.916 121.775C175.916 121.775 175.604 129.293 177.057 130.465C178.509 131.638 183.94 131.874 184.758 129.883C186.845 124.829 186.026 113.457 184.953 112.948C183.881 112.439 178.314 111.303 177.417 113.53C176.52 115.757 175.916 121.775 175.916 121.775Z" fill="white" stroke="#2E353A" stroke-linecap="round" stroke-linejoin="round"/>
<path d="M164.997 122.875C164.997 122.875 164.665 130.911 166.215 132.165C167.765 133.42 173.576 133.665 174.453 131.538C176.676 126.138 176.676 114.266 175.526 113.721C174.375 113.176 167.561 111.676 166.605 114.057C165.65 116.439 164.997 122.875 164.997 122.875Z" fill="white" stroke="#2E353A" stroke-linecap="round" stroke-linejoin="round"/>
<path d="M154.779 127.502C154.779 127.502 154.448 135.538 156.008 136.792C157.568 138.046 163.534 138.346 164.236 136.165C164.938 133.983 166.459 118.893 165.308 118.339C164.158 117.784 157.353 116.303 156.388 118.684C155.423 121.066 154.779 127.502 154.779 127.502Z" fill="white" stroke="#2E353A" stroke-linecap="round" stroke-linejoin="round"/>
<path d="M184.047 95.0133C184.444 98.594 183.522 102.194 181.434 105.222C176.657 111.694 165.65 111.467 165.65 111.467L165.172 113.03C164.652 114.313 163.925 115.515 163.017 116.594C165.292 116.073 167.618 115.768 169.959 115.685C171.239 115.719 172.46 116.194 173.387 117.018C174.314 117.842 174.882 118.957 174.98 120.148C175.223 122.157 175.457 123.048 172.591 123.711C169.725 124.375 158.24 127.729 156.563 127.956C155.042 128.156 152.332 125.775 151.689 121.984C152.205 116.157 153.951 110.403 153.951 104.54C154.155 102.494 154.927 100.532 156.193 98.8494" fill="white"/>
<path d="M184.047 95.0133C184.444 98.594 183.522 102.194 181.434 105.222C176.657 111.694 165.65 111.467 165.65 111.467L165.172 113.03C164.652 114.313 163.925 115.515 163.017 116.594C165.292 116.073 167.618 115.768 169.959 115.685C171.239 115.719 172.46 116.194 173.387 117.018C174.314 117.842 174.882 118.957 174.98 120.148C175.223 122.157 175.457 123.048 172.591 123.711C169.725 124.375 158.24 127.729 156.563 127.956C155.042 128.156 152.332 125.775 151.689 121.984C152.205 116.157 153.951 110.403 153.951 104.54C154.155 102.494 154.927 100.532 156.193 98.8494" stroke="#2E353A" stroke-linecap="round" stroke-linejoin="round"/>
<path d="M183.111 90.2864C183.399 91.1368 183.621 92.0057 183.774 92.8862L183.111 90.2864Z" fill="white"/>
<path d="M183.111 90.2864C183.399 91.1368 183.621 92.0057 183.774 92.8862" stroke="#2E353A" stroke-linecap="round" stroke-linejoin="round"/>
<path d="M180.001 82.2506V74.2239" stroke="#2E353A" stroke-linecap="round" stroke-linejoin="round"/>
<path d="M182.389 81.587V78.2418" stroke="#2E353A" stroke-linecap="round" stroke-linejoin="round"/>
<path d="M165.65 111.467C165.65 111.467 165.65 107.031 162.813 104.122" stroke="#2E353A" stroke-linecap="round" stroke-linejoin="round"/>
<path d="M162.715 116.703C161.417 116.827 160.136 117.077 158.894 117.448" stroke="#2E353A" stroke-linecap="round" stroke-linejoin="round"/>
<path d="M171.373 123.738C171.373 123.738 168.857 124.584 167.951 123.548C167.044 122.511 165.738 119.793 166.742 119.33C167.746 118.866 172.377 117.83 173.284 118.112L174.19 118.384" stroke="#2E353A" stroke-width="0.5" stroke-linecap="round" stroke-linejoin="round"/>
<path d="M201.878 0.547607V77.4055H161.35V0.547607" fill="#BBBCD4"/>
<path d="M201.878 0.547607V77.4055H161.35V0.547607" stroke="#2E353A" stroke-linecap="round" stroke-linejoin="round"/>
<path d="M197.306 73.4967C198.329 73.4967 199.158 72.7235 199.158 71.7696C199.158 70.8157 198.329 70.0424 197.306 70.0424C196.283 70.0424 195.453 70.8157 195.453 71.7696C195.453 72.7235 196.283 73.4967 197.306 73.4967Z" fill="white" stroke="#2E353A" stroke-linecap="round" stroke-linejoin="round"/>
<path d="M148.832 260.383C148.549 261.042 148.126 261.641 147.588 262.144C147.05 262.647 146.409 263.044 145.703 263.31C144.601 263.737 143.139 263.637 141.433 264.528C137.611 266.537 128.047 264.755 121.105 265.437C114.164 266.119 104.843 258.974 104.843 258.974L77.3115 260.383V234.93C77.3115 234.93 106.013 236.048 112.233 233.821C118.453 231.594 125.385 226.904 128.495 227.131C131.605 227.358 157.197 230.031 157.197 230.031L148.832 260.383Z" fill="white" stroke="#2E353A" stroke-linecap="round" stroke-linejoin="round"/>
<path d="M155.901 157.809C161.579 158.395 166.944 160.538 171.316 163.967C175.689 167.396 178.872 171.957 180.465 177.073C182.057 182.189 181.987 187.63 180.262 192.709C178.538 197.787 175.237 202.275 170.777 205.605C166.317 208.934 160.899 210.956 155.206 211.414C149.514 211.872 143.804 210.746 138.798 208.178C133.793 205.611 129.716 201.717 127.084 196.989C124.451 192.26 123.382 186.911 124.011 181.616C124.854 174.518 128.686 168.024 134.665 163.561C140.643 159.098 148.279 157.032 155.891 157.818L155.901 157.809ZM150.168 206.06C154.725 206.533 159.33 205.736 163.401 203.769C167.472 201.802 170.827 198.754 173.04 195.01C175.253 191.265 176.226 186.993 175.835 182.734C175.444 178.474 173.707 174.418 170.844 171.078C167.981 167.739 164.12 165.266 159.75 163.973C155.38 162.679 150.696 162.623 146.292 163.811C141.887 164.999 137.96 167.379 135.005 170.648C132.051 173.918 130.203 177.931 129.694 182.18C129.015 187.877 130.791 193.593 134.63 198.071C138.469 202.549 144.058 205.422 150.168 206.06Z" fill="white" stroke="#2E353A" stroke-linecap="round" stroke-linejoin="round"/>
<path d="M156.076 156.272C161.752 156.86 167.114 159.004 171.483 162.433C175.853 165.862 179.033 170.422 180.624 175.536C182.214 180.65 182.142 186.089 180.417 191.166C178.692 196.242 175.392 200.727 170.933 204.054C166.474 207.382 161.057 209.402 155.368 209.859C149.678 210.316 143.97 209.19 138.967 206.623C133.963 204.056 129.888 200.163 127.258 195.437C124.627 190.711 123.558 185.363 124.186 180.071C124.604 176.555 125.76 173.151 127.588 170.053C129.417 166.954 131.882 164.222 134.844 162.012C137.805 159.802 141.204 158.157 144.848 157.173C148.491 156.188 152.306 155.882 156.076 156.272ZM150.344 204.523C154.901 204.997 159.506 204.2 163.577 202.233C167.648 200.266 171.002 197.218 173.215 193.473C175.428 189.729 176.401 185.457 176.01 181.197C175.62 176.938 173.883 172.882 171.02 169.542C168.157 166.203 164.296 163.73 159.926 162.436C155.555 161.143 150.872 161.087 146.467 162.275C142.063 163.463 138.135 165.842 135.181 169.112C132.227 172.382 130.378 176.394 129.87 180.643C129.194 186.339 130.971 192.051 134.81 196.526C138.649 201 144.236 203.87 150.344 204.505V204.523Z" fill="white" stroke="#2E353A" stroke-linecap="round" stroke-linejoin="round"/>
<path d="M145.662 212.629L143.444 231.295C143.274 232.732 144.385 234.026 145.926 234.185L147.292 234.326C148.834 234.486 150.221 233.45 150.392 232.013L152.609 213.346C152.78 211.909 151.669 210.615 150.128 210.456L148.761 210.315C147.22 210.156 145.832 211.192 145.662 212.629Z" fill="#BBBCD4" stroke="#2E353A" stroke-linecap="round" stroke-linejoin="round"/>
<path d="M142.271 272.8H142.076C141.27 272.718 140.49 272.487 139.78 272.122C139.07 271.757 138.444 271.265 137.939 270.673C137.435 270.082 137.06 269.403 136.838 268.676C136.616 267.949 136.551 267.188 136.646 266.437L141.023 229.531C141.091 228.945 141.282 228.378 141.586 227.862C141.89 227.345 142.299 226.89 142.792 226.522C143.285 226.154 143.851 225.88 144.457 225.716C145.064 225.552 145.699 225.502 146.327 225.567L149.252 225.867C150.518 225.997 151.678 226.592 152.475 227.519C153.272 228.446 153.642 229.631 153.502 230.812L149.125 267.764C149.034 268.515 148.785 269.241 148.393 269.902C148.001 270.563 147.473 271.145 146.839 271.615C146.205 272.086 145.478 272.435 144.699 272.643C143.92 272.851 143.105 272.913 142.3 272.827L142.271 272.8Z" fill="#2E353A" stroke="#2E353A" stroke-linecap="round" stroke-linejoin="round"/>
<path d="M144.932 256.647C144.932 256.647 151.854 256.892 152.829 258.001C153.804 259.11 153.629 263.01 151.747 263.455C146.96 264.637 136.753 263.946 136.363 263.146C135.973 262.346 135.134 257.692 137.25 257.192C139.792 256.829 142.36 256.647 144.932 256.647Z" fill="white" stroke="#2E353A" stroke-linecap="round" stroke-linejoin="round"/>
<path d="M146.96 247.657C146.96 247.657 155.023 247.366 156.281 248.72C157.538 250.075 157.792 255.138 155.657 255.901C150.236 257.838 138.04 257.083 137.494 256.083C136.948 255.083 135.729 249.893 138.118 249.056C140.506 248.22 146.96 247.657 146.96 247.657Z" fill="white" stroke="#2E353A" stroke-linecap="round" stroke-linejoin="round"/>
<path d="M148.14 237.448C148.14 237.448 156.759 237.148 158.104 238.594C159.449 240.039 159.713 245.457 157.441 246.266C151.591 248.347 138.917 248.338 138.323 247.275C137.728 246.211 136.129 239.848 138.683 238.948C141.238 238.048 148.14 237.448 148.14 237.448Z" fill="white" stroke="#2E353A" stroke-linecap="round" stroke-linejoin="round"/>
<path d="M153.102 227.931C153.102 227.931 161.721 227.622 163.066 229.067C164.411 230.512 164.733 236.094 162.393 236.748C160.053 237.403 143.87 238.812 143.275 237.748C142.68 236.685 141.091 230.321 143.645 229.431C146.2 228.54 153.102 227.931 153.102 227.931Z" fill="white" stroke="#2E353A" stroke-linecap="round" stroke-linejoin="round"/>
<path d="M119.584 255.265C122.984 255.39 126.341 254.522 129.188 252.783C136.129 248.32 135.885 238.066 135.885 238.066L137.562 237.621C138.938 237.136 140.227 236.458 141.384 235.612C140.826 237.73 140.499 239.896 140.409 242.075C140.446 243.27 140.955 244.41 141.839 245.275C142.722 246.141 143.918 246.672 145.196 246.766C147.35 246.984 148.306 247.211 149.027 244.529C149.749 241.848 153.327 231.149 153.57 229.594C153.814 228.04 151.231 225.64 147.165 225.049C140.916 225.531 134.745 227.158 128.456 227.158C126.263 227.349 124.161 228.066 122.353 229.24" fill="white"/>
<path d="M119.584 255.265C122.984 255.39 126.341 254.522 129.188 252.783C136.129 248.32 135.885 238.066 135.885 238.066L137.562 237.621C138.938 237.136 140.227 236.458 141.384 235.612C140.826 237.73 140.499 239.896 140.409 242.075C140.446 243.27 140.955 244.41 141.839 245.275C142.722 246.141 143.918 246.672 145.196 246.766C147.35 246.984 148.306 247.211 149.027 244.529C149.749 241.848 153.327 231.149 153.57 229.594C153.814 228.04 151.231 225.64 147.165 225.049C140.916 225.531 134.745 227.158 128.456 227.158C126.263 227.349 124.161 228.066 122.353 229.24" stroke="#2E353A" stroke-linecap="round" stroke-linejoin="round"/>
<path d="M113.189 254.347C114.552 254.737 115.953 255.002 117.371 255.138L113.189 254.347Z" fill="white"/>
<path d="M113.189 254.347C114.552 254.737 115.953 255.002 117.371 255.138" stroke="#2E353A" stroke-linecap="round" stroke-linejoin="round"/>
<path d="M104.571 251.447H95.962" stroke="#2E353A" stroke-linecap="round" stroke-linejoin="round"/>
<path d="M103.859 253.674H100.271" stroke="#2E353A" stroke-linecap="round" stroke-linejoin="round"/>
<path d="M135.905 238.066C135.905 238.066 131.147 238.066 128.027 235.421" stroke="#2E353A" stroke-linecap="round" stroke-linejoin="round"/>
<path d="M141.52 235.321C141.654 234.111 141.922 232.917 142.32 231.758" stroke="#2E353A" stroke-linecap="round" stroke-linejoin="round"/>
<path d="M149.066 243.393C149.066 243.393 149.973 241.048 148.861 240.203C147.75 239.357 144.835 238.139 144.338 239.075C143.841 240.012 142.729 244.339 143.031 245.175L143.334 246.02" stroke="#2E353A" stroke-width="0.5" stroke-linecap="round" stroke-linejoin="round"/>
<path d="M16.9441 271.846H99.3742V234.058H16.9441" fill="#BBBCD4"/>
<path d="M16.9441 271.846H99.3742V234.058H16.9441" stroke="#2E353A" stroke-linecap="round" stroke-linejoin="round"/>
<path d="M91.4773 267.582C91.4773 267.924 91.5859 268.258 91.7895 268.542C91.993 268.826 92.2823 269.047 92.6208 269.178C92.9593 269.309 93.3317 269.343 93.691 269.276C94.0504 269.21 94.3804 269.045 94.6395 268.804C94.8985 268.562 95.0749 268.254 95.1464 267.919C95.2179 267.584 95.1812 267.237 95.041 266.921C94.9008 266.606 94.6634 266.336 94.3588 266.146C94.0542 265.956 93.696 265.855 93.3297 265.855C92.8384 265.855 92.3672 266.037 92.0198 266.361C91.6725 266.685 91.4773 267.124 91.4773 267.582Z" fill="white" stroke="#2E353A" stroke-linecap="round" stroke-linejoin="round"/>
</g>
</svg>
