<svg width="40" height="40" viewBox="0 0 40 40" fill="none" xmlns="http://www.w3.org/2000/svg">
<path d="M20.0001 20.0002C24.6025 20.0002 28.3334 16.2692 28.3334 11.6668C28.3334 7.06446 24.6025 3.3335 20.0001 3.3335C15.3977 3.3335 11.6667 7.06446 11.6667 11.6668C11.6667 16.2692 15.3977 20.0002 20.0001 20.0002Z" stroke="#2D2D2D" stroke-width="1.5" stroke-linecap="round" stroke-linejoin="round"/>
<path d="M5.68335 36.6667C5.68335 30.2167 12.1 25 20 25C21.6 25 23.15 25.2167 24.6 25.6167" stroke="#2D2D2D" stroke-width="1.5" stroke-linecap="round" stroke-linejoin="round"/>
<path d="M36.6666 30.0002C36.6666 31.2502 36.3166 32.4335 35.6999 33.4335C35.3499 34.0335 34.8999 34.5668 34.3833 35.0002C33.2166 36.0502 31.6833 36.6668 29.9999 36.6668C27.5666 36.6668 25.4499 35.3668 24.2999 33.4335C23.6832 32.4335 23.3333 31.2502 23.3333 30.0002C23.3333 27.9002 24.2999 26.0168 25.8333 24.8002C26.9833 23.8835 28.4333 23.3335 29.9999 23.3335C33.6833 23.3335 36.6666 26.3168 36.6666 30.0002Z" fill="#6EC531" stroke="white" stroke-width="1.5" stroke-miterlimit="10" stroke-linecap="round" stroke-linejoin="round"/>
<path d="M27.3999 30L29.0499 31.65L32.5999 28.3667" fill="#6EC531"/>
<path d="M27.3999 30L29.0499 31.65L32.5999 28.3667" stroke="white" stroke-width="1.5" stroke-linecap="round" stroke-linejoin="round"/>
</svg>
