<svg width="88" height="88" viewBox="0 0 88 88" fill="none" xmlns="http://www.w3.org/2000/svg">
<g clip-path="url(#clip0_593_55346)">
<path d="M33 0H0V33H33V0ZM27.5 27.5H5.5V5.5H27.5V27.5Z" fill="#2D2D2D"/>
<path d="M10.999 11H21.999V22H10.999V11Z" fill="#2D2D2D"/>
<path d="M0 88H33V55H0V88ZM5.5 60.5H27.5V82.5H5.5V60.5Z" fill="#2D2D2D"/>
<path d="M10.999 66H21.999V77H10.999V66Z" fill="#2D2D2D"/>
<path d="M54.999 0V33H87.999V0H54.999ZM82.499 27.5H60.499V5.5H82.499V27.5Z" fill="#2D2D2D"/>
<path d="M65.999 11H76.999V22H65.999V11Z" fill="#2D2D2D"/>
<path d="M11 38.5H0V49.5H16.5V44H11V38.5Z" fill="#2D2D2D"/>
<path d="M38.4995 49.5H49.4995V60.5H38.4995V49.5Z" fill="#2D2D2D"/>
<path d="M16.4995 38.5H27.4995V44H16.4995V38.5Z" fill="#2D2D2D"/>
<path d="M49.4995 66H38.4995V71.5H43.9995V77H49.4995V71.5V66Z" fill="#2D2D2D"/>
<path d="M32.9995 38.5V44H27.4995V49.5H38.4995V38.5H32.9995Z" fill="#2D2D2D"/>
<path d="M44 22H49.5V33H44V22Z" fill="#2D2D2D"/>
<path d="M49.5 44V49.5H60.5V38.5H44V44H49.5Z" fill="#2D2D2D"/>
<path d="M38.4995 33H43.9995V38.5H38.4995V33Z" fill="#2D2D2D"/>
<path d="M49.4995 77H60.4995V88H49.4995V77Z" fill="#2D2D2D"/>
<path d="M38.4995 77H43.9995V88H38.4995V77Z" fill="#2D2D2D"/>
<path d="M49.4995 60.5H54.9995V66H49.4995V60.5Z" fill="#2D2D2D"/>
<path d="M49.4995 16.5V5.5H43.9995V0H38.4995V22H43.9995V16.5H49.4995Z" fill="#2D2D2D"/>
<path d="M65.999 77H71.499V88H65.999V77Z" fill="#2D2D2D"/>
<path d="M65.999 66H76.999V71.5H65.999V66Z" fill="#2D2D2D"/>
<path d="M60.4995 71.5H65.9995V77H60.4995V71.5Z" fill="#2D2D2D"/>
<path d="M54.999 66H60.499V71.5H54.999V66Z" fill="#2D2D2D"/>
<path d="M77.0005 55V60.5H82.5005V66H88.0005V55H82.5005H77.0005Z" fill="#2D2D2D"/>
<path d="M82.5005 71.5H77.0005V88H88.0005V77H82.5005V71.5Z" fill="#2D2D2D"/>
<path d="M54.999 55V60.5H71.499V49.5H60.499V55H54.999Z" fill="#2D2D2D"/>
<path d="M65.999 38.5V44H76.999V49.5H87.999V38.5H76.999H65.999Z" fill="#2D2D2D"/>
</g>
<defs>
<clipPath id="clip0_593_55346">
<rect width="88" height="88" fill="white"/>
</clipPath>
</defs>
</svg>
