<svg width="20" height="16" viewBox="0 0 20 16" fill="none" xmlns="http://www.w3.org/2000/svg">
<g id="Layer_2">
<path id="Vector" d="M11.998 -0.00146484C10.8083 -0.00146484 9.66405 0.252483 8.59694 0.753578C8.09735 0.989023 7.88201 1.58384 8.11685 2.08393C8.3518 2.58503 8.94761 2.79887 9.44771 2.56452C10.2462 2.18935 11.1042 1.99891 11.998 1.99891C15.3072 1.99891 17.9991 4.69082 17.9991 8.00005C17.9991 11.3093 15.3072 14.0012 11.998 14.0012C11.2904 14.0012 10.5983 13.8801 9.9405 13.6417C9.4223 13.4532 8.84749 13.7208 8.65896 14.2395C8.47042 14.7591 8.73857 15.3325 9.25767 15.5211C10.1348 15.8404 11.0569 16.0016 11.998 16.0016C16.4099 16.0016 19.9995 12.412 19.9995 8.00005C19.9995 3.58812 16.4099 -0.00146484 11.998 -0.00146484ZM2.99628 6.99986C2.44398 6.99986 1.99609 7.44725 1.99609 8.00005C1.99609 8.55286 2.44398 9.00024 2.99628 9.00024H6.99704C7.54935 9.00024 7.99723 8.55286 7.99723 8.00005C7.99723 7.44725 7.54935 6.99986 6.99704 6.99986H2.99628Z" fill="#232773"/>
<path id="Vector_2" d="M9.00171 4.00263C9.00171 3.44983 8.55382 3.00244 8.00152 3.00244H5.00095C4.44864 3.00244 4.00076 3.44983 4.00076 4.00263C4.00076 4.55544 4.44864 5.00282 5.00095 5.00282H8.00152C8.55382 5.00282 9.00171 4.55544 9.00171 4.00263ZM1.00019 13.0043H8.00152C8.55382 13.0043 9.00171 12.557 9.00171 12.0041C9.00171 11.4513 8.55382 11.004 8.00152 11.004H1.00019C0.447885 11.004 0 11.4513 0 12.0041C0 12.557 0.447885 13.0043 1.00019 13.0043ZM12.0023 5.00282C11.45 5.00282 11.0021 5.45021 11.0021 6.00301V8.00339C11.0021 8.38236 11.216 8.72813 11.5549 8.89806L13.5553 9.89825C13.6989 9.96956 13.8517 10.0038 14.0017 10.0038C14.3689 10.0038 14.722 9.80163 14.8973 9.45096C15.1445 8.95677 14.9442 8.35606 14.4499 8.10891L13.0025 7.38507V6.00301C13.0025 5.45021 12.5546 5.00282 12.0023 5.00282Z" fill="#232773"/>
</g>
</svg>
