<svg width="24" height="24" viewBox="0 0 24 24" fill="none" xmlns="http://www.w3.org/2000/svg">
<g clip-path="url(#clip0_2026_44907)">
<path d="M19.8621 15.7241H18.2069H17.3793V8.27586H19.8621C22.1437 8.27586 24 6.41959 24 4.13793C24 1.85628 22.1437 0 19.8621 0C17.5804 0 15.7241 1.85628 15.7241 4.13793V5.37931V6.62069H8.27586V6.2069V4.13793C8.27586 1.85628 6.41959 0 4.13793 0C1.85628 0 0 1.85628 0 4.13793C0 6.41959 1.85628 8.27586 4.13793 8.27586H6.62069V15.7241H5.7931H4.13793C1.85628 15.7241 0 17.5804 0 19.8621C0 22.1437 1.85628 24 4.13793 24C6.41959 24 8.27586 22.1437 8.27586 19.8621V17.3793H15.7241V19.8621C15.7241 22.1437 17.5804 24 19.8621 24C22.1437 24 24 22.1437 24 19.8621C24 17.5804 22.1437 15.7241 19.8621 15.7241ZM17.3793 4.13793C17.3793 2.76662 18.4908 1.65517 19.8621 1.65517C21.2334 1.65517 22.3448 2.76662 22.3448 4.13793C22.3448 5.50924 21.2334 6.62069 19.8621 6.62069H17.3793V4.13793ZM6.62069 19.8621C6.62069 21.2334 5.50924 22.3448 4.13793 22.3448C2.76662 22.3448 1.65517 21.2334 1.65517 19.8621C1.65517 18.4908 2.76662 17.3793 4.13793 17.3793H6.62069V19.8621ZM4.13793 6.62069C2.76662 6.62069 1.65517 5.50924 1.65517 4.13793C1.65517 2.76662 2.76662 1.65517 4.13793 1.65517C5.50924 1.65517 6.62069 2.76662 6.62069 4.13793V6.62069H4.13793ZM8.27586 15.7241V8.27586H15.7241V15.7241H8.27586ZM19.8621 22.3448C18.4908 22.3448 17.3793 21.2334 17.3793 19.8621V17.3793H19.8621C21.2334 17.3793 22.3448 18.4908 22.3448 19.8621C22.3448 21.2334 21.2334 22.3448 19.8621 22.3448Z" fill="#232773"/>
</g>
<defs>
<clipPath id="clip0_2026_44907">
<rect width="24" height="24" fill="white"/>
</clipPath>
</defs>
</svg>
