<svg width="34" height="34" viewBox="0 0 34 34" fill="none" xmlns="http://www.w3.org/2000/svg">
<path d="M33 17C33 20 32.1601 22.84 30.6801 25.24C29.8401 26.68 28.76 27.96 27.52 29C24.72 31.52 21.04 33 17 33C11.16 33 6.07995 29.88 3.31995 25.24C1.83995 22.84 1 20 1 17C1 11.96 3.32 7.44002 7 4.52002C9.76 2.32002 13.24 1 17 1C25.84 1 33 8.16 33 17Z" fill="#6EC531" stroke="white" stroke-width="1.5" stroke-miterlimit="10" stroke-linecap="round" stroke-linejoin="round"/>
<path d="M10.76 17L14.72 20.96L23.24 13.0801" fill="#6EC531"/>
<path d="M10.76 17L14.72 20.96L23.24 13.0801" stroke="white" stroke-width="1.5" stroke-linecap="round" stroke-linejoin="round"/>
</svg>
